<?xml version="1.0" encoding="utf-8" standalone="no"?>
<!DOCTYPE svg PUBLIC "-//W3C//DTD SVG 1.1//EN"
  "http://www.w3.org/Graphics/SVG/1.1/DTD/svg11.dtd">
<svg xmlns:xlink="http://www.w3.org/1999/xlink" width="720pt" height="302.4pt" viewBox="0 0 720 302.4" xmlns="http://www.w3.org/2000/svg" version="1.1">
 <metadata>
  <rdf:RDF xmlns:dc="http://purl.org/dc/elements/1.1/" xmlns:cc="http://creativecommons.org/ns#" xmlns:rdf="http://www.w3.org/1999/02/22-rdf-syntax-ns#">
   <cc:Work>
    <dc:type rdf:resource="http://purl.org/dc/dcmitype/StillImage"/>
    <dc:date>2026-05-15T17:04:20.483846</dc:date>
    <dc:format>image/svg+xml</dc:format>
    <dc:creator>
     <cc:Agent>
      <dc:title>Matplotlib v3.10.9, https://matplotlib.org/</dc:title>
     </cc:Agent>
    </dc:creator>
   </cc:Work>
  </rdf:RDF>
 </metadata>
 <defs>
  <style type="text/css">*{stroke-linejoin: round; stroke-linecap: butt}</style>
 </defs>
 <g id="figure_1">
  <g id="patch_1">
   <path d="M 0 302.4 
L 720 302.4 
L 720 0 
L 0 0 
z
" style="fill: #ffffff"/>
  </g>
  <g id="axes_1">
   <g id="patch_2">
    <path d="M 50.87 233.170464 
L 709.2 233.170464 
L 709.2 26.88 
L 50.87 26.88 
z
" style="fill: #ffffff"/>
   </g>
   <g id="matplotlib.axis_1">
    <g id="xtick_1">
     <g id="line2d_1">
      <path d="M 80.794091 233.170464 
L 80.794091 26.88 
" clip-path="url(#p96d7389369)" style="fill: none; stroke: #b0b0b0; stroke-opacity: 0.3; stroke-width: 0.8; stroke-linecap: square"/>
     </g>
     <g id="line2d_2">
      <defs>
       <path id="m1e19615d56" d="M 0 0 
L 0 3.5 
" style="stroke: #000000; stroke-width: 0.8"/>
      </defs>
      <g>
       <use xlink:href="#m1e19615d56" x="80.794091" y="233.170464" style="stroke: #000000; stroke-width: 0.8"/>
      </g>
     </g>
     <g id="text_1">
      <!-- 4-small -->
      <g transform="translate(48.053658 265.053248) rotate(-30) scale(0.1 -0.1)">
       <defs>
        <path id="DejaVuSans-34" d="M 2419 4116 
L 825 1625 
L 2419 1625 
L 2419 4116 
z
M 2253 4666 
L 3047 4666 
L 3047 1625 
L 3713 1625 
L 3713 1100 
L 3047 1100 
L 3047 0 
L 2419 0 
L 2419 1100 
L 313 1100 
L 313 1709 
L 2253 4666 
z
" transform="scale(0.015625)"/>
        <path id="DejaVuSans-2d" d="M 313 2009 
L 1997 2009 
L 1997 1497 
L 313 1497 
L 313 2009 
z
" transform="scale(0.015625)"/>
        <path id="DejaVuSans-73" d="M 2834 3397 
L 2834 2853 
Q 2591 2978 2328 3040 
Q 2066 3103 1784 3103 
Q 1356 3103 1142 2972 
Q 928 2841 928 2578 
Q 928 2378 1081 2264 
Q 1234 2150 1697 2047 
L 1894 2003 
Q 2506 1872 2764 1633 
Q 3022 1394 3022 966 
Q 3022 478 2636 193 
Q 2250 -91 1575 -91 
Q 1294 -91 989 -36 
Q 684 19 347 128 
L 347 722 
Q 666 556 975 473 
Q 1284 391 1588 391 
Q 1994 391 2212 530 
Q 2431 669 2431 922 
Q 2431 1156 2273 1281 
Q 2116 1406 1581 1522 
L 1381 1569 
Q 847 1681 609 1914 
Q 372 2147 372 2553 
Q 372 3047 722 3315 
Q 1072 3584 1716 3584 
Q 2034 3584 2315 3537 
Q 2597 3491 2834 3397 
z
" transform="scale(0.015625)"/>
        <path id="DejaVuSans-6d" d="M 3328 2828 
Q 3544 3216 3844 3400 
Q 4144 3584 4550 3584 
Q 5097 3584 5394 3201 
Q 5691 2819 5691 2113 
L 5691 0 
L 5113 0 
L 5113 2094 
Q 5113 2597 4934 2840 
Q 4756 3084 4391 3084 
Q 3944 3084 3684 2787 
Q 3425 2491 3425 1978 
L 3425 0 
L 2847 0 
L 2847 2094 
Q 2847 2600 2669 2842 
Q 2491 3084 2119 3084 
Q 1678 3084 1418 2786 
Q 1159 2488 1159 1978 
L 1159 0 
L 581 0 
L 581 3500 
L 1159 3500 
L 1159 2956 
Q 1356 3278 1631 3431 
Q 1906 3584 2284 3584 
Q 2666 3584 2933 3390 
Q 3200 3197 3328 2828 
z
" transform="scale(0.015625)"/>
        <path id="DejaVuSans-61" d="M 2194 1759 
Q 1497 1759 1228 1600 
Q 959 1441 959 1056 
Q 959 750 1161 570 
Q 1363 391 1709 391 
Q 2188 391 2477 730 
Q 2766 1069 2766 1631 
L 2766 1759 
L 2194 1759 
z
M 3341 1997 
L 3341 0 
L 2766 0 
L 2766 531 
Q 2569 213 2275 61 
Q 1981 -91 1556 -91 
Q 1019 -91 701 211 
Q 384 513 384 1019 
Q 384 1609 779 1909 
Q 1175 2209 1959 2209 
L 2766 2209 
L 2766 2266 
Q 2766 2663 2505 2880 
Q 2244 3097 1772 3097 
Q 1472 3097 1187 3025 
Q 903 2953 641 2809 
L 641 3341 
Q 956 3463 1253 3523 
Q 1550 3584 1831 3584 
Q 2591 3584 2966 3190 
Q 3341 2797 3341 1997 
z
" transform="scale(0.015625)"/>
        <path id="DejaVuSans-6c" d="M 603 4863 
L 1178 4863 
L 1178 0 
L 603 0 
L 603 4863 
z
" transform="scale(0.015625)"/>
       </defs>
       <use xlink:href="#DejaVuSans-34"/>
       <use xlink:href="#DejaVuSans-2d" transform="translate(63.623047 0)"/>
       <use xlink:href="#DejaVuSans-73" transform="translate(99.707031 0)"/>
       <use xlink:href="#DejaVuSans-6d" transform="translate(151.806641 0)"/>
       <use xlink:href="#DejaVuSans-61" transform="translate(249.21875 0)"/>
       <use xlink:href="#DejaVuSans-6c" transform="translate(310.498047 0)"/>
       <use xlink:href="#DejaVuSans-6c" transform="translate(338.28125 0)"/>
      </g>
     </g>
    </g>
    <g id="xtick_2">
     <g id="line2d_3">
      <path d="M 155.604318 233.170464 
L 155.604318 26.88 
" clip-path="url(#p96d7389369)" style="fill: none; stroke: #b0b0b0; stroke-opacity: 0.3; stroke-width: 0.8; stroke-linecap: square"/>
     </g>
     <g id="line2d_4">
      <g>
       <use xlink:href="#m1e19615d56" x="155.604318" y="233.170464" style="stroke: #000000; stroke-width: 0.8"/>
      </g>
     </g>
     <g id="text_2">
      <!-- 4-medium -->
      <g transform="translate(110.33764 272.285279) rotate(-30) scale(0.1 -0.1)">
       <defs>
        <path id="DejaVuSans-65" d="M 3597 1894 
L 3597 1613 
L 953 1613 
Q 991 1019 1311 708 
Q 1631 397 2203 397 
Q 2534 397 2845 478 
Q 3156 559 3463 722 
L 3463 178 
Q 3153 47 2828 -22 
Q 2503 -91 2169 -91 
Q 1331 -91 842 396 
Q 353 884 353 1716 
Q 353 2575 817 3079 
Q 1281 3584 2069 3584 
Q 2775 3584 3186 3129 
Q 3597 2675 3597 1894 
z
M 3022 2063 
Q 3016 2534 2758 2815 
Q 2500 3097 2075 3097 
Q 1594 3097 1305 2825 
Q 1016 2553 972 2059 
L 3022 2063 
z
" transform="scale(0.015625)"/>
        <path id="DejaVuSans-64" d="M 2906 2969 
L 2906 4863 
L 3481 4863 
L 3481 0 
L 2906 0 
L 2906 525 
Q 2725 213 2448 61 
Q 2172 -91 1784 -91 
Q 1150 -91 751 415 
Q 353 922 353 1747 
Q 353 2572 751 3078 
Q 1150 3584 1784 3584 
Q 2172 3584 2448 3432 
Q 2725 3281 2906 2969 
z
M 947 1747 
Q 947 1113 1208 752 
Q 1469 391 1925 391 
Q 2381 391 2643 752 
Q 2906 1113 2906 1747 
Q 2906 2381 2643 2742 
Q 2381 3103 1925 3103 
Q 1469 3103 1208 2742 
Q 947 2381 947 1747 
z
" transform="scale(0.015625)"/>
        <path id="DejaVuSans-69" d="M 603 3500 
L 1178 3500 
L 1178 0 
L 603 0 
L 603 3500 
z
M 603 4863 
L 1178 4863 
L 1178 4134 
L 603 4134 
L 603 4863 
z
" transform="scale(0.015625)"/>
        <path id="DejaVuSans-75" d="M 544 1381 
L 544 3500 
L 1119 3500 
L 1119 1403 
Q 1119 906 1312 657 
Q 1506 409 1894 409 
Q 2359 409 2629 706 
Q 2900 1003 2900 1516 
L 2900 3500 
L 3475 3500 
L 3475 0 
L 2900 0 
L 2900 538 
Q 2691 219 2414 64 
Q 2138 -91 1772 -91 
Q 1169 -91 856 284 
Q 544 659 544 1381 
z
M 1991 3584 
L 1991 3584 
z
" transform="scale(0.015625)"/>
       </defs>
       <use xlink:href="#DejaVuSans-34"/>
       <use xlink:href="#DejaVuSans-2d" transform="translate(63.623047 0)"/>
       <use xlink:href="#DejaVuSans-6d" transform="translate(99.707031 0)"/>
       <use xlink:href="#DejaVuSans-65" transform="translate(197.119141 0)"/>
       <use xlink:href="#DejaVuSans-64" transform="translate(258.642578 0)"/>
       <use xlink:href="#DejaVuSans-69" transform="translate(322.119141 0)"/>
       <use xlink:href="#DejaVuSans-75" transform="translate(349.902344 0)"/>
       <use xlink:href="#DejaVuSans-6d" transform="translate(413.28125 0)"/>
      </g>
     </g>
    </g>
    <g id="xtick_3">
     <g id="line2d_5">
      <path d="M 230.414545 233.170464 
L 230.414545 26.88 
" clip-path="url(#p96d7389369)" style="fill: none; stroke: #b0b0b0; stroke-opacity: 0.3; stroke-width: 0.8; stroke-linecap: square"/>
     </g>
     <g id="line2d_6">
      <g>
       <use xlink:href="#m1e19615d56" x="230.414545" y="233.170464" style="stroke: #000000; stroke-width: 0.8"/>
      </g>
     </g>
     <g id="text_3">
      <!-- 4-large -->
      <g transform="translate(198.791826 264.407935) rotate(-30) scale(0.1 -0.1)">
       <defs>
        <path id="DejaVuSans-72" d="M 2631 2963 
Q 2534 3019 2420 3045 
Q 2306 3072 2169 3072 
Q 1681 3072 1420 2755 
Q 1159 2438 1159 1844 
L 1159 0 
L 581 0 
L 581 3500 
L 1159 3500 
L 1159 2956 
Q 1341 3275 1631 3429 
Q 1922 3584 2338 3584 
Q 2397 3584 2469 3576 
Q 2541 3569 2628 3553 
L 2631 2963 
z
" transform="scale(0.015625)"/>
        <path id="DejaVuSans-67" d="M 2906 1791 
Q 2906 2416 2648 2759 
Q 2391 3103 1925 3103 
Q 1463 3103 1205 2759 
Q 947 2416 947 1791 
Q 947 1169 1205 825 
Q 1463 481 1925 481 
Q 2391 481 2648 825 
Q 2906 1169 2906 1791 
z
M 3481 434 
Q 3481 -459 3084 -895 
Q 2688 -1331 1869 -1331 
Q 1566 -1331 1297 -1286 
Q 1028 -1241 775 -1147 
L 775 -588 
Q 1028 -725 1275 -790 
Q 1522 -856 1778 -856 
Q 2344 -856 2625 -561 
Q 2906 -266 2906 331 
L 2906 616 
Q 2728 306 2450 153 
Q 2172 0 1784 0 
Q 1141 0 747 490 
Q 353 981 353 1791 
Q 353 2603 747 3093 
Q 1141 3584 1784 3584 
Q 2172 3584 2450 3431 
Q 2728 3278 2906 2969 
L 2906 3500 
L 3481 3500 
L 3481 434 
z
" transform="scale(0.015625)"/>
       </defs>
       <use xlink:href="#DejaVuSans-34"/>
       <use xlink:href="#DejaVuSans-2d" transform="translate(63.623047 0)"/>
       <use xlink:href="#DejaVuSans-6c" transform="translate(99.707031 0)"/>
       <use xlink:href="#DejaVuSans-61" transform="translate(127.490234 0)"/>
       <use xlink:href="#DejaVuSans-72" transform="translate(188.769531 0)"/>
       <use xlink:href="#DejaVuSans-67" transform="translate(228.132812 0)"/>
       <use xlink:href="#DejaVuSans-65" transform="translate(291.609375 0)"/>
      </g>
     </g>
    </g>
    <g id="xtick_4">
     <g id="line2d_7">
      <path d="M 305.224773 233.170464 
L 305.224773 26.88 
" clip-path="url(#p96d7389369)" style="fill: none; stroke: #b0b0b0; stroke-opacity: 0.3; stroke-width: 0.8; stroke-linecap: square"/>
     </g>
     <g id="line2d_8">
      <g>
       <use xlink:href="#m1e19615d56" x="305.224773" y="233.170464" style="stroke: #000000; stroke-width: 0.8"/>
      </g>
     </g>
     <g id="text_4">
      <!-- 8-small -->
      <g transform="translate(272.48434 265.053248) rotate(-30) scale(0.1 -0.1)">
       <defs>
        <path id="DejaVuSans-38" d="M 2034 2216 
Q 1584 2216 1326 1975 
Q 1069 1734 1069 1313 
Q 1069 891 1326 650 
Q 1584 409 2034 409 
Q 2484 409 2743 651 
Q 3003 894 3003 1313 
Q 3003 1734 2745 1975 
Q 2488 2216 2034 2216 
z
M 1403 2484 
Q 997 2584 770 2862 
Q 544 3141 544 3541 
Q 544 4100 942 4425 
Q 1341 4750 2034 4750 
Q 2731 4750 3128 4425 
Q 3525 4100 3525 3541 
Q 3525 3141 3298 2862 
Q 3072 2584 2669 2484 
Q 3125 2378 3379 2068 
Q 3634 1759 3634 1313 
Q 3634 634 3220 271 
Q 2806 -91 2034 -91 
Q 1263 -91 848 271 
Q 434 634 434 1313 
Q 434 1759 690 2068 
Q 947 2378 1403 2484 
z
M 1172 3481 
Q 1172 3119 1398 2916 
Q 1625 2713 2034 2713 
Q 2441 2713 2670 2916 
Q 2900 3119 2900 3481 
Q 2900 3844 2670 4047 
Q 2441 4250 2034 4250 
Q 1625 4250 1398 4047 
Q 1172 3844 1172 3481 
z
" transform="scale(0.015625)"/>
       </defs>
       <use xlink:href="#DejaVuSans-38"/>
       <use xlink:href="#DejaVuSans-2d" transform="translate(63.623047 0)"/>
       <use xlink:href="#DejaVuSans-73" transform="translate(99.707031 0)"/>
       <use xlink:href="#DejaVuSans-6d" transform="translate(151.806641 0)"/>
       <use xlink:href="#DejaVuSans-61" transform="translate(249.21875 0)"/>
       <use xlink:href="#DejaVuSans-6c" transform="translate(310.498047 0)"/>
       <use xlink:href="#DejaVuSans-6c" transform="translate(338.28125 0)"/>
      </g>
     </g>
    </g>
    <g id="xtick_5">
     <g id="line2d_9">
      <path d="M 380.035 233.170464 
L 380.035 26.88 
" clip-path="url(#p96d7389369)" style="fill: none; stroke: #b0b0b0; stroke-opacity: 0.3; stroke-width: 0.8; stroke-linecap: square"/>
     </g>
     <g id="line2d_10">
      <g>
       <use xlink:href="#m1e19615d56" x="380.035" y="233.170464" style="stroke: #000000; stroke-width: 0.8"/>
      </g>
     </g>
     <g id="text_5">
      <!-- 8-medium -->
      <g transform="translate(334.768321 272.285279) rotate(-30) scale(0.1 -0.1)">
       <use xlink:href="#DejaVuSans-38"/>
       <use xlink:href="#DejaVuSans-2d" transform="translate(63.623047 0)"/>
       <use xlink:href="#DejaVuSans-6d" transform="translate(99.707031 0)"/>
       <use xlink:href="#DejaVuSans-65" transform="translate(197.119141 0)"/>
       <use xlink:href="#DejaVuSans-64" transform="translate(258.642578 0)"/>
       <use xlink:href="#DejaVuSans-69" transform="translate(322.119141 0)"/>
       <use xlink:href="#DejaVuSans-75" transform="translate(349.902344 0)"/>
       <use xlink:href="#DejaVuSans-6d" transform="translate(413.28125 0)"/>
      </g>
     </g>
    </g>
    <g id="xtick_6">
     <g id="line2d_11">
      <path d="M 454.845227 233.170464 
L 454.845227 26.88 
" clip-path="url(#p96d7389369)" style="fill: none; stroke: #b0b0b0; stroke-opacity: 0.3; stroke-width: 0.8; stroke-linecap: square"/>
     </g>
     <g id="line2d_12">
      <g>
       <use xlink:href="#m1e19615d56" x="454.845227" y="233.170464" style="stroke: #000000; stroke-width: 0.8"/>
      </g>
     </g>
     <g id="text_6">
      <!-- 8-large -->
      <g transform="translate(423.222508 264.407935) rotate(-30) scale(0.1 -0.1)">
       <use xlink:href="#DejaVuSans-38"/>
       <use xlink:href="#DejaVuSans-2d" transform="translate(63.623047 0)"/>
       <use xlink:href="#DejaVuSans-6c" transform="translate(99.707031 0)"/>
       <use xlink:href="#DejaVuSans-61" transform="translate(127.490234 0)"/>
       <use xlink:href="#DejaVuSans-72" transform="translate(188.769531 0)"/>
       <use xlink:href="#DejaVuSans-67" transform="translate(228.132812 0)"/>
       <use xlink:href="#DejaVuSans-65" transform="translate(291.609375 0)"/>
      </g>
     </g>
    </g>
    <g id="xtick_7">
     <g id="line2d_13">
      <path d="M 529.655455 233.170464 
L 529.655455 26.88 
" clip-path="url(#p96d7389369)" style="fill: none; stroke: #b0b0b0; stroke-opacity: 0.3; stroke-width: 0.8; stroke-linecap: square"/>
     </g>
     <g id="line2d_14">
      <g>
       <use xlink:href="#m1e19615d56" x="529.655455" y="233.170464" style="stroke: #000000; stroke-width: 0.8"/>
      </g>
     </g>
     <g id="text_7">
      <!-- 12-small -->
      <g transform="translate(491.404935 268.234498) rotate(-30) scale(0.1 -0.1)">
       <defs>
        <path id="DejaVuSans-31" d="M 794 531 
L 1825 531 
L 1825 4091 
L 703 3866 
L 703 4441 
L 1819 4666 
L 2450 4666 
L 2450 531 
L 3481 531 
L 3481 0 
L 794 0 
L 794 531 
z
" transform="scale(0.015625)"/>
        <path id="DejaVuSans-32" d="M 1228 531 
L 3431 531 
L 3431 0 
L 469 0 
L 469 531 
Q 828 903 1448 1529 
Q 2069 2156 2228 2338 
Q 2531 2678 2651 2914 
Q 2772 3150 2772 3378 
Q 2772 3750 2511 3984 
Q 2250 4219 1831 4219 
Q 1534 4219 1204 4116 
Q 875 4013 500 3803 
L 500 4441 
Q 881 4594 1212 4672 
Q 1544 4750 1819 4750 
Q 2544 4750 2975 4387 
Q 3406 4025 3406 3419 
Q 3406 3131 3298 2873 
Q 3191 2616 2906 2266 
Q 2828 2175 2409 1742 
Q 1991 1309 1228 531 
z
" transform="scale(0.015625)"/>
       </defs>
       <use xlink:href="#DejaVuSans-31"/>
       <use xlink:href="#DejaVuSans-32" transform="translate(63.623047 0)"/>
       <use xlink:href="#DejaVuSans-2d" transform="translate(127.246094 0)"/>
       <use xlink:href="#DejaVuSans-73" transform="translate(163.330078 0)"/>
       <use xlink:href="#DejaVuSans-6d" transform="translate(215.429688 0)"/>
       <use xlink:href="#DejaVuSans-61" transform="translate(312.841797 0)"/>
       <use xlink:href="#DejaVuSans-6c" transform="translate(374.121094 0)"/>
       <use xlink:href="#DejaVuSans-6c" transform="translate(401.904297 0)"/>
      </g>
     </g>
    </g>
    <g id="xtick_8">
     <g id="line2d_15">
      <path d="M 604.465682 233.170464 
L 604.465682 26.88 
" clip-path="url(#p96d7389369)" style="fill: none; stroke: #b0b0b0; stroke-opacity: 0.3; stroke-width: 0.8; stroke-linecap: square"/>
     </g>
     <g id="line2d_16">
      <g>
       <use xlink:href="#m1e19615d56" x="604.465682" y="233.170464" style="stroke: #000000; stroke-width: 0.8"/>
      </g>
     </g>
     <g id="text_8">
      <!-- 12-medium -->
      <g transform="translate(553.688917 275.466529) rotate(-30) scale(0.1 -0.1)">
       <use xlink:href="#DejaVuSans-31"/>
       <use xlink:href="#DejaVuSans-32" transform="translate(63.623047 0)"/>
       <use xlink:href="#DejaVuSans-2d" transform="translate(127.246094 0)"/>
       <use xlink:href="#DejaVuSans-6d" transform="translate(163.330078 0)"/>
       <use xlink:href="#DejaVuSans-65" transform="translate(260.742188 0)"/>
       <use xlink:href="#DejaVuSans-64" transform="translate(322.265625 0)"/>
       <use xlink:href="#DejaVuSans-69" transform="translate(385.742188 0)"/>
       <use xlink:href="#DejaVuSans-75" transform="translate(413.525391 0)"/>
       <use xlink:href="#DejaVuSans-6d" transform="translate(476.904297 0)"/>
      </g>
     </g>
    </g>
    <g id="xtick_9">
     <g id="line2d_17">
      <path d="M 679.275909 233.170464 
L 679.275909 26.88 
" clip-path="url(#p96d7389369)" style="fill: none; stroke: #b0b0b0; stroke-opacity: 0.3; stroke-width: 0.8; stroke-linecap: square"/>
     </g>
     <g id="line2d_18">
      <g>
       <use xlink:href="#m1e19615d56" x="679.275909" y="233.170464" style="stroke: #000000; stroke-width: 0.8"/>
      </g>
     </g>
     <g id="text_9">
      <!-- 12-large -->
      <g transform="translate(642.143103 267.589185) rotate(-30) scale(0.1 -0.1)">
       <use xlink:href="#DejaVuSans-31"/>
       <use xlink:href="#DejaVuSans-32" transform="translate(63.623047 0)"/>
       <use xlink:href="#DejaVuSans-2d" transform="translate(127.246094 0)"/>
       <use xlink:href="#DejaVuSans-6c" transform="translate(163.330078 0)"/>
       <use xlink:href="#DejaVuSans-61" transform="translate(191.113281 0)"/>
       <use xlink:href="#DejaVuSans-72" transform="translate(252.392578 0)"/>
       <use xlink:href="#DejaVuSans-67" transform="translate(291.755859 0)"/>
       <use xlink:href="#DejaVuSans-65" transform="translate(355.232422 0)"/>
      </g>
     </g>
    </g>
    <g id="text_10">
     <!-- workload scale -->
     <g transform="translate(342.776406 288.866029) scale(0.1 -0.1)">
      <defs>
       <path id="DejaVuSans-77" d="M 269 3500 
L 844 3500 
L 1563 769 
L 2278 3500 
L 2956 3500 
L 3675 769 
L 4391 3500 
L 4966 3500 
L 4050 0 
L 3372 0 
L 2619 2869 
L 1863 0 
L 1184 0 
L 269 3500 
z
" transform="scale(0.015625)"/>
       <path id="DejaVuSans-6f" d="M 1959 3097 
Q 1497 3097 1228 2736 
Q 959 2375 959 1747 
Q 959 1119 1226 758 
Q 1494 397 1959 397 
Q 2419 397 2687 759 
Q 2956 1122 2956 1747 
Q 2956 2369 2687 2733 
Q 2419 3097 1959 3097 
z
M 1959 3584 
Q 2709 3584 3137 3096 
Q 3566 2609 3566 1747 
Q 3566 888 3137 398 
Q 2709 -91 1959 -91 
Q 1206 -91 779 398 
Q 353 888 353 1747 
Q 353 2609 779 3096 
Q 1206 3584 1959 3584 
z
" transform="scale(0.015625)"/>
       <path id="DejaVuSans-6b" d="M 581 4863 
L 1159 4863 
L 1159 1991 
L 2875 3500 
L 3609 3500 
L 1753 1863 
L 3688 0 
L 2938 0 
L 1159 1709 
L 1159 0 
L 581 0 
L 581 4863 
z
" transform="scale(0.015625)"/>
       <path id="DejaVuSans-20" transform="scale(0.015625)"/>
       <path id="DejaVuSans-63" d="M 3122 3366 
L 3122 2828 
Q 2878 2963 2633 3030 
Q 2388 3097 2138 3097 
Q 1578 3097 1268 2742 
Q 959 2388 959 1747 
Q 959 1106 1268 751 
Q 1578 397 2138 397 
Q 2388 397 2633 464 
Q 2878 531 3122 666 
L 3122 134 
Q 2881 22 2623 -34 
Q 2366 -91 2075 -91 
Q 1284 -91 818 406 
Q 353 903 353 1747 
Q 353 2603 823 3093 
Q 1294 3584 2113 3584 
Q 2378 3584 2631 3529 
Q 2884 3475 3122 3366 
z
" transform="scale(0.015625)"/>
      </defs>
      <use xlink:href="#DejaVuSans-77"/>
      <use xlink:href="#DejaVuSans-6f" transform="translate(81.787109 0)"/>
      <use xlink:href="#DejaVuSans-72" transform="translate(142.96875 0)"/>
      <use xlink:href="#DejaVuSans-6b" transform="translate(184.082031 0)"/>
      <use xlink:href="#DejaVuSans-6c" transform="translate(241.992188 0)"/>
      <use xlink:href="#DejaVuSans-6f" transform="translate(269.775391 0)"/>
      <use xlink:href="#DejaVuSans-61" transform="translate(330.957031 0)"/>
      <use xlink:href="#DejaVuSans-64" transform="translate(392.236328 0)"/>
      <use xlink:href="#DejaVuSans-20" transform="translate(455.712891 0)"/>
      <use xlink:href="#DejaVuSans-73" transform="translate(487.5 0)"/>
      <use xlink:href="#DejaVuSans-63" transform="translate(539.599609 0)"/>
      <use xlink:href="#DejaVuSans-61" transform="translate(594.580078 0)"/>
      <use xlink:href="#DejaVuSans-6c" transform="translate(655.859375 0)"/>
      <use xlink:href="#DejaVuSans-65" transform="translate(683.642578 0)"/>
     </g>
    </g>
   </g>
   <g id="matplotlib.axis_2">
    <g id="ytick_1">
     <g id="line2d_19">
      <path d="M 50.87 222.268935 
L 709.2 222.268935 
" clip-path="url(#p96d7389369)" style="fill: none; stroke: #b0b0b0; stroke-opacity: 0.3; stroke-width: 0.8; stroke-linecap: square"/>
     </g>
     <g id="line2d_20">
      <defs>
       <path id="m0f4e1c7bf2" d="M 0 0 
L -3.5 0 
" style="stroke: #000000; stroke-width: 0.8"/>
      </defs>
      <g>
       <use xlink:href="#m0f4e1c7bf2" x="50.87" y="222.268935" style="stroke: #000000; stroke-width: 0.8"/>
      </g>
     </g>
     <g id="text_11">
      <!-- 20 -->
      <g transform="translate(31.145 226.068154) scale(0.1 -0.1)">
       <defs>
        <path id="DejaVuSans-30" d="M 2034 4250 
Q 1547 4250 1301 3770 
Q 1056 3291 1056 2328 
Q 1056 1369 1301 889 
Q 1547 409 2034 409 
Q 2525 409 2770 889 
Q 3016 1369 3016 2328 
Q 3016 3291 2770 3770 
Q 2525 4250 2034 4250 
z
M 2034 4750 
Q 2819 4750 3233 4129 
Q 3647 3509 3647 2328 
Q 3647 1150 3233 529 
Q 2819 -91 2034 -91 
Q 1250 -91 836 529 
Q 422 1150 422 2328 
Q 422 3509 836 4129 
Q 1250 4750 2034 4750 
z
" transform="scale(0.015625)"/>
       </defs>
       <use xlink:href="#DejaVuSans-32"/>
       <use xlink:href="#DejaVuSans-30" transform="translate(63.623047 0)"/>
      </g>
     </g>
    </g>
    <g id="ytick_2">
     <g id="line2d_21">
      <path d="M 50.87 191.775149 
L 709.2 191.775149 
" clip-path="url(#p96d7389369)" style="fill: none; stroke: #b0b0b0; stroke-opacity: 0.3; stroke-width: 0.8; stroke-linecap: square"/>
     </g>
     <g id="line2d_22">
      <g>
       <use xlink:href="#m0f4e1c7bf2" x="50.87" y="191.775149" style="stroke: #000000; stroke-width: 0.8"/>
      </g>
     </g>
     <g id="text_12">
      <!-- 40 -->
      <g transform="translate(31.145 195.574368) scale(0.1 -0.1)">
       <use xlink:href="#DejaVuSans-34"/>
       <use xlink:href="#DejaVuSans-30" transform="translate(63.623047 0)"/>
      </g>
     </g>
    </g>
    <g id="ytick_3">
     <g id="line2d_23">
      <path d="M 50.87 161.281363 
L 709.2 161.281363 
" clip-path="url(#p96d7389369)" style="fill: none; stroke: #b0b0b0; stroke-opacity: 0.3; stroke-width: 0.8; stroke-linecap: square"/>
     </g>
     <g id="line2d_24">
      <g>
       <use xlink:href="#m0f4e1c7bf2" x="50.87" y="161.281363" style="stroke: #000000; stroke-width: 0.8"/>
      </g>
     </g>
     <g id="text_13">
      <!-- 60 -->
      <g transform="translate(31.145 165.080582) scale(0.1 -0.1)">
       <defs>
        <path id="DejaVuSans-36" d="M 2113 2584 
Q 1688 2584 1439 2293 
Q 1191 2003 1191 1497 
Q 1191 994 1439 701 
Q 1688 409 2113 409 
Q 2538 409 2786 701 
Q 3034 994 3034 1497 
Q 3034 2003 2786 2293 
Q 2538 2584 2113 2584 
z
M 3366 4563 
L 3366 3988 
Q 3128 4100 2886 4159 
Q 2644 4219 2406 4219 
Q 1781 4219 1451 3797 
Q 1122 3375 1075 2522 
Q 1259 2794 1537 2939 
Q 1816 3084 2150 3084 
Q 2853 3084 3261 2657 
Q 3669 2231 3669 1497 
Q 3669 778 3244 343 
Q 2819 -91 2113 -91 
Q 1303 -91 875 529 
Q 447 1150 447 2328 
Q 447 3434 972 4092 
Q 1497 4750 2381 4750 
Q 2619 4750 2861 4703 
Q 3103 4656 3366 4563 
z
" transform="scale(0.015625)"/>
       </defs>
       <use xlink:href="#DejaVuSans-36"/>
       <use xlink:href="#DejaVuSans-30" transform="translate(63.623047 0)"/>
      </g>
     </g>
    </g>
    <g id="ytick_4">
     <g id="line2d_25">
      <path d="M 50.87 130.787577 
L 709.2 130.787577 
" clip-path="url(#p96d7389369)" style="fill: none; stroke: #b0b0b0; stroke-opacity: 0.3; stroke-width: 0.8; stroke-linecap: square"/>
     </g>
     <g id="line2d_26">
      <g>
       <use xlink:href="#m0f4e1c7bf2" x="50.87" y="130.787577" style="stroke: #000000; stroke-width: 0.8"/>
      </g>
     </g>
     <g id="text_14">
      <!-- 80 -->
      <g transform="translate(31.145 134.586795) scale(0.1 -0.1)">
       <use xlink:href="#DejaVuSans-38"/>
       <use xlink:href="#DejaVuSans-30" transform="translate(63.623047 0)"/>
      </g>
     </g>
    </g>
    <g id="ytick_5">
     <g id="line2d_27">
      <path d="M 50.87 100.29379 
L 709.2 100.29379 
" clip-path="url(#p96d7389369)" style="fill: none; stroke: #b0b0b0; stroke-opacity: 0.3; stroke-width: 0.8; stroke-linecap: square"/>
     </g>
     <g id="line2d_28">
      <g>
       <use xlink:href="#m0f4e1c7bf2" x="50.87" y="100.29379" style="stroke: #000000; stroke-width: 0.8"/>
      </g>
     </g>
     <g id="text_15">
      <!-- 100 -->
      <g transform="translate(24.7825 104.093009) scale(0.1 -0.1)">
       <use xlink:href="#DejaVuSans-31"/>
       <use xlink:href="#DejaVuSans-30" transform="translate(63.623047 0)"/>
       <use xlink:href="#DejaVuSans-30" transform="translate(127.246094 0)"/>
      </g>
     </g>
    </g>
    <g id="ytick_6">
     <g id="line2d_29">
      <path d="M 50.87 69.800004 
L 709.2 69.800004 
" clip-path="url(#p96d7389369)" style="fill: none; stroke: #b0b0b0; stroke-opacity: 0.3; stroke-width: 0.8; stroke-linecap: square"/>
     </g>
     <g id="line2d_30">
      <g>
       <use xlink:href="#m0f4e1c7bf2" x="50.87" y="69.800004" style="stroke: #000000; stroke-width: 0.8"/>
      </g>
     </g>
     <g id="text_16">
      <!-- 120 -->
      <g transform="translate(24.7825 73.599223) scale(0.1 -0.1)">
       <use xlink:href="#DejaVuSans-31"/>
       <use xlink:href="#DejaVuSans-32" transform="translate(63.623047 0)"/>
       <use xlink:href="#DejaVuSans-30" transform="translate(127.246094 0)"/>
      </g>
     </g>
    </g>
    <g id="ytick_7">
     <g id="line2d_31">
      <path d="M 50.87 39.306218 
L 709.2 39.306218 
" clip-path="url(#p96d7389369)" style="fill: none; stroke: #b0b0b0; stroke-opacity: 0.3; stroke-width: 0.8; stroke-linecap: square"/>
     </g>
     <g id="line2d_32">
      <g>
       <use xlink:href="#m0f4e1c7bf2" x="50.87" y="39.306218" style="stroke: #000000; stroke-width: 0.8"/>
      </g>
     </g>
     <g id="text_17">
      <!-- 140 -->
      <g transform="translate(24.7825 43.105437) scale(0.1 -0.1)">
       <use xlink:href="#DejaVuSans-31"/>
       <use xlink:href="#DejaVuSans-34" transform="translate(63.623047 0)"/>
       <use xlink:href="#DejaVuSans-30" transform="translate(127.246094 0)"/>
      </g>
     </g>
    </g>
    <g id="text_18">
     <!-- task count -->
     <g transform="translate(18.702813 156.244763) rotate(-90) scale(0.1 -0.1)">
      <defs>
       <path id="DejaVuSans-74" d="M 1172 4494 
L 1172 3500 
L 2356 3500 
L 2356 3053 
L 1172 3053 
L 1172 1153 
Q 1172 725 1289 603 
Q 1406 481 1766 481 
L 2356 481 
L 2356 0 
L 1766 0 
Q 1100 0 847 248 
Q 594 497 594 1153 
L 594 3053 
L 172 3053 
L 172 3500 
L 594 3500 
L 594 4494 
L 1172 4494 
z
" transform="scale(0.015625)"/>
       <path id="DejaVuSans-6e" d="M 3513 2113 
L 3513 0 
L 2938 0 
L 2938 2094 
Q 2938 2591 2744 2837 
Q 2550 3084 2163 3084 
Q 1697 3084 1428 2787 
Q 1159 2491 1159 1978 
L 1159 0 
L 581 0 
L 581 3500 
L 1159 3500 
L 1159 2956 
Q 1366 3272 1645 3428 
Q 1925 3584 2291 3584 
Q 2894 3584 3203 3211 
Q 3513 2838 3513 2113 
z
" transform="scale(0.015625)"/>
      </defs>
      <use xlink:href="#DejaVuSans-74"/>
      <use xlink:href="#DejaVuSans-61" transform="translate(39.208984 0)"/>
      <use xlink:href="#DejaVuSans-73" transform="translate(100.488281 0)"/>
      <use xlink:href="#DejaVuSans-6b" transform="translate(152.587891 0)"/>
      <use xlink:href="#DejaVuSans-20" transform="translate(210.498047 0)"/>
      <use xlink:href="#DejaVuSans-63" transform="translate(242.285156 0)"/>
      <use xlink:href="#DejaVuSans-6f" transform="translate(297.265625 0)"/>
      <use xlink:href="#DejaVuSans-75" transform="translate(358.447266 0)"/>
      <use xlink:href="#DejaVuSans-6e" transform="translate(421.826172 0)"/>
      <use xlink:href="#DejaVuSans-74" transform="translate(485.205078 0)"/>
     </g>
    </g>
   </g>
   <g id="line2d_33">
    <path d="M 80.794091 223.793625 
L 155.604318 211.59611 
L 230.414545 182.627013 
L 305.224773 193.299838 
L 380.035 168.904809 
L 454.845227 109.441926 
L 529.655455 162.806052 
L 604.465682 126.213509 
L 679.275909 36.256839 
" clip-path="url(#p96d7389369)" style="fill: none; stroke: #1f77b4; stroke-width: 1.5; stroke-linecap: square"/>
    <defs>
     <path id="md83ebf9e9a" d="M 0 3 
C 0.795609 3 1.55874 2.683901 2.12132 2.12132 
C 2.683901 1.55874 3 0.795609 3 0 
C 3 -0.795609 2.683901 -1.55874 2.12132 -2.12132 
C 1.55874 -2.683901 0.795609 -3 0 -3 
C -0.795609 -3 -1.55874 -2.683901 -2.12132 -2.12132 
C -2.683901 -1.55874 -3 -0.795609 -3 0 
C -3 0.795609 -2.683901 1.55874 -2.12132 2.12132 
C -1.55874 2.683901 -0.795609 3 0 3 
z
" style="stroke: #1f77b4"/>
    </defs>
    <g clip-path="url(#p96d7389369)">
     <use xlink:href="#md83ebf9e9a" x="80.794091" y="223.793625" style="fill: #1f77b4; stroke: #1f77b4"/>
     <use xlink:href="#md83ebf9e9a" x="155.604318" y="211.59611" style="fill: #1f77b4; stroke: #1f77b4"/>
     <use xlink:href="#md83ebf9e9a" x="230.414545" y="182.627013" style="fill: #1f77b4; stroke: #1f77b4"/>
     <use xlink:href="#md83ebf9e9a" x="305.224773" y="193.299838" style="fill: #1f77b4; stroke: #1f77b4"/>
     <use xlink:href="#md83ebf9e9a" x="380.035" y="168.904809" style="fill: #1f77b4; stroke: #1f77b4"/>
     <use xlink:href="#md83ebf9e9a" x="454.845227" y="109.441926" style="fill: #1f77b4; stroke: #1f77b4"/>
     <use xlink:href="#md83ebf9e9a" x="529.655455" y="162.806052" style="fill: #1f77b4; stroke: #1f77b4"/>
     <use xlink:href="#md83ebf9e9a" x="604.465682" y="126.213509" style="fill: #1f77b4; stroke: #1f77b4"/>
     <use xlink:href="#md83ebf9e9a" x="679.275909" y="36.256839" style="fill: #1f77b4; stroke: #1f77b4"/>
    </g>
   </g>
   <g id="line2d_34">
    <path d="M 80.794091 223.793625 
L 155.604318 211.59611 
L 230.414545 182.627013 
L 305.224773 193.299838 
L 380.035 168.904809 
L 454.845227 109.441926 
L 529.655455 162.806052 
L 604.465682 126.213509 
L 679.275909 36.256839 
" clip-path="url(#p96d7389369)" style="fill: none; stroke: #ff7f0e; stroke-width: 1.5; stroke-linecap: square"/>
    <defs>
     <path id="mf2b19cf43e" d="M 0 3 
C 0.795609 3 1.55874 2.683901 2.12132 2.12132 
C 2.683901 1.55874 3 0.795609 3 0 
C 3 -0.795609 2.683901 -1.55874 2.12132 -2.12132 
C 1.55874 -2.683901 0.795609 -3 0 -3 
C -0.795609 -3 -1.55874 -2.683901 -2.12132 -2.12132 
C -2.683901 -1.55874 -3 -0.795609 -3 0 
C -3 0.795609 -2.683901 1.55874 -2.12132 2.12132 
C -1.55874 2.683901 -0.795609 3 0 3 
z
" style="stroke: #ff7f0e"/>
    </defs>
    <g clip-path="url(#p96d7389369)">
     <use xlink:href="#mf2b19cf43e" x="80.794091" y="223.793625" style="fill: #ff7f0e; stroke: #ff7f0e"/>
     <use xlink:href="#mf2b19cf43e" x="155.604318" y="211.59611" style="fill: #ff7f0e; stroke: #ff7f0e"/>
     <use xlink:href="#mf2b19cf43e" x="230.414545" y="182.627013" style="fill: #ff7f0e; stroke: #ff7f0e"/>
     <use xlink:href="#mf2b19cf43e" x="305.224773" y="193.299838" style="fill: #ff7f0e; stroke: #ff7f0e"/>
     <use xlink:href="#mf2b19cf43e" x="380.035" y="168.904809" style="fill: #ff7f0e; stroke: #ff7f0e"/>
     <use xlink:href="#mf2b19cf43e" x="454.845227" y="109.441926" style="fill: #ff7f0e; stroke: #ff7f0e"/>
     <use xlink:href="#mf2b19cf43e" x="529.655455" y="162.806052" style="fill: #ff7f0e; stroke: #ff7f0e"/>
     <use xlink:href="#mf2b19cf43e" x="604.465682" y="126.213509" style="fill: #ff7f0e; stroke: #ff7f0e"/>
     <use xlink:href="#mf2b19cf43e" x="679.275909" y="36.256839" style="fill: #ff7f0e; stroke: #ff7f0e"/>
    </g>
   </g>
   <g id="line2d_35">
    <path d="M 80.794091 223.793625 
L 155.604318 211.59611 
L 230.414545 182.627013 
L 305.224773 193.299838 
L 380.035 168.904809 
L 454.845227 109.441926 
L 529.655455 162.806052 
L 604.465682 126.213509 
L 679.275909 36.256839 
" clip-path="url(#p96d7389369)" style="fill: none; stroke: #2ca02c; stroke-width: 1.5; stroke-linecap: square"/>
    <defs>
     <path id="m7551a8a3cb" d="M 0 3 
C 0.795609 3 1.55874 2.683901 2.12132 2.12132 
C 2.683901 1.55874 3 0.795609 3 0 
C 3 -0.795609 2.683901 -1.55874 2.12132 -2.12132 
C 1.55874 -2.683901 0.795609 -3 0 -3 
C -0.795609 -3 -1.55874 -2.683901 -2.12132 -2.12132 
C -2.683901 -1.55874 -3 -0.795609 -3 0 
C -3 0.795609 -2.683901 1.55874 -2.12132 2.12132 
C -1.55874 2.683901 -0.795609 3 0 3 
z
" style="stroke: #2ca02c"/>
    </defs>
    <g clip-path="url(#p96d7389369)">
     <use xlink:href="#m7551a8a3cb" x="80.794091" y="223.793625" style="fill: #2ca02c; stroke: #2ca02c"/>
     <use xlink:href="#m7551a8a3cb" x="155.604318" y="211.59611" style="fill: #2ca02c; stroke: #2ca02c"/>
     <use xlink:href="#m7551a8a3cb" x="230.414545" y="182.627013" style="fill: #2ca02c; stroke: #2ca02c"/>
     <use xlink:href="#m7551a8a3cb" x="305.224773" y="193.299838" style="fill: #2ca02c; stroke: #2ca02c"/>
     <use xlink:href="#m7551a8a3cb" x="380.035" y="168.904809" style="fill: #2ca02c; stroke: #2ca02c"/>
     <use xlink:href="#m7551a8a3cb" x="454.845227" y="109.441926" style="fill: #2ca02c; stroke: #2ca02c"/>
     <use xlink:href="#m7551a8a3cb" x="529.655455" y="162.806052" style="fill: #2ca02c; stroke: #2ca02c"/>
     <use xlink:href="#m7551a8a3cb" x="604.465682" y="126.213509" style="fill: #2ca02c; stroke: #2ca02c"/>
     <use xlink:href="#m7551a8a3cb" x="679.275909" y="36.256839" style="fill: #2ca02c; stroke: #2ca02c"/>
    </g>
   </g>
   <g id="patch_3">
    <path d="M 50.87 233.170464 
L 50.87 26.88 
" style="fill: none; stroke: #000000; stroke-width: 0.8; stroke-linejoin: miter; stroke-linecap: square"/>
   </g>
   <g id="patch_4">
    <path d="M 709.2 233.170464 
L 709.2 26.88 
" style="fill: none; stroke: #000000; stroke-width: 0.8; stroke-linejoin: miter; stroke-linecap: square"/>
   </g>
   <g id="patch_5">
    <path d="M 50.87 233.170464 
L 709.2 233.170464 
" style="fill: none; stroke: #000000; stroke-width: 0.8; stroke-linejoin: miter; stroke-linecap: square"/>
   </g>
   <g id="patch_6">
    <path d="M 50.87 26.88 
L 709.2 26.88 
" style="fill: none; stroke: #000000; stroke-width: 0.8; stroke-linejoin: miter; stroke-linecap: square"/>
   </g>
   <g id="text_19">
    <!-- Task count vs workload scale -->
    <g transform="translate(293.048125 20.88) scale(0.12 -0.12)">
     <defs>
      <path id="DejaVuSans-54" d="M -19 4666 
L 3928 4666 
L 3928 4134 
L 2272 4134 
L 2272 0 
L 1638 0 
L 1638 4134 
L -19 4134 
L -19 4666 
z
" transform="scale(0.015625)"/>
      <path id="DejaVuSans-76" d="M 191 3500 
L 800 3500 
L 1894 563 
L 2988 3500 
L 3597 3500 
L 2284 0 
L 1503 0 
L 191 3500 
z
" transform="scale(0.015625)"/>
     </defs>
     <use xlink:href="#DejaVuSans-54"/>
     <use xlink:href="#DejaVuSans-61" transform="translate(44.583984 0)"/>
     <use xlink:href="#DejaVuSans-73" transform="translate(105.863281 0)"/>
     <use xlink:href="#DejaVuSans-6b" transform="translate(157.962891 0)"/>
     <use xlink:href="#DejaVuSans-20" transform="translate(215.873047 0)"/>
     <use xlink:href="#DejaVuSans-63" transform="translate(247.660156 0)"/>
     <use xlink:href="#DejaVuSans-6f" transform="translate(302.640625 0)"/>
     <use xlink:href="#DejaVuSans-75" transform="translate(363.822266 0)"/>
     <use xlink:href="#DejaVuSans-6e" transform="translate(427.201172 0)"/>
     <use xlink:href="#DejaVuSans-74" transform="translate(490.580078 0)"/>
     <use xlink:href="#DejaVuSans-20" transform="translate(529.789062 0)"/>
     <use xlink:href="#DejaVuSans-76" transform="translate(561.576172 0)"/>
     <use xlink:href="#DejaVuSans-73" transform="translate(620.755859 0)"/>
     <use xlink:href="#DejaVuSans-20" transform="translate(672.855469 0)"/>
     <use xlink:href="#DejaVuSans-77" transform="translate(704.642578 0)"/>
     <use xlink:href="#DejaVuSans-6f" transform="translate(786.429688 0)"/>
     <use xlink:href="#DejaVuSans-72" transform="translate(847.611328 0)"/>
     <use xlink:href="#DejaVuSans-6b" transform="translate(888.724609 0)"/>
     <use xlink:href="#DejaVuSans-6c" transform="translate(946.634766 0)"/>
     <use xlink:href="#DejaVuSans-6f" transform="translate(974.417969 0)"/>
     <use xlink:href="#DejaVuSans-61" transform="translate(1035.599609 0)"/>
     <use xlink:href="#DejaVuSans-64" transform="translate(1096.878906 0)"/>
     <use xlink:href="#DejaVuSans-20" transform="translate(1160.355469 0)"/>
     <use xlink:href="#DejaVuSans-73" transform="translate(1192.142578 0)"/>
     <use xlink:href="#DejaVuSans-63" transform="translate(1244.242188 0)"/>
     <use xlink:href="#DejaVuSans-61" transform="translate(1299.222656 0)"/>
     <use xlink:href="#DejaVuSans-6c" transform="translate(1360.501953 0)"/>
     <use xlink:href="#DejaVuSans-65" transform="translate(1388.285156 0)"/>
    </g>
   </g>
   <g id="legend_1">
    <g id="patch_7">
     <path d="M 56.47 69.175 
L 168.33 69.175 
Q 169.93 69.175 169.93 67.575 
L 169.93 32.48 
Q 169.93 30.88 168.33 30.88 
L 56.47 30.88 
Q 54.87 30.88 54.87 32.48 
L 54.87 67.575 
Q 54.87 69.175 56.47 69.175 
z
" style="fill: #ffffff; opacity: 0.8; stroke: #cccccc; stroke-linejoin: miter"/>
    </g>
    <g id="line2d_36">
     <path d="M 58.07 37.35875 
L 66.07 37.35875 
L 74.07 37.35875 
" style="fill: none; stroke: #1f77b4; stroke-width: 1.5; stroke-linecap: square"/>
     <g>
      <use xlink:href="#md83ebf9e9a" x="66.07" y="37.35875" style="fill: #1f77b4; stroke: #1f77b4"/>
     </g>
    </g>
    <g id="text_20">
     <!-- serial_ieee1838_style -->
     <g transform="translate(80.47 40.15875) scale(0.08 -0.08)">
      <defs>
       <path id="DejaVuSans-5f" d="M 3263 -1063 
L 3263 -1509 
L -63 -1509 
L -63 -1063 
L 3263 -1063 
z
" transform="scale(0.015625)"/>
       <path id="DejaVuSans-33" d="M 2597 2516 
Q 3050 2419 3304 2112 
Q 3559 1806 3559 1356 
Q 3559 666 3084 287 
Q 2609 -91 1734 -91 
Q 1441 -91 1130 -33 
Q 819 25 488 141 
L 488 750 
Q 750 597 1062 519 
Q 1375 441 1716 441 
Q 2309 441 2620 675 
Q 2931 909 2931 1356 
Q 2931 1769 2642 2001 
Q 2353 2234 1838 2234 
L 1294 2234 
L 1294 2753 
L 1863 2753 
Q 2328 2753 2575 2939 
Q 2822 3125 2822 3475 
Q 2822 3834 2567 4026 
Q 2313 4219 1838 4219 
Q 1578 4219 1281 4162 
Q 984 4106 628 3988 
L 628 4550 
Q 988 4650 1302 4700 
Q 1616 4750 1894 4750 
Q 2613 4750 3031 4423 
Q 3450 4097 3450 3541 
Q 3450 3153 3228 2886 
Q 3006 2619 2597 2516 
z
" transform="scale(0.015625)"/>
       <path id="DejaVuSans-79" d="M 2059 -325 
Q 1816 -950 1584 -1140 
Q 1353 -1331 966 -1331 
L 506 -1331 
L 506 -850 
L 844 -850 
Q 1081 -850 1212 -737 
Q 1344 -625 1503 -206 
L 1606 56 
L 191 3500 
L 800 3500 
L 1894 763 
L 2988 3500 
L 3597 3500 
L 2059 -325 
z
" transform="scale(0.015625)"/>
      </defs>
      <use xlink:href="#DejaVuSans-73"/>
      <use xlink:href="#DejaVuSans-65" transform="translate(52.099609 0)"/>
      <use xlink:href="#DejaVuSans-72" transform="translate(113.623047 0)"/>
      <use xlink:href="#DejaVuSans-69" transform="translate(154.736328 0)"/>
      <use xlink:href="#DejaVuSans-61" transform="translate(182.519531 0)"/>
      <use xlink:href="#DejaVuSans-6c" transform="translate(243.798828 0)"/>
      <use xlink:href="#DejaVuSans-5f" transform="translate(271.582031 0)"/>
      <use xlink:href="#DejaVuSans-69" transform="translate(321.582031 0)"/>
      <use xlink:href="#DejaVuSans-65" transform="translate(349.365234 0)"/>
      <use xlink:href="#DejaVuSans-65" transform="translate(410.888672 0)"/>
      <use xlink:href="#DejaVuSans-65" transform="translate(472.412109 0)"/>
      <use xlink:href="#DejaVuSans-31" transform="translate(533.935547 0)"/>
      <use xlink:href="#DejaVuSans-38" transform="translate(597.558594 0)"/>
      <use xlink:href="#DejaVuSans-33" transform="translate(661.181641 0)"/>
      <use xlink:href="#DejaVuSans-38" transform="translate(724.804688 0)"/>
      <use xlink:href="#DejaVuSans-5f" transform="translate(788.427734 0)"/>
      <use xlink:href="#DejaVuSans-73" transform="translate(838.427734 0)"/>
      <use xlink:href="#DejaVuSans-74" transform="translate(890.527344 0)"/>
      <use xlink:href="#DejaVuSans-79" transform="translate(929.736328 0)"/>
      <use xlink:href="#DejaVuSans-6c" transform="translate(988.916016 0)"/>
      <use xlink:href="#DejaVuSans-65" transform="translate(1016.699219 0)"/>
     </g>
    </g>
    <g id="line2d_37">
     <path d="M 58.07 49.32375 
L 66.07 49.32375 
L 74.07 49.32375 
" style="fill: none; stroke: #ff7f0e; stroke-width: 1.5; stroke-linecap: square"/>
     <g>
      <use xlink:href="#mf2b19cf43e" x="66.07" y="49.32375" style="fill: #ff7f0e; stroke: #ff7f0e"/>
     </g>
    </g>
    <g id="text_21">
     <!-- bandwidth_greedy -->
     <g transform="translate(80.47 52.12375) scale(0.08 -0.08)">
      <defs>
       <path id="DejaVuSans-62" d="M 3116 1747 
Q 3116 2381 2855 2742 
Q 2594 3103 2138 3103 
Q 1681 3103 1420 2742 
Q 1159 2381 1159 1747 
Q 1159 1113 1420 752 
Q 1681 391 2138 391 
Q 2594 391 2855 752 
Q 3116 1113 3116 1747 
z
M 1159 2969 
Q 1341 3281 1617 3432 
Q 1894 3584 2278 3584 
Q 2916 3584 3314 3078 
Q 3713 2572 3713 1747 
Q 3713 922 3314 415 
Q 2916 -91 2278 -91 
Q 1894 -91 1617 61 
Q 1341 213 1159 525 
L 1159 0 
L 581 0 
L 581 4863 
L 1159 4863 
L 1159 2969 
z
" transform="scale(0.015625)"/>
       <path id="DejaVuSans-68" d="M 3513 2113 
L 3513 0 
L 2938 0 
L 2938 2094 
Q 2938 2591 2744 2837 
Q 2550 3084 2163 3084 
Q 1697 3084 1428 2787 
Q 1159 2491 1159 1978 
L 1159 0 
L 581 0 
L 581 4863 
L 1159 4863 
L 1159 2956 
Q 1366 3272 1645 3428 
Q 1925 3584 2291 3584 
Q 2894 3584 3203 3211 
Q 3513 2838 3513 2113 
z
" transform="scale(0.015625)"/>
      </defs>
      <use xlink:href="#DejaVuSans-62"/>
      <use xlink:href="#DejaVuSans-61" transform="translate(63.476562 0)"/>
      <use xlink:href="#DejaVuSans-6e" transform="translate(124.755859 0)"/>
      <use xlink:href="#DejaVuSans-64" transform="translate(188.134766 0)"/>
      <use xlink:href="#DejaVuSans-77" transform="translate(251.611328 0)"/>
      <use xlink:href="#DejaVuSans-69" transform="translate(333.398438 0)"/>
      <use xlink:href="#DejaVuSans-64" transform="translate(361.181641 0)"/>
      <use xlink:href="#DejaVuSans-74" transform="translate(424.658203 0)"/>
      <use xlink:href="#DejaVuSans-68" transform="translate(463.867188 0)"/>
      <use xlink:href="#DejaVuSans-5f" transform="translate(527.246094 0)"/>
      <use xlink:href="#DejaVuSans-67" transform="translate(577.246094 0)"/>
      <use xlink:href="#DejaVuSans-72" transform="translate(640.722656 0)"/>
      <use xlink:href="#DejaVuSans-65" transform="translate(679.585938 0)"/>
      <use xlink:href="#DejaVuSans-65" transform="translate(741.109375 0)"/>
      <use xlink:href="#DejaVuSans-64" transform="translate(802.632812 0)"/>
      <use xlink:href="#DejaVuSans-79" transform="translate(866.109375 0)"/>
     </g>
    </g>
    <g id="line2d_38">
     <path d="M 58.07 61.28875 
L 66.07 61.28875 
L 74.07 61.28875 
" style="fill: none; stroke: #2ca02c; stroke-width: 1.5; stroke-linecap: square"/>
     <g>
      <use xlink:href="#m7551a8a3cb" x="66.07" y="61.28875" style="fill: #2ca02c; stroke: #2ca02c"/>
     </g>
    </g>
    <g id="text_22">
     <!-- ptv_aware -->
     <g transform="translate(80.47 64.08875) scale(0.08 -0.08)">
      <defs>
       <path id="DejaVuSans-70" d="M 1159 525 
L 1159 -1331 
L 581 -1331 
L 581 3500 
L 1159 3500 
L 1159 2969 
Q 1341 3281 1617 3432 
Q 1894 3584 2278 3584 
Q 2916 3584 3314 3078 
Q 3713 2572 3713 1747 
Q 3713 922 3314 415 
Q 2916 -91 2278 -91 
Q 1894 -91 1617 61 
Q 1341 213 1159 525 
z
M 3116 1747 
Q 3116 2381 2855 2742 
Q 2594 3103 2138 3103 
Q 1681 3103 1420 2742 
Q 1159 2381 1159 1747 
Q 1159 1113 1420 752 
Q 1681 391 2138 391 
Q 2594 391 2855 752 
Q 3116 1113 3116 1747 
z
" transform="scale(0.015625)"/>
      </defs>
      <use xlink:href="#DejaVuSans-70"/>
      <use xlink:href="#DejaVuSans-74" transform="translate(63.476562 0)"/>
      <use xlink:href="#DejaVuSans-76" transform="translate(102.685547 0)"/>
      <use xlink:href="#DejaVuSans-5f" transform="translate(161.865234 0)"/>
      <use xlink:href="#DejaVuSans-61" transform="translate(211.865234 0)"/>
      <use xlink:href="#DejaVuSans-77" transform="translate(273.144531 0)"/>
      <use xlink:href="#DejaVuSans-61" transform="translate(354.931641 0)"/>
      <use xlink:href="#DejaVuSans-72" transform="translate(416.210938 0)"/>
      <use xlink:href="#DejaVuSans-65" transform="translate(455.074219 0)"/>
     </g>
    </g>
   </g>
  </g>
 </g>
 <defs>
  <clipPath id="p96d7389369">
   <rect x="50.87" y="26.88" width="658.33" height="206.290464"/>
  </clipPath>
 </defs>
</svg>
