<?xml version="1.0" encoding="utf-8" standalone="no"?>
<!DOCTYPE svg PUBLIC "-//W3C//DTD SVG 1.1//EN"
  "http://www.w3.org/Graphics/SVG/1.1/DTD/svg11.dtd">
<svg xmlns:xlink="http://www.w3.org/1999/xlink" width="576pt" height="273.6pt" viewBox="0 0 576 273.6" xmlns="http://www.w3.org/2000/svg" version="1.1">
 <metadata>
  <rdf:RDF xmlns:dc="http://purl.org/dc/elements/1.1/" xmlns:cc="http://creativecommons.org/ns#" xmlns:rdf="http://www.w3.org/1999/02/22-rdf-syntax-ns#">
   <cc:Work>
    <dc:type rdf:resource="http://purl.org/dc/dcmitype/StillImage"/>
    <dc:date>2026-05-15T15:41:24.077592</dc:date>
    <dc:format>image/svg+xml</dc:format>
    <dc:creator>
     <cc:Agent>
      <dc:title>Matplotlib v3.10.9, https://matplotlib.org/</dc:title>
     </cc:Agent>
    </dc:creator>
   </cc:Work>
  </rdf:RDF>
 </metadata>
 <defs>
  <style type="text/css">*{stroke-linejoin: round; stroke-linecap: butt}</style>
 </defs>
 <g id="figure_1">
  <g id="patch_1">
   <path d="M 0 273.6 
L 576 273.6 
L 576 0 
L 0 0 
z
" style="fill: #ffffff"/>
  </g>
  <g id="axes_1">
   <g id="patch_2">
    <path d="M 54.02 231.64 
L 551.211818 231.64 
L 551.211818 26.88 
L 54.02 26.88 
z
" style="fill: #ffffff"/>
   </g>
   <g id="matplotlib.axis_1">
    <g id="xtick_1">
     <g id="line2d_1">
      <path d="M 76.619628 231.64 
L 76.619628 26.88 
" clip-path="url(#pcd22c9e050)" style="fill: none; stroke: #b0b0b0; stroke-opacity: 0.3; stroke-width: 0.8; stroke-linecap: square"/>
     </g>
     <g id="line2d_2">
      <defs>
       <path id="m7d502994ad" d="M 0 0 
L 0 3.5 
" style="stroke: #000000; stroke-width: 0.8"/>
      </defs>
      <g>
       <use xlink:href="#m7d502994ad" x="76.619628" y="231.64" style="stroke: #000000; stroke-width: 0.8"/>
      </g>
     </g>
     <g id="text_1">
      <!-- 0.0000 -->
      <g transform="translate(59.124316 246.238437) scale(0.1 -0.1)">
       <defs>
        <path id="DejaVuSans-30" d="M 2034 4250 
Q 1547 4250 1301 3770 
Q 1056 3291 1056 2328 
Q 1056 1369 1301 889 
Q 1547 409 2034 409 
Q 2525 409 2770 889 
Q 3016 1369 3016 2328 
Q 3016 3291 2770 3770 
Q 2525 4250 2034 4250 
z
M 2034 4750 
Q 2819 4750 3233 4129 
Q 3647 3509 3647 2328 
Q 3647 1150 3233 529 
Q 2819 -91 2034 -91 
Q 1250 -91 836 529 
Q 422 1150 422 2328 
Q 422 3509 836 4129 
Q 1250 4750 2034 4750 
z
" transform="scale(0.015625)"/>
        <path id="DejaVuSans-2e" d="M 684 794 
L 1344 794 
L 1344 0 
L 684 0 
L 684 794 
z
" transform="scale(0.015625)"/>
       </defs>
       <use xlink:href="#DejaVuSans-30"/>
       <use xlink:href="#DejaVuSans-2e" transform="translate(63.623047 0)"/>
       <use xlink:href="#DejaVuSans-30" transform="translate(95.410156 0)"/>
       <use xlink:href="#DejaVuSans-30" transform="translate(159.033203 0)"/>
       <use xlink:href="#DejaVuSans-30" transform="translate(222.65625 0)"/>
       <use xlink:href="#DejaVuSans-30" transform="translate(286.279297 0)"/>
      </g>
     </g>
    </g>
    <g id="xtick_2">
     <g id="line2d_3">
      <path d="M 143.880426 231.64 
L 143.880426 26.88 
" clip-path="url(#pcd22c9e050)" style="fill: none; stroke: #b0b0b0; stroke-opacity: 0.3; stroke-width: 0.8; stroke-linecap: square"/>
     </g>
     <g id="line2d_4">
      <g>
       <use xlink:href="#m7d502994ad" x="143.880426" y="231.64" style="stroke: #000000; stroke-width: 0.8"/>
      </g>
     </g>
     <g id="text_2">
      <!-- 0.0025 -->
      <g transform="translate(126.385114 246.238437) scale(0.1 -0.1)">
       <defs>
        <path id="DejaVuSans-32" d="M 1228 531 
L 3431 531 
L 3431 0 
L 469 0 
L 469 531 
Q 828 903 1448 1529 
Q 2069 2156 2228 2338 
Q 2531 2678 2651 2914 
Q 2772 3150 2772 3378 
Q 2772 3750 2511 3984 
Q 2250 4219 1831 4219 
Q 1534 4219 1204 4116 
Q 875 4013 500 3803 
L 500 4441 
Q 881 4594 1212 4672 
Q 1544 4750 1819 4750 
Q 2544 4750 2975 4387 
Q 3406 4025 3406 3419 
Q 3406 3131 3298 2873 
Q 3191 2616 2906 2266 
Q 2828 2175 2409 1742 
Q 1991 1309 1228 531 
z
" transform="scale(0.015625)"/>
        <path id="DejaVuSans-35" d="M 691 4666 
L 3169 4666 
L 3169 4134 
L 1269 4134 
L 1269 2991 
Q 1406 3038 1543 3061 
Q 1681 3084 1819 3084 
Q 2600 3084 3056 2656 
Q 3513 2228 3513 1497 
Q 3513 744 3044 326 
Q 2575 -91 1722 -91 
Q 1428 -91 1123 -41 
Q 819 9 494 109 
L 494 744 
Q 775 591 1075 516 
Q 1375 441 1709 441 
Q 2250 441 2565 725 
Q 2881 1009 2881 1497 
Q 2881 1984 2565 2268 
Q 2250 2553 1709 2553 
Q 1456 2553 1204 2497 
Q 953 2441 691 2322 
L 691 4666 
z
" transform="scale(0.015625)"/>
       </defs>
       <use xlink:href="#DejaVuSans-30"/>
       <use xlink:href="#DejaVuSans-2e" transform="translate(63.623047 0)"/>
       <use xlink:href="#DejaVuSans-30" transform="translate(95.410156 0)"/>
       <use xlink:href="#DejaVuSans-30" transform="translate(159.033203 0)"/>
       <use xlink:href="#DejaVuSans-32" transform="translate(222.65625 0)"/>
       <use xlink:href="#DejaVuSans-35" transform="translate(286.279297 0)"/>
      </g>
     </g>
    </g>
    <g id="xtick_3">
     <g id="line2d_5">
      <path d="M 211.141224 231.64 
L 211.141224 26.88 
" clip-path="url(#pcd22c9e050)" style="fill: none; stroke: #b0b0b0; stroke-opacity: 0.3; stroke-width: 0.8; stroke-linecap: square"/>
     </g>
     <g id="line2d_6">
      <g>
       <use xlink:href="#m7d502994ad" x="211.141224" y="231.64" style="stroke: #000000; stroke-width: 0.8"/>
      </g>
     </g>
     <g id="text_3">
      <!-- 0.0050 -->
      <g transform="translate(193.645911 246.238437) scale(0.1 -0.1)">
       <use xlink:href="#DejaVuSans-30"/>
       <use xlink:href="#DejaVuSans-2e" transform="translate(63.623047 0)"/>
       <use xlink:href="#DejaVuSans-30" transform="translate(95.410156 0)"/>
       <use xlink:href="#DejaVuSans-30" transform="translate(159.033203 0)"/>
       <use xlink:href="#DejaVuSans-35" transform="translate(222.65625 0)"/>
       <use xlink:href="#DejaVuSans-30" transform="translate(286.279297 0)"/>
      </g>
     </g>
    </g>
    <g id="xtick_4">
     <g id="line2d_7">
      <path d="M 278.402022 231.64 
L 278.402022 26.88 
" clip-path="url(#pcd22c9e050)" style="fill: none; stroke: #b0b0b0; stroke-opacity: 0.3; stroke-width: 0.8; stroke-linecap: square"/>
     </g>
     <g id="line2d_8">
      <g>
       <use xlink:href="#m7d502994ad" x="278.402022" y="231.64" style="stroke: #000000; stroke-width: 0.8"/>
      </g>
     </g>
     <g id="text_4">
      <!-- 0.0075 -->
      <g transform="translate(260.906709 246.238437) scale(0.1 -0.1)">
       <defs>
        <path id="DejaVuSans-37" d="M 525 4666 
L 3525 4666 
L 3525 4397 
L 1831 0 
L 1172 0 
L 2766 4134 
L 525 4134 
L 525 4666 
z
" transform="scale(0.015625)"/>
       </defs>
       <use xlink:href="#DejaVuSans-30"/>
       <use xlink:href="#DejaVuSans-2e" transform="translate(63.623047 0)"/>
       <use xlink:href="#DejaVuSans-30" transform="translate(95.410156 0)"/>
       <use xlink:href="#DejaVuSans-30" transform="translate(159.033203 0)"/>
       <use xlink:href="#DejaVuSans-37" transform="translate(222.65625 0)"/>
       <use xlink:href="#DejaVuSans-35" transform="translate(286.279297 0)"/>
      </g>
     </g>
    </g>
    <g id="xtick_5">
     <g id="line2d_9">
      <path d="M 345.66282 231.64 
L 345.66282 26.88 
" clip-path="url(#pcd22c9e050)" style="fill: none; stroke: #b0b0b0; stroke-opacity: 0.3; stroke-width: 0.8; stroke-linecap: square"/>
     </g>
     <g id="line2d_10">
      <g>
       <use xlink:href="#m7d502994ad" x="345.66282" y="231.64" style="stroke: #000000; stroke-width: 0.8"/>
      </g>
     </g>
     <g id="text_5">
      <!-- 0.0100 -->
      <g transform="translate(328.167507 246.238437) scale(0.1 -0.1)">
       <defs>
        <path id="DejaVuSans-31" d="M 794 531 
L 1825 531 
L 1825 4091 
L 703 3866 
L 703 4441 
L 1819 4666 
L 2450 4666 
L 2450 531 
L 3481 531 
L 3481 0 
L 794 0 
L 794 531 
z
" transform="scale(0.015625)"/>
       </defs>
       <use xlink:href="#DejaVuSans-30"/>
       <use xlink:href="#DejaVuSans-2e" transform="translate(63.623047 0)"/>
       <use xlink:href="#DejaVuSans-30" transform="translate(95.410156 0)"/>
       <use xlink:href="#DejaVuSans-31" transform="translate(159.033203 0)"/>
       <use xlink:href="#DejaVuSans-30" transform="translate(222.65625 0)"/>
       <use xlink:href="#DejaVuSans-30" transform="translate(286.279297 0)"/>
      </g>
     </g>
    </g>
    <g id="xtick_6">
     <g id="line2d_11">
      <path d="M 412.923618 231.64 
L 412.923618 26.88 
" clip-path="url(#pcd22c9e050)" style="fill: none; stroke: #b0b0b0; stroke-opacity: 0.3; stroke-width: 0.8; stroke-linecap: square"/>
     </g>
     <g id="line2d_12">
      <g>
       <use xlink:href="#m7d502994ad" x="412.923618" y="231.64" style="stroke: #000000; stroke-width: 0.8"/>
      </g>
     </g>
     <g id="text_6">
      <!-- 0.0125 -->
      <g transform="translate(395.428305 246.238437) scale(0.1 -0.1)">
       <use xlink:href="#DejaVuSans-30"/>
       <use xlink:href="#DejaVuSans-2e" transform="translate(63.623047 0)"/>
       <use xlink:href="#DejaVuSans-30" transform="translate(95.410156 0)"/>
       <use xlink:href="#DejaVuSans-31" transform="translate(159.033203 0)"/>
       <use xlink:href="#DejaVuSans-32" transform="translate(222.65625 0)"/>
       <use xlink:href="#DejaVuSans-35" transform="translate(286.279297 0)"/>
      </g>
     </g>
    </g>
    <g id="xtick_7">
     <g id="line2d_13">
      <path d="M 480.184416 231.64 
L 480.184416 26.88 
" clip-path="url(#pcd22c9e050)" style="fill: none; stroke: #b0b0b0; stroke-opacity: 0.3; stroke-width: 0.8; stroke-linecap: square"/>
     </g>
     <g id="line2d_14">
      <g>
       <use xlink:href="#m7d502994ad" x="480.184416" y="231.64" style="stroke: #000000; stroke-width: 0.8"/>
      </g>
     </g>
     <g id="text_7">
      <!-- 0.0150 -->
      <g transform="translate(462.689103 246.238437) scale(0.1 -0.1)">
       <use xlink:href="#DejaVuSans-30"/>
       <use xlink:href="#DejaVuSans-2e" transform="translate(63.623047 0)"/>
       <use xlink:href="#DejaVuSans-30" transform="translate(95.410156 0)"/>
       <use xlink:href="#DejaVuSans-31" transform="translate(159.033203 0)"/>
       <use xlink:href="#DejaVuSans-35" transform="translate(222.65625 0)"/>
       <use xlink:href="#DejaVuSans-30" transform="translate(286.279297 0)"/>
      </g>
     </g>
    </g>
    <g id="xtick_8">
     <g id="line2d_15">
      <path d="M 547.445213 231.64 
L 547.445213 26.88 
" clip-path="url(#pcd22c9e050)" style="fill: none; stroke: #b0b0b0; stroke-opacity: 0.3; stroke-width: 0.8; stroke-linecap: square"/>
     </g>
     <g id="line2d_16">
      <g>
       <use xlink:href="#m7d502994ad" x="547.445213" y="231.64" style="stroke: #000000; stroke-width: 0.8"/>
      </g>
     </g>
     <g id="text_8">
      <!-- 0.0175 -->
      <g transform="translate(529.949901 246.238437) scale(0.1 -0.1)">
       <use xlink:href="#DejaVuSans-30"/>
       <use xlink:href="#DejaVuSans-2e" transform="translate(63.623047 0)"/>
       <use xlink:href="#DejaVuSans-30" transform="translate(95.410156 0)"/>
       <use xlink:href="#DejaVuSans-31" transform="translate(159.033203 0)"/>
       <use xlink:href="#DejaVuSans-37" transform="translate(222.65625 0)"/>
       <use xlink:href="#DejaVuSans-35" transform="translate(286.279297 0)"/>
      </g>
     </g>
    </g>
    <g id="text_9">
     <!-- time (s) -->
     <g transform="translate(283.224503 259.916562) scale(0.1 -0.1)">
      <defs>
       <path id="DejaVuSans-74" d="M 1172 4494 
L 1172 3500 
L 2356 3500 
L 2356 3053 
L 1172 3053 
L 1172 1153 
Q 1172 725 1289 603 
Q 1406 481 1766 481 
L 2356 481 
L 2356 0 
L 1766 0 
Q 1100 0 847 248 
Q 594 497 594 1153 
L 594 3053 
L 172 3053 
L 172 3500 
L 594 3500 
L 594 4494 
L 1172 4494 
z
" transform="scale(0.015625)"/>
       <path id="DejaVuSans-69" d="M 603 3500 
L 1178 3500 
L 1178 0 
L 603 0 
L 603 3500 
z
M 603 4863 
L 1178 4863 
L 1178 4134 
L 603 4134 
L 603 4863 
z
" transform="scale(0.015625)"/>
       <path id="DejaVuSans-6d" d="M 3328 2828 
Q 3544 3216 3844 3400 
Q 4144 3584 4550 3584 
Q 5097 3584 5394 3201 
Q 5691 2819 5691 2113 
L 5691 0 
L 5113 0 
L 5113 2094 
Q 5113 2597 4934 2840 
Q 4756 3084 4391 3084 
Q 3944 3084 3684 2787 
Q 3425 2491 3425 1978 
L 3425 0 
L 2847 0 
L 2847 2094 
Q 2847 2600 2669 2842 
Q 2491 3084 2119 3084 
Q 1678 3084 1418 2786 
Q 1159 2488 1159 1978 
L 1159 0 
L 581 0 
L 581 3500 
L 1159 3500 
L 1159 2956 
Q 1356 3278 1631 3431 
Q 1906 3584 2284 3584 
Q 2666 3584 2933 3390 
Q 3200 3197 3328 2828 
z
" transform="scale(0.015625)"/>
       <path id="DejaVuSans-65" d="M 3597 1894 
L 3597 1613 
L 953 1613 
Q 991 1019 1311 708 
Q 1631 397 2203 397 
Q 2534 397 2845 478 
Q 3156 559 3463 722 
L 3463 178 
Q 3153 47 2828 -22 
Q 2503 -91 2169 -91 
Q 1331 -91 842 396 
Q 353 884 353 1716 
Q 353 2575 817 3079 
Q 1281 3584 2069 3584 
Q 2775 3584 3186 3129 
Q 3597 2675 3597 1894 
z
M 3022 2063 
Q 3016 2534 2758 2815 
Q 2500 3097 2075 3097 
Q 1594 3097 1305 2825 
Q 1016 2553 972 2059 
L 3022 2063 
z
" transform="scale(0.015625)"/>
       <path id="DejaVuSans-20" transform="scale(0.015625)"/>
       <path id="DejaVuSans-28" d="M 1984 4856 
Q 1566 4138 1362 3434 
Q 1159 2731 1159 2009 
Q 1159 1288 1364 580 
Q 1569 -128 1984 -844 
L 1484 -844 
Q 1016 -109 783 600 
Q 550 1309 550 2009 
Q 550 2706 781 3412 
Q 1013 4119 1484 4856 
L 1984 4856 
z
" transform="scale(0.015625)"/>
       <path id="DejaVuSans-73" d="M 2834 3397 
L 2834 2853 
Q 2591 2978 2328 3040 
Q 2066 3103 1784 3103 
Q 1356 3103 1142 2972 
Q 928 2841 928 2578 
Q 928 2378 1081 2264 
Q 1234 2150 1697 2047 
L 1894 2003 
Q 2506 1872 2764 1633 
Q 3022 1394 3022 966 
Q 3022 478 2636 193 
Q 2250 -91 1575 -91 
Q 1294 -91 989 -36 
Q 684 19 347 128 
L 347 722 
Q 666 556 975 473 
Q 1284 391 1588 391 
Q 1994 391 2212 530 
Q 2431 669 2431 922 
Q 2431 1156 2273 1281 
Q 2116 1406 1581 1522 
L 1381 1569 
Q 847 1681 609 1914 
Q 372 2147 372 2553 
Q 372 3047 722 3315 
Q 1072 3584 1716 3584 
Q 2034 3584 2315 3537 
Q 2597 3491 2834 3397 
z
" transform="scale(0.015625)"/>
       <path id="DejaVuSans-29" d="M 513 4856 
L 1013 4856 
Q 1481 4119 1714 3412 
Q 1947 2706 1947 2009 
Q 1947 1309 1714 600 
Q 1481 -109 1013 -844 
L 513 -844 
Q 928 -128 1133 580 
Q 1338 1288 1338 2009 
Q 1338 2731 1133 3434 
Q 928 4138 513 4856 
z
" transform="scale(0.015625)"/>
      </defs>
      <use xlink:href="#DejaVuSans-74"/>
      <use xlink:href="#DejaVuSans-69" transform="translate(39.208984 0)"/>
      <use xlink:href="#DejaVuSans-6d" transform="translate(66.992188 0)"/>
      <use xlink:href="#DejaVuSans-65" transform="translate(164.404297 0)"/>
      <use xlink:href="#DejaVuSans-20" transform="translate(225.927734 0)"/>
      <use xlink:href="#DejaVuSans-28" transform="translate(257.714844 0)"/>
      <use xlink:href="#DejaVuSans-73" transform="translate(296.728516 0)"/>
      <use xlink:href="#DejaVuSans-29" transform="translate(348.828125 0)"/>
     </g>
    </g>
   </g>
   <g id="matplotlib.axis_2">
    <g id="ytick_1">
     <g id="line2d_17">
      <path d="M 54.02 220.457191 
L 551.211818 220.457191 
" clip-path="url(#pcd22c9e050)" style="fill: none; stroke: #b0b0b0; stroke-opacity: 0.3; stroke-width: 0.8; stroke-linecap: square"/>
     </g>
     <g id="line2d_18">
      <defs>
       <path id="m5a1c57301d" d="M 0 0 
L -3.5 0 
" style="stroke: #000000; stroke-width: 0.8"/>
      </defs>
      <g>
       <use xlink:href="#m5a1c57301d" x="54.02" y="220.457191" style="stroke: #000000; stroke-width: 0.8"/>
      </g>
     </g>
     <g id="text_10">
      <!-- 25.4 -->
      <g transform="translate(24.754375 224.25641) scale(0.1 -0.1)">
       <defs>
        <path id="DejaVuSans-34" d="M 2419 4116 
L 825 1625 
L 2419 1625 
L 2419 4116 
z
M 2253 4666 
L 3047 4666 
L 3047 1625 
L 3713 1625 
L 3713 1100 
L 3047 1100 
L 3047 0 
L 2419 0 
L 2419 1100 
L 313 1100 
L 313 1709 
L 2253 4666 
z
" transform="scale(0.015625)"/>
       </defs>
       <use xlink:href="#DejaVuSans-32"/>
       <use xlink:href="#DejaVuSans-35" transform="translate(63.623047 0)"/>
       <use xlink:href="#DejaVuSans-2e" transform="translate(127.246094 0)"/>
       <use xlink:href="#DejaVuSans-34" transform="translate(159.033203 0)"/>
      </g>
     </g>
    </g>
    <g id="ytick_2">
     <g id="line2d_19">
      <path d="M 54.02 186.043443 
L 551.211818 186.043443 
" clip-path="url(#pcd22c9e050)" style="fill: none; stroke: #b0b0b0; stroke-opacity: 0.3; stroke-width: 0.8; stroke-linecap: square"/>
     </g>
     <g id="line2d_20">
      <g>
       <use xlink:href="#m5a1c57301d" x="54.02" y="186.043443" style="stroke: #000000; stroke-width: 0.8"/>
      </g>
     </g>
     <g id="text_11">
      <!-- 25.6 -->
      <g transform="translate(24.754375 189.842662) scale(0.1 -0.1)">
       <defs>
        <path id="DejaVuSans-36" d="M 2113 2584 
Q 1688 2584 1439 2293 
Q 1191 2003 1191 1497 
Q 1191 994 1439 701 
Q 1688 409 2113 409 
Q 2538 409 2786 701 
Q 3034 994 3034 1497 
Q 3034 2003 2786 2293 
Q 2538 2584 2113 2584 
z
M 3366 4563 
L 3366 3988 
Q 3128 4100 2886 4159 
Q 2644 4219 2406 4219 
Q 1781 4219 1451 3797 
Q 1122 3375 1075 2522 
Q 1259 2794 1537 2939 
Q 1816 3084 2150 3084 
Q 2853 3084 3261 2657 
Q 3669 2231 3669 1497 
Q 3669 778 3244 343 
Q 2819 -91 2113 -91 
Q 1303 -91 875 529 
Q 447 1150 447 2328 
Q 447 3434 972 4092 
Q 1497 4750 2381 4750 
Q 2619 4750 2861 4703 
Q 3103 4656 3366 4563 
z
" transform="scale(0.015625)"/>
       </defs>
       <use xlink:href="#DejaVuSans-32"/>
       <use xlink:href="#DejaVuSans-35" transform="translate(63.623047 0)"/>
       <use xlink:href="#DejaVuSans-2e" transform="translate(127.246094 0)"/>
       <use xlink:href="#DejaVuSans-36" transform="translate(159.033203 0)"/>
      </g>
     </g>
    </g>
    <g id="ytick_3">
     <g id="line2d_21">
      <path d="M 54.02 151.629695 
L 551.211818 151.629695 
" clip-path="url(#pcd22c9e050)" style="fill: none; stroke: #b0b0b0; stroke-opacity: 0.3; stroke-width: 0.8; stroke-linecap: square"/>
     </g>
     <g id="line2d_22">
      <g>
       <use xlink:href="#m5a1c57301d" x="54.02" y="151.629695" style="stroke: #000000; stroke-width: 0.8"/>
      </g>
     </g>
     <g id="text_12">
      <!-- 25.8 -->
      <g transform="translate(24.754375 155.428914) scale(0.1 -0.1)">
       <defs>
        <path id="DejaVuSans-38" d="M 2034 2216 
Q 1584 2216 1326 1975 
Q 1069 1734 1069 1313 
Q 1069 891 1326 650 
Q 1584 409 2034 409 
Q 2484 409 2743 651 
Q 3003 894 3003 1313 
Q 3003 1734 2745 1975 
Q 2488 2216 2034 2216 
z
M 1403 2484 
Q 997 2584 770 2862 
Q 544 3141 544 3541 
Q 544 4100 942 4425 
Q 1341 4750 2034 4750 
Q 2731 4750 3128 4425 
Q 3525 4100 3525 3541 
Q 3525 3141 3298 2862 
Q 3072 2584 2669 2484 
Q 3125 2378 3379 2068 
Q 3634 1759 3634 1313 
Q 3634 634 3220 271 
Q 2806 -91 2034 -91 
Q 1263 -91 848 271 
Q 434 634 434 1313 
Q 434 1759 690 2068 
Q 947 2378 1403 2484 
z
M 1172 3481 
Q 1172 3119 1398 2916 
Q 1625 2713 2034 2713 
Q 2441 2713 2670 2916 
Q 2900 3119 2900 3481 
Q 2900 3844 2670 4047 
Q 2441 4250 2034 4250 
Q 1625 4250 1398 4047 
Q 1172 3844 1172 3481 
z
" transform="scale(0.015625)"/>
       </defs>
       <use xlink:href="#DejaVuSans-32"/>
       <use xlink:href="#DejaVuSans-35" transform="translate(63.623047 0)"/>
       <use xlink:href="#DejaVuSans-2e" transform="translate(127.246094 0)"/>
       <use xlink:href="#DejaVuSans-38" transform="translate(159.033203 0)"/>
      </g>
     </g>
    </g>
    <g id="ytick_4">
     <g id="line2d_23">
      <path d="M 54.02 117.215947 
L 551.211818 117.215947 
" clip-path="url(#pcd22c9e050)" style="fill: none; stroke: #b0b0b0; stroke-opacity: 0.3; stroke-width: 0.8; stroke-linecap: square"/>
     </g>
     <g id="line2d_24">
      <g>
       <use xlink:href="#m5a1c57301d" x="54.02" y="117.215947" style="stroke: #000000; stroke-width: 0.8"/>
      </g>
     </g>
     <g id="text_13">
      <!-- 26.0 -->
      <g transform="translate(24.754375 121.015165) scale(0.1 -0.1)">
       <use xlink:href="#DejaVuSans-32"/>
       <use xlink:href="#DejaVuSans-36" transform="translate(63.623047 0)"/>
       <use xlink:href="#DejaVuSans-2e" transform="translate(127.246094 0)"/>
       <use xlink:href="#DejaVuSans-30" transform="translate(159.033203 0)"/>
      </g>
     </g>
    </g>
    <g id="ytick_5">
     <g id="line2d_25">
      <path d="M 54.02 82.802198 
L 551.211818 82.802198 
" clip-path="url(#pcd22c9e050)" style="fill: none; stroke: #b0b0b0; stroke-opacity: 0.3; stroke-width: 0.8; stroke-linecap: square"/>
     </g>
     <g id="line2d_26">
      <g>
       <use xlink:href="#m5a1c57301d" x="54.02" y="82.802198" style="stroke: #000000; stroke-width: 0.8"/>
      </g>
     </g>
     <g id="text_14">
      <!-- 26.2 -->
      <g transform="translate(24.754375 86.601417) scale(0.1 -0.1)">
       <use xlink:href="#DejaVuSans-32"/>
       <use xlink:href="#DejaVuSans-36" transform="translate(63.623047 0)"/>
       <use xlink:href="#DejaVuSans-2e" transform="translate(127.246094 0)"/>
       <use xlink:href="#DejaVuSans-32" transform="translate(159.033203 0)"/>
      </g>
     </g>
    </g>
    <g id="ytick_6">
     <g id="line2d_27">
      <path d="M 54.02 48.38845 
L 551.211818 48.38845 
" clip-path="url(#pcd22c9e050)" style="fill: none; stroke: #b0b0b0; stroke-opacity: 0.3; stroke-width: 0.8; stroke-linecap: square"/>
     </g>
     <g id="line2d_28">
      <g>
       <use xlink:href="#m5a1c57301d" x="54.02" y="48.38845" style="stroke: #000000; stroke-width: 0.8"/>
      </g>
     </g>
     <g id="text_15">
      <!-- 26.4 -->
      <g transform="translate(24.754375 52.187669) scale(0.1 -0.1)">
       <use xlink:href="#DejaVuSans-32"/>
       <use xlink:href="#DejaVuSans-36" transform="translate(63.623047 0)"/>
       <use xlink:href="#DejaVuSans-2e" transform="translate(127.246094 0)"/>
       <use xlink:href="#DejaVuSans-34" transform="translate(159.033203 0)"/>
      </g>
     </g>
    </g>
    <g id="text_16">
     <!-- temperature (C) -->
     <g transform="translate(18.674688 169.667812) rotate(-90) scale(0.1 -0.1)">
      <defs>
       <path id="DejaVuSans-70" d="M 1159 525 
L 1159 -1331 
L 581 -1331 
L 581 3500 
L 1159 3500 
L 1159 2969 
Q 1341 3281 1617 3432 
Q 1894 3584 2278 3584 
Q 2916 3584 3314 3078 
Q 3713 2572 3713 1747 
Q 3713 922 3314 415 
Q 2916 -91 2278 -91 
Q 1894 -91 1617 61 
Q 1341 213 1159 525 
z
M 3116 1747 
Q 3116 2381 2855 2742 
Q 2594 3103 2138 3103 
Q 1681 3103 1420 2742 
Q 1159 2381 1159 1747 
Q 1159 1113 1420 752 
Q 1681 391 2138 391 
Q 2594 391 2855 752 
Q 3116 1113 3116 1747 
z
" transform="scale(0.015625)"/>
       <path id="DejaVuSans-72" d="M 2631 2963 
Q 2534 3019 2420 3045 
Q 2306 3072 2169 3072 
Q 1681 3072 1420 2755 
Q 1159 2438 1159 1844 
L 1159 0 
L 581 0 
L 581 3500 
L 1159 3500 
L 1159 2956 
Q 1341 3275 1631 3429 
Q 1922 3584 2338 3584 
Q 2397 3584 2469 3576 
Q 2541 3569 2628 3553 
L 2631 2963 
z
" transform="scale(0.015625)"/>
       <path id="DejaVuSans-61" d="M 2194 1759 
Q 1497 1759 1228 1600 
Q 959 1441 959 1056 
Q 959 750 1161 570 
Q 1363 391 1709 391 
Q 2188 391 2477 730 
Q 2766 1069 2766 1631 
L 2766 1759 
L 2194 1759 
z
M 3341 1997 
L 3341 0 
L 2766 0 
L 2766 531 
Q 2569 213 2275 61 
Q 1981 -91 1556 -91 
Q 1019 -91 701 211 
Q 384 513 384 1019 
Q 384 1609 779 1909 
Q 1175 2209 1959 2209 
L 2766 2209 
L 2766 2266 
Q 2766 2663 2505 2880 
Q 2244 3097 1772 3097 
Q 1472 3097 1187 3025 
Q 903 2953 641 2809 
L 641 3341 
Q 956 3463 1253 3523 
Q 1550 3584 1831 3584 
Q 2591 3584 2966 3190 
Q 3341 2797 3341 1997 
z
" transform="scale(0.015625)"/>
       <path id="DejaVuSans-75" d="M 544 1381 
L 544 3500 
L 1119 3500 
L 1119 1403 
Q 1119 906 1312 657 
Q 1506 409 1894 409 
Q 2359 409 2629 706 
Q 2900 1003 2900 1516 
L 2900 3500 
L 3475 3500 
L 3475 0 
L 2900 0 
L 2900 538 
Q 2691 219 2414 64 
Q 2138 -91 1772 -91 
Q 1169 -91 856 284 
Q 544 659 544 1381 
z
M 1991 3584 
L 1991 3584 
z
" transform="scale(0.015625)"/>
       <path id="DejaVuSans-43" d="M 4122 4306 
L 4122 3641 
Q 3803 3938 3442 4084 
Q 3081 4231 2675 4231 
Q 1875 4231 1450 3742 
Q 1025 3253 1025 2328 
Q 1025 1406 1450 917 
Q 1875 428 2675 428 
Q 3081 428 3442 575 
Q 3803 722 4122 1019 
L 4122 359 
Q 3791 134 3420 21 
Q 3050 -91 2638 -91 
Q 1578 -91 968 557 
Q 359 1206 359 2328 
Q 359 3453 968 4101 
Q 1578 4750 2638 4750 
Q 3056 4750 3426 4639 
Q 3797 4528 4122 4306 
z
" transform="scale(0.015625)"/>
      </defs>
      <use xlink:href="#DejaVuSans-74"/>
      <use xlink:href="#DejaVuSans-65" transform="translate(39.208984 0)"/>
      <use xlink:href="#DejaVuSans-6d" transform="translate(100.732422 0)"/>
      <use xlink:href="#DejaVuSans-70" transform="translate(198.144531 0)"/>
      <use xlink:href="#DejaVuSans-65" transform="translate(261.621094 0)"/>
      <use xlink:href="#DejaVuSans-72" transform="translate(323.144531 0)"/>
      <use xlink:href="#DejaVuSans-61" transform="translate(364.257812 0)"/>
      <use xlink:href="#DejaVuSans-74" transform="translate(425.537109 0)"/>
      <use xlink:href="#DejaVuSans-75" transform="translate(464.746094 0)"/>
      <use xlink:href="#DejaVuSans-72" transform="translate(528.125 0)"/>
      <use xlink:href="#DejaVuSans-65" transform="translate(566.988281 0)"/>
      <use xlink:href="#DejaVuSans-20" transform="translate(628.511719 0)"/>
      <use xlink:href="#DejaVuSans-28" transform="translate(660.298828 0)"/>
      <use xlink:href="#DejaVuSans-43" transform="translate(699.3125 0)"/>
      <use xlink:href="#DejaVuSans-29" transform="translate(769.136719 0)"/>
     </g>
    </g>
   </g>
   <g id="line2d_29">
    <path d="M 76.619628 194.64688 
L 82.000492 181.05345 
L 87.381356 167.731888 
L 92.76222 155.365032 
L 98.143083 143.245513 
L 103.523947 131.368385 
L 108.904811 119.728799 
L 108.904811 119.728799 
L 114.285675 108.322005 
L 119.666539 97.143347 
L 125.047403 86.188262 
L 130.428266 79.237791 
L 135.80913 72.42633 
L 141.189994 65.751098 
L 146.570858 59.20937 
L 151.951722 52.798477 
L 157.332586 46.859939 
L 157.332586 46.859939 
L 162.713449 46.546372 
L 168.094313 46.239076 
L 173.475177 45.937926 
L 178.856041 45.642799 
L 184.236905 45.353574 
L 189.617769 45.070134 
L 194.998632 44.792363 
L 200.379496 44.520148 
L 205.76036 44.253376 
L 211.141224 43.99194 
L 216.522088 43.735733 
L 221.902952 43.48465 
L 227.283815 42.206176 
L 232.664679 40.953271 
L 238.045543 39.725425 
L 243.426407 38.522136 
L 248.807271 37.342912 
L 254.188135 36.187273 
L 254.188135 36.187273 
L 259.568998 41.249221 
L 264.949862 46.20993 
L 270.330726 51.071426 
L 275.71159 55.835691 
L 281.092454 60.504671 
L 286.473318 65.080271 
L 291.854181 69.564359 
L 297.235045 73.958766 
L 302.615909 78.265284 
L 307.996773 82.485672 
L 313.377637 86.621653 
L 318.758501 90.674914 
L 324.139364 94.647109 
L 329.520228 98.539861 
L 334.901092 102.354757 
L 340.281956 106.093356 
L 345.66282 109.757182 
L 351.043684 113.347732 
L 356.424547 116.866472 
L 361.805411 120.314836 
L 367.186275 123.694233 
L 372.567139 127.006042 
L 377.948003 130.251615 
L 377.948003 130.251615 
L 383.328867 133.432276 
L 388.70973 136.549325 
L 394.090594 139.604032 
L 399.471458 142.597645 
L 404.852322 145.531386 
L 410.233186 148.406452 
L 415.61405 151.224017 
L 420.994913 153.98523 
L 426.375777 156.691219 
L 431.756641 159.343089 
L 437.137505 161.941921 
L 442.518369 164.488776 
L 447.899233 166.984694 
L 447.899233 166.984694 
L 453.280096 169.430694 
L 458.66096 171.827774 
L 464.041824 174.176912 
L 469.422688 176.479068 
L 474.803552 178.73518 
L 480.184416 180.94617 
L 485.565279 183.112941 
L 490.946143 185.236376 
L 496.327007 187.317342 
L 501.707871 189.356689 
L 507.088735 191.355249 
L 512.469599 193.313838 
L 517.850462 195.233255 
L 523.231326 197.114283 
L 528.61219 198.957691 
" clip-path="url(#pcd22c9e050)" style="fill: none; stroke: #1f77b4; stroke-width: 1.5; stroke-linecap: square"/>
   </g>
   <g id="line2d_30">
    <path d="M 76.619628 194.64688 
L 82.000492 191.205505 
L 87.381356 187.832958 
L 92.76222 183.839587 
L 98.143083 179.926083 
L 103.523947 176.779124 
L 108.904811 173.695104 
L 108.904811 173.695104 
L 114.285675 170.672765 
L 119.666539 167.710872 
L 125.047403 164.808218 
L 130.428266 158.178104 
L 135.80913 151.680592 
L 141.189994 145.313031 
L 146.570858 139.072821 
L 151.951722 132.957415 
L 157.332586 126.964317 
L 157.332586 126.964317 
L 162.713449 126.425212 
L 168.094313 125.896889 
L 173.475177 125.379133 
L 178.856041 123.323113 
L 184.236905 121.308214 
L 189.617769 119.333612 
L 194.998632 117.398503 
L 200.379496 115.502095 
L 205.76036 113.643616 
L 211.141224 111.822307 
L 216.522088 110.037423 
L 221.902952 108.288238 
L 227.283815 106.574036 
L 232.664679 104.894118 
L 238.045543 103.247798 
L 243.426407 101.634405 
L 248.807271 100.05328 
L 254.188135 98.847914 
L 254.188135 98.847914 
L 259.568998 97.666656 
L 264.949862 96.509023 
L 270.330726 95.374543 
L 275.71159 94.262753 
L 281.092454 93.173198 
L 286.473318 92.105434 
L 291.854181 91.059026 
L 297.235045 90.033545 
L 302.615909 89.028575 
L 307.996773 88.043704 
L 313.377637 87.07853 
L 318.758501 86.132659 
L 324.139364 84.173294 
L 329.520228 82.253116 
L 334.901092 80.371341 
L 340.281956 78.527202 
L 345.66282 76.719946 
L 351.043684 74.948835 
L 356.424547 79.235552 
L 361.805411 83.436535 
L 367.186275 87.553498 
L 372.567139 91.588122 
L 377.948003 95.542053 
L 377.948003 95.542053 
L 383.328867 99.416906 
L 388.70973 103.214261 
L 394.090594 106.93567 
L 399.471458 110.58265 
L 404.852322 114.156691 
L 410.233186 117.659251 
L 415.61405 121.09176 
L 420.994913 124.455618 
L 426.375777 127.7522 
L 431.756641 130.982849 
L 437.137505 134.148886 
L 442.518369 137.251602 
L 447.899233 140.292264 
L 447.899233 140.292264 
L 453.280096 143.272112 
L 458.66096 146.192364 
L 464.041824 149.05421 
L 469.422688 151.85882 
L 474.803552 154.607337 
L 480.184416 157.300884 
L 485.565279 159.94056 
L 490.946143 162.527443 
L 496.327007 165.062588 
L 501.707871 167.54703 
L 507.088735 169.981783 
L 512.469599 172.367841 
L 517.850462 174.706178 
L 523.231326 176.997748 
L 528.61219 179.243487 
" clip-path="url(#pcd22c9e050)" style="fill: none; stroke: #ff7f0e; stroke-width: 1.5; stroke-linecap: square"/>
   </g>
   <g id="line2d_31">
    <path d="M 76.619628 194.64688 
L 82.000492 191.033437 
L 87.381356 187.492262 
L 92.76222 184.021911 
L 98.143083 180.620967 
L 103.523947 176.599766 
L 108.904811 172.65899 
L 108.904811 172.65899 
L 114.285675 169.485304 
L 119.666539 166.375092 
L 125.047403 163.327084 
L 130.428266 160.340037 
L 135.80913 157.41273 
L 141.189994 154.54397 
L 146.570858 151.732584 
L 151.951722 148.977427 
L 157.332586 146.277372 
L 157.332586 146.277372 
L 162.713449 149.137518 
L 168.094313 151.940462 
L 173.475177 154.687346 
L 178.856041 157.379293 
L 184.236905 160.017401 
L 189.617769 162.602747 
L 194.998632 165.136386 
L 200.379496 167.619352 
L 205.76036 170.052658 
L 211.141224 172.437299 
L 216.522088 174.774247 
L 221.902952 177.064456 
L 227.283815 179.30886 
L 232.664679 181.508377 
L 238.045543 183.663903 
L 243.426407 185.776319 
L 248.807271 187.846486 
L 254.188135 189.87525 
L 254.188135 189.87525 
L 259.568998 188.077927 
L 264.949862 186.316549 
L 270.330726 184.5904 
L 275.71159 182.898773 
L 281.092454 181.240979 
L 286.473318 179.616341 
L 291.854181 178.024196 
L 297.235045 176.463893 
L 302.615909 174.934797 
L 307.996773 171.715595 
L 313.377637 168.560777 
L 318.758501 165.469056 
L 324.139364 162.439169 
L 329.520228 159.469879 
L 334.901092 156.559976 
L 340.281956 153.70827 
L 345.66282 150.913599 
L 351.043684 148.174821 
L 356.424547 145.490819 
L 361.805411 142.860496 
L 367.186275 140.28278 
L 372.567139 137.756619 
L 377.948003 135.28098 
L 377.948003 135.28098 
L 383.328867 133.198992 
L 388.70973 131.158644 
L 394.090594 129.159103 
L 399.471458 127.199552 
L 404.852322 125.279193 
L 410.233186 123.39724 
L 415.61405 121.552927 
L 420.994913 119.7455 
L 426.375777 117.974221 
L 431.756641 116.238369 
L 437.137505 114.537233 
L 442.518369 112.87012 
L 447.899233 111.236349 
L 447.899233 111.236349 
L 453.280096 108.602841 
L 458.66096 106.022003 
L 464.041824 103.492782 
L 469.422688 101.014145 
L 474.803552 98.585082 
L 480.184416 96.204599 
L 485.565279 100.066201 
L 490.946143 103.850571 
L 496.327007 107.559253 
L 501.707871 111.193762 
L 507.088735 114.75558 
L 512.469599 118.246162 
L 517.850462 121.666933 
L 523.231326 125.019288 
L 528.61219 128.304596 
" clip-path="url(#pcd22c9e050)" style="fill: none; stroke: #2ca02c; stroke-width: 1.5; stroke-linecap: square"/>
   </g>
   <g id="line2d_32">
    <path d="M 76.619628 194.64688 
L 82.000492 191.377574 
L 87.381356 188.173654 
L 92.76222 185.033813 
L 98.143083 181.956768 
L 103.523947 178.941264 
L 108.904811 175.98607 
L 108.904811 175.98607 
L 114.285675 172.401705 
L 119.666539 168.889028 
L 125.047403 166.134879 
L 130.428266 163.435813 
L 135.80913 160.790728 
L 141.189994 158.198545 
L 146.570858 155.658206 
L 151.951722 153.168673 
L 157.332586 150.728931 
L 157.332586 150.728931 
L 162.713449 153.500046 
L 168.094313 156.215739 
L 173.475177 158.877118 
L 178.856041 161.485269 
L 184.236905 164.041258 
L 189.617769 166.546126 
L 194.998632 169.000898 
L 200.379496 171.406573 
L 205.76036 173.764136 
L 211.141224 176.074547 
L 216.522088 178.33875 
L 221.902952 180.557668 
L 227.283815 182.732209 
L 232.664679 184.863258 
L 238.045543 186.951687 
L 243.426407 188.998347 
L 248.807271 191.004074 
L 254.188135 192.969686 
L 254.188135 192.969686 
L 259.568998 194.895986 
L 264.949862 196.78376 
L 270.330726 198.633779 
L 275.71159 200.446797 
L 281.092454 202.223555 
L 286.473318 203.964777 
L 291.854181 205.671176 
L 297.235045 207.343446 
L 302.615909 208.982271 
L 307.996773 210.588319 
L 313.377637 212.162246 
L 318.758501 213.704695 
L 324.139364 215.216295 
L 329.520228 216.697663 
L 334.901092 218.149403 
L 340.281956 219.572109 
L 345.66282 220.966361 
L 351.043684 222.332727 
L 356.424547 218.337636 
L 361.805411 214.422446 
L 367.186275 210.585559 
L 372.567139 206.825411 
L 377.948003 203.140466 
L 377.948003 203.140466 
L 383.328867 199.529219 
L 388.70973 195.990197 
L 394.090594 192.521956 
L 399.471458 189.12308 
L 404.852322 185.792181 
L 410.233186 182.5279 
L 415.61405 179.328905 
L 420.994913 176.19389 
L 426.375777 173.121575 
L 431.756641 170.454843 
L 437.137505 167.841447 
L 442.518369 165.280318 
L 447.899233 162.770412 
L 447.899233 162.770412 
L 453.280096 160.310704 
L 458.66096 157.90019 
L 464.041824 155.537887 
L 469.422688 153.222829 
L 474.803552 150.954073 
L 480.184416 148.730692 
L 485.565279 146.551778 
L 490.946143 144.416443 
L 496.327007 142.323814 
L 501.707871 139.240626 
L 507.088735 136.219101 
L 512.469599 133.258007 
L 517.850462 130.356135 
L 523.231326 127.5123 
L 528.61219 124.725341 
" clip-path="url(#pcd22c9e050)" style="fill: none; stroke: #d62728; stroke-width: 1.5; stroke-linecap: square"/>
   </g>
   <g id="line2d_33">
    <path d="M 76.619628 194.64688 
L 82.000492 181.05345 
L 87.381356 167.731888 
L 92.76222 155.365032 
L 98.143083 143.245513 
L 103.523947 131.368385 
L 108.904811 119.728799 
L 108.904811 119.728799 
L 114.285675 108.322005 
L 119.666539 97.143347 
L 125.047403 86.188262 
L 130.428266 79.237791 
L 135.80913 72.42633 
L 141.189994 65.751098 
L 146.570858 59.20937 
L 151.951722 52.798477 
L 157.332586 46.859939 
L 157.332586 46.859939 
L 162.713449 46.546372 
L 168.094313 46.239076 
L 173.475177 45.937926 
L 178.856041 45.642799 
L 184.236905 45.353574 
L 189.617769 45.070134 
L 194.998632 44.792363 
L 200.379496 44.520148 
L 205.76036 44.253376 
L 211.141224 43.99194 
L 216.522088 43.735733 
L 221.902952 43.48465 
L 227.283815 42.206176 
L 232.664679 40.953271 
L 238.045543 39.725425 
L 243.426407 38.522136 
L 248.807271 37.342912 
L 254.188135 36.187273 
L 254.188135 36.187273 
L 259.568998 41.249221 
L 264.949862 46.20993 
L 270.330726 51.071426 
L 275.71159 55.835691 
L 281.092454 60.504671 
L 286.473318 65.080271 
L 291.854181 69.564359 
L 297.235045 73.958766 
L 302.615909 78.265284 
L 307.996773 82.485672 
L 313.377637 86.621653 
L 318.758501 86.132659 
L 324.139364 84.173294 
L 329.520228 82.253116 
L 334.901092 80.371341 
L 340.281956 78.527202 
L 345.66282 76.719946 
L 351.043684 74.948835 
L 356.424547 79.235552 
L 361.805411 83.436535 
L 367.186275 87.553498 
L 372.567139 91.588122 
L 377.948003 95.542053 
L 377.948003 95.542053 
L 383.328867 99.416906 
L 388.70973 103.214261 
L 394.090594 106.93567 
L 399.471458 110.58265 
L 404.852322 114.156691 
L 410.233186 117.659251 
L 415.61405 121.09176 
L 420.994913 119.7455 
L 426.375777 117.974221 
L 431.756641 116.238369 
L 437.137505 114.537233 
L 442.518369 112.87012 
L 447.899233 111.236349 
L 447.899233 111.236349 
L 453.280096 108.602841 
L 458.66096 106.022003 
L 464.041824 103.492782 
L 469.422688 101.014145 
L 474.803552 98.585082 
L 480.184416 96.204599 
L 485.565279 100.066201 
L 490.946143 103.850571 
L 496.327007 107.559253 
L 501.707871 111.193762 
L 507.088735 114.75558 
L 512.469599 118.246162 
L 517.850462 121.666933 
L 523.231326 125.019288 
L 528.61219 124.725341 
" clip-path="url(#pcd22c9e050)" style="fill: none; stroke: #9467bd; stroke-width: 2.2; stroke-linecap: square"/>
   </g>
   <g id="patch_3">
    <path d="M 54.02 231.64 
L 54.02 26.88 
" style="fill: none; stroke: #000000; stroke-width: 0.8; stroke-linejoin: miter; stroke-linecap: square"/>
   </g>
   <g id="patch_4">
    <path d="M 551.211818 231.64 
L 551.211818 26.88 
" style="fill: none; stroke: #000000; stroke-width: 0.8; stroke-linejoin: miter; stroke-linecap: square"/>
   </g>
   <g id="patch_5">
    <path d="M 54.02 231.64 
L 551.211818 231.64 
" style="fill: none; stroke: #000000; stroke-width: 0.8; stroke-linejoin: miter; stroke-linecap: square"/>
   </g>
   <g id="patch_6">
    <path d="M 54.02 26.88 
L 551.211818 26.88 
" style="fill: none; stroke: #000000; stroke-width: 0.8; stroke-linejoin: miter; stroke-linecap: square"/>
   </g>
   <g id="text_17">
    <!-- bandwidth_greedy temperature trace -->
    <g transform="translate(190.084972 20.88) scale(0.12 -0.12)">
     <defs>
      <path id="DejaVuSans-62" d="M 3116 1747 
Q 3116 2381 2855 2742 
Q 2594 3103 2138 3103 
Q 1681 3103 1420 2742 
Q 1159 2381 1159 1747 
Q 1159 1113 1420 752 
Q 1681 391 2138 391 
Q 2594 391 2855 752 
Q 3116 1113 3116 1747 
z
M 1159 2969 
Q 1341 3281 1617 3432 
Q 1894 3584 2278 3584 
Q 2916 3584 3314 3078 
Q 3713 2572 3713 1747 
Q 3713 922 3314 415 
Q 2916 -91 2278 -91 
Q 1894 -91 1617 61 
Q 1341 213 1159 525 
L 1159 0 
L 581 0 
L 581 4863 
L 1159 4863 
L 1159 2969 
z
" transform="scale(0.015625)"/>
      <path id="DejaVuSans-6e" d="M 3513 2113 
L 3513 0 
L 2938 0 
L 2938 2094 
Q 2938 2591 2744 2837 
Q 2550 3084 2163 3084 
Q 1697 3084 1428 2787 
Q 1159 2491 1159 1978 
L 1159 0 
L 581 0 
L 581 3500 
L 1159 3500 
L 1159 2956 
Q 1366 3272 1645 3428 
Q 1925 3584 2291 3584 
Q 2894 3584 3203 3211 
Q 3513 2838 3513 2113 
z
" transform="scale(0.015625)"/>
      <path id="DejaVuSans-64" d="M 2906 2969 
L 2906 4863 
L 3481 4863 
L 3481 0 
L 2906 0 
L 2906 525 
Q 2725 213 2448 61 
Q 2172 -91 1784 -91 
Q 1150 -91 751 415 
Q 353 922 353 1747 
Q 353 2572 751 3078 
Q 1150 3584 1784 3584 
Q 2172 3584 2448 3432 
Q 2725 3281 2906 2969 
z
M 947 1747 
Q 947 1113 1208 752 
Q 1469 391 1925 391 
Q 2381 391 2643 752 
Q 2906 1113 2906 1747 
Q 2906 2381 2643 2742 
Q 2381 3103 1925 3103 
Q 1469 3103 1208 2742 
Q 947 2381 947 1747 
z
" transform="scale(0.015625)"/>
      <path id="DejaVuSans-77" d="M 269 3500 
L 844 3500 
L 1563 769 
L 2278 3500 
L 2956 3500 
L 3675 769 
L 4391 3500 
L 4966 3500 
L 4050 0 
L 3372 0 
L 2619 2869 
L 1863 0 
L 1184 0 
L 269 3500 
z
" transform="scale(0.015625)"/>
      <path id="DejaVuSans-68" d="M 3513 2113 
L 3513 0 
L 2938 0 
L 2938 2094 
Q 2938 2591 2744 2837 
Q 2550 3084 2163 3084 
Q 1697 3084 1428 2787 
Q 1159 2491 1159 1978 
L 1159 0 
L 581 0 
L 581 4863 
L 1159 4863 
L 1159 2956 
Q 1366 3272 1645 3428 
Q 1925 3584 2291 3584 
Q 2894 3584 3203 3211 
Q 3513 2838 3513 2113 
z
" transform="scale(0.015625)"/>
      <path id="DejaVuSans-5f" d="M 3263 -1063 
L 3263 -1509 
L -63 -1509 
L -63 -1063 
L 3263 -1063 
z
" transform="scale(0.015625)"/>
      <path id="DejaVuSans-67" d="M 2906 1791 
Q 2906 2416 2648 2759 
Q 2391 3103 1925 3103 
Q 1463 3103 1205 2759 
Q 947 2416 947 1791 
Q 947 1169 1205 825 
Q 1463 481 1925 481 
Q 2391 481 2648 825 
Q 2906 1169 2906 1791 
z
M 3481 434 
Q 3481 -459 3084 -895 
Q 2688 -1331 1869 -1331 
Q 1566 -1331 1297 -1286 
Q 1028 -1241 775 -1147 
L 775 -588 
Q 1028 -725 1275 -790 
Q 1522 -856 1778 -856 
Q 2344 -856 2625 -561 
Q 2906 -266 2906 331 
L 2906 616 
Q 2728 306 2450 153 
Q 2172 0 1784 0 
Q 1141 0 747 490 
Q 353 981 353 1791 
Q 353 2603 747 3093 
Q 1141 3584 1784 3584 
Q 2172 3584 2450 3431 
Q 2728 3278 2906 2969 
L 2906 3500 
L 3481 3500 
L 3481 434 
z
" transform="scale(0.015625)"/>
      <path id="DejaVuSans-79" d="M 2059 -325 
Q 1816 -950 1584 -1140 
Q 1353 -1331 966 -1331 
L 506 -1331 
L 506 -850 
L 844 -850 
Q 1081 -850 1212 -737 
Q 1344 -625 1503 -206 
L 1606 56 
L 191 3500 
L 800 3500 
L 1894 763 
L 2988 3500 
L 3597 3500 
L 2059 -325 
z
" transform="scale(0.015625)"/>
      <path id="DejaVuSans-63" d="M 3122 3366 
L 3122 2828 
Q 2878 2963 2633 3030 
Q 2388 3097 2138 3097 
Q 1578 3097 1268 2742 
Q 959 2388 959 1747 
Q 959 1106 1268 751 
Q 1578 397 2138 397 
Q 2388 397 2633 464 
Q 2878 531 3122 666 
L 3122 134 
Q 2881 22 2623 -34 
Q 2366 -91 2075 -91 
Q 1284 -91 818 406 
Q 353 903 353 1747 
Q 353 2603 823 3093 
Q 1294 3584 2113 3584 
Q 2378 3584 2631 3529 
Q 2884 3475 3122 3366 
z
" transform="scale(0.015625)"/>
     </defs>
     <use xlink:href="#DejaVuSans-62"/>
     <use xlink:href="#DejaVuSans-61" transform="translate(63.476562 0)"/>
     <use xlink:href="#DejaVuSans-6e" transform="translate(124.755859 0)"/>
     <use xlink:href="#DejaVuSans-64" transform="translate(188.134766 0)"/>
     <use xlink:href="#DejaVuSans-77" transform="translate(251.611328 0)"/>
     <use xlink:href="#DejaVuSans-69" transform="translate(333.398438 0)"/>
     <use xlink:href="#DejaVuSans-64" transform="translate(361.181641 0)"/>
     <use xlink:href="#DejaVuSans-74" transform="translate(424.658203 0)"/>
     <use xlink:href="#DejaVuSans-68" transform="translate(463.867188 0)"/>
     <use xlink:href="#DejaVuSans-5f" transform="translate(527.246094 0)"/>
     <use xlink:href="#DejaVuSans-67" transform="translate(577.246094 0)"/>
     <use xlink:href="#DejaVuSans-72" transform="translate(640.722656 0)"/>
     <use xlink:href="#DejaVuSans-65" transform="translate(679.585938 0)"/>
     <use xlink:href="#DejaVuSans-65" transform="translate(741.109375 0)"/>
     <use xlink:href="#DejaVuSans-64" transform="translate(802.632812 0)"/>
     <use xlink:href="#DejaVuSans-79" transform="translate(866.109375 0)"/>
     <use xlink:href="#DejaVuSans-20" transform="translate(925.289062 0)"/>
     <use xlink:href="#DejaVuSans-74" transform="translate(957.076172 0)"/>
     <use xlink:href="#DejaVuSans-65" transform="translate(996.285156 0)"/>
     <use xlink:href="#DejaVuSans-6d" transform="translate(1057.808594 0)"/>
     <use xlink:href="#DejaVuSans-70" transform="translate(1155.220703 0)"/>
     <use xlink:href="#DejaVuSans-65" transform="translate(1218.697266 0)"/>
     <use xlink:href="#DejaVuSans-72" transform="translate(1280.220703 0)"/>
     <use xlink:href="#DejaVuSans-61" transform="translate(1321.333984 0)"/>
     <use xlink:href="#DejaVuSans-74" transform="translate(1382.613281 0)"/>
     <use xlink:href="#DejaVuSans-75" transform="translate(1421.822266 0)"/>
     <use xlink:href="#DejaVuSans-72" transform="translate(1485.201172 0)"/>
     <use xlink:href="#DejaVuSans-65" transform="translate(1524.064453 0)"/>
     <use xlink:href="#DejaVuSans-20" transform="translate(1585.587891 0)"/>
     <use xlink:href="#DejaVuSans-74" transform="translate(1617.375 0)"/>
     <use xlink:href="#DejaVuSans-72" transform="translate(1656.583984 0)"/>
     <use xlink:href="#DejaVuSans-61" transform="translate(1697.697266 0)"/>
     <use xlink:href="#DejaVuSans-63" transform="translate(1758.976562 0)"/>
     <use xlink:href="#DejaVuSans-65" transform="translate(1813.957031 0)"/>
    </g>
   </g>
   <g id="legend_1">
    <g id="patch_7">
     <path d="M 446.194318 93.105 
L 545.611818 93.105 
Q 547.211818 93.105 547.211818 91.505 
L 547.211818 32.48 
Q 547.211818 30.88 545.611818 30.88 
L 446.194318 30.88 
Q 444.594318 30.88 444.594318 32.48 
L 444.594318 91.505 
Q 444.594318 93.105 446.194318 93.105 
z
" style="fill: #ffffff; opacity: 0.8; stroke: #cccccc; stroke-linejoin: miter"/>
    </g>
    <g id="line2d_34">
     <path d="M 447.794318 37.35875 
L 455.794318 37.35875 
L 463.794318 37.35875 
" style="fill: none; stroke: #1f77b4; stroke-width: 1.5; stroke-linecap: square"/>
    </g>
    <g id="text_18">
     <!-- die_0 -->
     <g transform="translate(470.194318 40.15875) scale(0.08 -0.08)">
      <use xlink:href="#DejaVuSans-64"/>
      <use xlink:href="#DejaVuSans-69" transform="translate(63.476562 0)"/>
      <use xlink:href="#DejaVuSans-65" transform="translate(91.259766 0)"/>
      <use xlink:href="#DejaVuSans-5f" transform="translate(152.783203 0)"/>
      <use xlink:href="#DejaVuSans-30" transform="translate(202.783203 0)"/>
     </g>
    </g>
    <g id="line2d_35">
     <path d="M 447.794318 49.32375 
L 455.794318 49.32375 
L 463.794318 49.32375 
" style="fill: none; stroke: #ff7f0e; stroke-width: 1.5; stroke-linecap: square"/>
    </g>
    <g id="text_19">
     <!-- die_1 -->
     <g transform="translate(470.194318 52.12375) scale(0.08 -0.08)">
      <use xlink:href="#DejaVuSans-64"/>
      <use xlink:href="#DejaVuSans-69" transform="translate(63.476562 0)"/>
      <use xlink:href="#DejaVuSans-65" transform="translate(91.259766 0)"/>
      <use xlink:href="#DejaVuSans-5f" transform="translate(152.783203 0)"/>
      <use xlink:href="#DejaVuSans-31" transform="translate(202.783203 0)"/>
     </g>
    </g>
    <g id="line2d_36">
     <path d="M 447.794318 61.28875 
L 455.794318 61.28875 
L 463.794318 61.28875 
" style="fill: none; stroke: #2ca02c; stroke-width: 1.5; stroke-linecap: square"/>
    </g>
    <g id="text_20">
     <!-- die_2 -->
     <g transform="translate(470.194318 64.08875) scale(0.08 -0.08)">
      <use xlink:href="#DejaVuSans-64"/>
      <use xlink:href="#DejaVuSans-69" transform="translate(63.476562 0)"/>
      <use xlink:href="#DejaVuSans-65" transform="translate(91.259766 0)"/>
      <use xlink:href="#DejaVuSans-5f" transform="translate(152.783203 0)"/>
      <use xlink:href="#DejaVuSans-32" transform="translate(202.783203 0)"/>
     </g>
    </g>
    <g id="line2d_37">
     <path d="M 447.794318 73.25375 
L 455.794318 73.25375 
L 463.794318 73.25375 
" style="fill: none; stroke: #d62728; stroke-width: 1.5; stroke-linecap: square"/>
    </g>
    <g id="text_21">
     <!-- die_3 -->
     <g transform="translate(470.194318 76.05375) scale(0.08 -0.08)">
      <defs>
       <path id="DejaVuSans-33" d="M 2597 2516 
Q 3050 2419 3304 2112 
Q 3559 1806 3559 1356 
Q 3559 666 3084 287 
Q 2609 -91 1734 -91 
Q 1441 -91 1130 -33 
Q 819 25 488 141 
L 488 750 
Q 750 597 1062 519 
Q 1375 441 1716 441 
Q 2309 441 2620 675 
Q 2931 909 2931 1356 
Q 2931 1769 2642 2001 
Q 2353 2234 1838 2234 
L 1294 2234 
L 1294 2753 
L 1863 2753 
Q 2328 2753 2575 2939 
Q 2822 3125 2822 3475 
Q 2822 3834 2567 4026 
Q 2313 4219 1838 4219 
Q 1578 4219 1281 4162 
Q 984 4106 628 3988 
L 628 4550 
Q 988 4650 1302 4700 
Q 1616 4750 1894 4750 
Q 2613 4750 3031 4423 
Q 3450 4097 3450 3541 
Q 3450 3153 3228 2886 
Q 3006 2619 2597 2516 
z
" transform="scale(0.015625)"/>
      </defs>
      <use xlink:href="#DejaVuSans-64"/>
      <use xlink:href="#DejaVuSans-69" transform="translate(63.476562 0)"/>
      <use xlink:href="#DejaVuSans-65" transform="translate(91.259766 0)"/>
      <use xlink:href="#DejaVuSans-5f" transform="translate(152.783203 0)"/>
      <use xlink:href="#DejaVuSans-33" transform="translate(202.783203 0)"/>
     </g>
    </g>
    <g id="line2d_38">
     <path d="M 447.794318 85.21875 
L 455.794318 85.21875 
L 463.794318 85.21875 
" style="fill: none; stroke: #9467bd; stroke-width: 2.2; stroke-linecap: square"/>
    </g>
    <g id="text_22">
     <!-- peak_temperature -->
     <g transform="translate(470.194318 88.01875) scale(0.08 -0.08)">
      <defs>
       <path id="DejaVuSans-6b" d="M 581 4863 
L 1159 4863 
L 1159 1991 
L 2875 3500 
L 3609 3500 
L 1753 1863 
L 3688 0 
L 2938 0 
L 1159 1709 
L 1159 0 
L 581 0 
L 581 4863 
z
" transform="scale(0.015625)"/>
      </defs>
      <use xlink:href="#DejaVuSans-70"/>
      <use xlink:href="#DejaVuSans-65" transform="translate(63.476562 0)"/>
      <use xlink:href="#DejaVuSans-61" transform="translate(125 0)"/>
      <use xlink:href="#DejaVuSans-6b" transform="translate(186.279297 0)"/>
      <use xlink:href="#DejaVuSans-5f" transform="translate(244.189453 0)"/>
      <use xlink:href="#DejaVuSans-74" transform="translate(294.189453 0)"/>
      <use xlink:href="#DejaVuSans-65" transform="translate(333.398438 0)"/>
      <use xlink:href="#DejaVuSans-6d" transform="translate(394.921875 0)"/>
      <use xlink:href="#DejaVuSans-70" transform="translate(492.333984 0)"/>
      <use xlink:href="#DejaVuSans-65" transform="translate(555.810547 0)"/>
      <use xlink:href="#DejaVuSans-72" transform="translate(617.333984 0)"/>
      <use xlink:href="#DejaVuSans-61" transform="translate(658.447266 0)"/>
      <use xlink:href="#DejaVuSans-74" transform="translate(719.726562 0)"/>
      <use xlink:href="#DejaVuSans-75" transform="translate(758.935547 0)"/>
      <use xlink:href="#DejaVuSans-72" transform="translate(822.314453 0)"/>
      <use xlink:href="#DejaVuSans-65" transform="translate(861.177734 0)"/>
     </g>
    </g>
   </g>
  </g>
 </g>
 <defs>
  <clipPath id="pcd22c9e050">
   <rect x="54.02" y="26.88" width="497.191818" height="204.76"/>
  </clipPath>
 </defs>
</svg>
