<?xml version="1.0" encoding="utf-8" standalone="no"?>
<!DOCTYPE svg PUBLIC "-//W3C//DTD SVG 1.1//EN"
  "http://www.w3.org/Graphics/SVG/1.1/DTD/svg11.dtd">
<svg xmlns:xlink="http://www.w3.org/1999/xlink" width="576pt" height="273.6pt" viewBox="0 0 576 273.6" xmlns="http://www.w3.org/2000/svg" version="1.1">
 <metadata>
  <rdf:RDF xmlns:dc="http://purl.org/dc/elements/1.1/" xmlns:cc="http://creativecommons.org/ns#" xmlns:rdf="http://www.w3.org/1999/02/22-rdf-syntax-ns#">
   <cc:Work>
    <dc:type rdf:resource="http://purl.org/dc/dcmitype/StillImage"/>
    <dc:date>2026-05-15T15:17:10.722238</dc:date>
    <dc:format>image/svg+xml</dc:format>
    <dc:creator>
     <cc:Agent>
      <dc:title>Matplotlib v3.10.9, https://matplotlib.org/</dc:title>
     </cc:Agent>
    </dc:creator>
   </cc:Work>
  </rdf:RDF>
 </metadata>
 <defs>
  <style type="text/css">*{stroke-linejoin: round; stroke-linecap: butt}</style>
 </defs>
 <g id="figure_1">
  <g id="patch_1">
   <path d="M 0 273.6 
L 576 273.6 
L 576 0 
L 0 0 
z
" style="fill: #ffffff"/>
  </g>
  <g id="axes_1">
   <g id="patch_2">
    <path d="M 56.72 231.64 
L 543.702857 231.64 
L 543.702857 26.88 
L 56.72 26.88 
z
" style="fill: #ffffff"/>
   </g>
   <g id="patch_3">
    <path d="M 56.72 222.332727 
L 68.31483 222.332727 
L 68.31483 193.493291 
L 56.72 193.493291 
z
" clip-path="url(#p733c1e595a)" style="fill: #1f77b4"/>
   </g>
   <g id="patch_4">
    <path d="M 56.72 222.332727 
L 108.896735 222.332727 
L 108.896735 193.493291 
L 56.72 193.493291 
z
" clip-path="url(#p733c1e595a)" style="fill: #ff7f0e"/>
   </g>
   <g id="patch_5">
    <path d="M 56.72 222.332727 
L 137.88381 222.332727 
L 137.88381 193.493291 
L 56.72 193.493291 
z
" clip-path="url(#p733c1e595a)" style="fill: #2ca02c"/>
   </g>
   <g id="patch_6">
    <path d="M 56.72 222.332727 
L 143.681224 222.332727 
L 143.681224 193.493291 
L 56.72 193.493291 
z
" clip-path="url(#p733c1e595a)" style="fill: #d62728"/>
   </g>
   <g id="patch_7">
    <path d="M 56.72 169.897388 
L 143.681224 169.897388 
L 143.681224 141.057951 
L 56.72 141.057951 
z
" clip-path="url(#p733c1e595a)" style="fill: #9467bd"/>
   </g>
   <g id="patch_8">
    <path d="M 56.72 117.462049 
L 143.681224 117.462049 
L 143.681224 88.622612 
L 56.72 88.622612 
z
" clip-path="url(#p733c1e595a)" style="fill: #8c564b"/>
   </g>
   <g id="patch_9">
    <path d="M 56.72 65.026709 
L 143.681224 65.026709 
L 143.681224 36.187273 
L 56.72 36.187273 
z
" clip-path="url(#p733c1e595a)" style="fill: #e377c2"/>
   </g>
   <g id="patch_10">
    <path d="M 68.31483 169.897388 
L 79.90966 169.897388 
L 79.90966 141.057951 
L 68.31483 141.057951 
z
" clip-path="url(#p733c1e595a)" style="fill: #7f7f7f"/>
   </g>
   <g id="patch_11">
    <path d="M 79.90966 117.462049 
L 91.50449 117.462049 
L 91.50449 88.622612 
L 79.90966 88.622612 
z
" clip-path="url(#p733c1e595a)" style="fill: #bcbd22"/>
   </g>
   <g id="patch_12">
    <path d="M 91.50449 65.026709 
L 103.09932 65.026709 
L 103.09932 36.187273 
L 91.50449 36.187273 
z
" clip-path="url(#p733c1e595a)" style="fill: #17becf"/>
   </g>
   <g id="patch_13">
    <path d="M 108.896735 169.897388 
L 161.073469 169.897388 
L 161.073469 141.057951 
L 108.896735 141.057951 
z
" clip-path="url(#p733c1e595a)" style="fill: #1f77b4"/>
   </g>
   <g id="patch_14">
    <path d="M 137.88381 222.332727 
L 213.250204 222.332727 
L 213.250204 193.493291 
L 137.88381 193.493291 
z
" clip-path="url(#p733c1e595a)" style="fill: #ff7f0e"/>
   </g>
   <g id="patch_15">
    <path d="M 161.073469 169.897388 
L 242.237279 169.897388 
L 242.237279 141.057951 
L 161.073469 141.057951 
z
" clip-path="url(#p733c1e595a)" style="fill: #2ca02c"/>
   </g>
   <g id="patch_16">
    <path d="M 213.250204 222.332727 
L 248.034694 222.332727 
L 248.034694 193.493291 
L 213.250204 193.493291 
z
" clip-path="url(#p733c1e595a)" style="fill: #d62728"/>
   </g>
   <g id="patch_17">
    <path d="M 242.237279 169.897388 
L 317.603673 169.897388 
L 317.603673 141.057951 
L 242.237279 141.057951 
z
" clip-path="url(#p733c1e595a)" style="fill: #9467bd"/>
   </g>
   <g id="patch_18">
    <path d="M 248.034694 117.462049 
L 300.211429 117.462049 
L 300.211429 88.622612 
L 248.034694 88.622612 
z
" clip-path="url(#p733c1e595a)" style="fill: #8c564b"/>
   </g>
   <g id="patch_19">
    <path d="M 300.211429 117.462049 
L 381.375238 117.462049 
L 381.375238 88.622612 
L 300.211429 88.622612 
z
" clip-path="url(#p733c1e595a)" style="fill: #e377c2"/>
   </g>
   <g id="patch_20">
    <path d="M 317.603673 169.897388 
L 352.388163 169.897388 
L 352.388163 141.057951 
L 317.603673 141.057951 
z
" clip-path="url(#p733c1e595a)" style="fill: #7f7f7f"/>
   </g>
   <g id="patch_21">
    <path d="M 352.388163 65.026709 
L 433.551973 65.026709 
L 433.551973 36.187273 
L 352.388163 36.187273 
z
" clip-path="url(#p733c1e595a)" style="fill: #bcbd22"/>
   </g>
   <g id="patch_22">
    <path d="M 381.375238 117.462049 
L 456.741633 117.462049 
L 456.741633 88.622612 
L 381.375238 88.622612 
z
" clip-path="url(#p733c1e595a)" style="fill: #17becf"/>
   </g>
   <g id="patch_23">
    <path d="M 433.551973 65.026709 
L 508.918367 65.026709 
L 508.918367 36.187273 
L 433.551973 36.187273 
z
" clip-path="url(#p733c1e595a)" style="fill: #1f77b4"/>
   </g>
   <g id="patch_24">
    <path d="M 456.741633 117.462049 
L 491.526122 117.462049 
L 491.526122 88.622612 
L 456.741633 88.622612 
z
" clip-path="url(#p733c1e595a)" style="fill: #ff7f0e"/>
   </g>
   <g id="patch_25">
    <path d="M 508.918367 65.026709 
L 543.702857 65.026709 
L 543.702857 36.187273 
L 508.918367 36.187273 
z
" clip-path="url(#p733c1e595a)" style="fill: #2ca02c"/>
   </g>
   <g id="matplotlib.axis_1">
    <g id="xtick_1">
     <g id="line2d_1">
      <path d="M 56.72 231.64 
L 56.72 26.88 
" clip-path="url(#p733c1e595a)" style="fill: none; stroke: #b0b0b0; stroke-opacity: 0.3; stroke-width: 0.8; stroke-linecap: square"/>
     </g>
     <g id="line2d_2">
      <defs>
       <path id="m70d766319a" d="M 0 0 
L 0 3.5 
" style="stroke: #000000; stroke-width: 0.8"/>
      </defs>
      <g>
       <use xlink:href="#m70d766319a" x="56.72" y="231.64" style="stroke: #000000; stroke-width: 0.8"/>
      </g>
     </g>
     <g id="text_1">
      <!-- 0.000 -->
      <g transform="translate(42.405938 246.238437) scale(0.1 -0.1)">
       <defs>
        <path id="DejaVuSans-30" d="M 2034 4250 
Q 1547 4250 1301 3770 
Q 1056 3291 1056 2328 
Q 1056 1369 1301 889 
Q 1547 409 2034 409 
Q 2525 409 2770 889 
Q 3016 1369 3016 2328 
Q 3016 3291 2770 3770 
Q 2525 4250 2034 4250 
z
M 2034 4750 
Q 2819 4750 3233 4129 
Q 3647 3509 3647 2328 
Q 3647 1150 3233 529 
Q 2819 -91 2034 -91 
Q 1250 -91 836 529 
Q 422 1150 422 2328 
Q 422 3509 836 4129 
Q 1250 4750 2034 4750 
z
" transform="scale(0.015625)"/>
        <path id="DejaVuSans-2e" d="M 684 794 
L 1344 794 
L 1344 0 
L 684 0 
L 684 794 
z
" transform="scale(0.015625)"/>
       </defs>
       <use xlink:href="#DejaVuSans-30"/>
       <use xlink:href="#DejaVuSans-2e" transform="translate(63.623047 0)"/>
       <use xlink:href="#DejaVuSans-30" transform="translate(95.410156 0)"/>
       <use xlink:href="#DejaVuSans-30" transform="translate(159.033203 0)"/>
       <use xlink:href="#DejaVuSans-30" transform="translate(222.65625 0)"/>
      </g>
     </g>
    </g>
    <g id="xtick_2">
     <g id="line2d_3">
      <path d="M 114.69415 231.64 
L 114.69415 26.88 
" clip-path="url(#p733c1e595a)" style="fill: none; stroke: #b0b0b0; stroke-opacity: 0.3; stroke-width: 0.8; stroke-linecap: square"/>
     </g>
     <g id="line2d_4">
      <g>
       <use xlink:href="#m70d766319a" x="114.69415" y="231.64" style="stroke: #000000; stroke-width: 0.8"/>
      </g>
     </g>
     <g id="text_2">
      <!-- 0.002 -->
      <g transform="translate(100.380087 246.238437) scale(0.1 -0.1)">
       <defs>
        <path id="DejaVuSans-32" d="M 1228 531 
L 3431 531 
L 3431 0 
L 469 0 
L 469 531 
Q 828 903 1448 1529 
Q 2069 2156 2228 2338 
Q 2531 2678 2651 2914 
Q 2772 3150 2772 3378 
Q 2772 3750 2511 3984 
Q 2250 4219 1831 4219 
Q 1534 4219 1204 4116 
Q 875 4013 500 3803 
L 500 4441 
Q 881 4594 1212 4672 
Q 1544 4750 1819 4750 
Q 2544 4750 2975 4387 
Q 3406 4025 3406 3419 
Q 3406 3131 3298 2873 
Q 3191 2616 2906 2266 
Q 2828 2175 2409 1742 
Q 1991 1309 1228 531 
z
" transform="scale(0.015625)"/>
       </defs>
       <use xlink:href="#DejaVuSans-30"/>
       <use xlink:href="#DejaVuSans-2e" transform="translate(63.623047 0)"/>
       <use xlink:href="#DejaVuSans-30" transform="translate(95.410156 0)"/>
       <use xlink:href="#DejaVuSans-30" transform="translate(159.033203 0)"/>
       <use xlink:href="#DejaVuSans-32" transform="translate(222.65625 0)"/>
      </g>
     </g>
    </g>
    <g id="xtick_3">
     <g id="line2d_5">
      <path d="M 172.668299 231.64 
L 172.668299 26.88 
" clip-path="url(#p733c1e595a)" style="fill: none; stroke: #b0b0b0; stroke-opacity: 0.3; stroke-width: 0.8; stroke-linecap: square"/>
     </g>
     <g id="line2d_6">
      <g>
       <use xlink:href="#m70d766319a" x="172.668299" y="231.64" style="stroke: #000000; stroke-width: 0.8"/>
      </g>
     </g>
     <g id="text_3">
      <!-- 0.004 -->
      <g transform="translate(158.354237 246.238437) scale(0.1 -0.1)">
       <defs>
        <path id="DejaVuSans-34" d="M 2419 4116 
L 825 1625 
L 2419 1625 
L 2419 4116 
z
M 2253 4666 
L 3047 4666 
L 3047 1625 
L 3713 1625 
L 3713 1100 
L 3047 1100 
L 3047 0 
L 2419 0 
L 2419 1100 
L 313 1100 
L 313 1709 
L 2253 4666 
z
" transform="scale(0.015625)"/>
       </defs>
       <use xlink:href="#DejaVuSans-30"/>
       <use xlink:href="#DejaVuSans-2e" transform="translate(63.623047 0)"/>
       <use xlink:href="#DejaVuSans-30" transform="translate(95.410156 0)"/>
       <use xlink:href="#DejaVuSans-30" transform="translate(159.033203 0)"/>
       <use xlink:href="#DejaVuSans-34" transform="translate(222.65625 0)"/>
      </g>
     </g>
    </g>
    <g id="xtick_4">
     <g id="line2d_7">
      <path d="M 230.642449 231.64 
L 230.642449 26.88 
" clip-path="url(#p733c1e595a)" style="fill: none; stroke: #b0b0b0; stroke-opacity: 0.3; stroke-width: 0.8; stroke-linecap: square"/>
     </g>
     <g id="line2d_8">
      <g>
       <use xlink:href="#m70d766319a" x="230.642449" y="231.64" style="stroke: #000000; stroke-width: 0.8"/>
      </g>
     </g>
     <g id="text_4">
      <!-- 0.006 -->
      <g transform="translate(216.328386 246.238437) scale(0.1 -0.1)">
       <defs>
        <path id="DejaVuSans-36" d="M 2113 2584 
Q 1688 2584 1439 2293 
Q 1191 2003 1191 1497 
Q 1191 994 1439 701 
Q 1688 409 2113 409 
Q 2538 409 2786 701 
Q 3034 994 3034 1497 
Q 3034 2003 2786 2293 
Q 2538 2584 2113 2584 
z
M 3366 4563 
L 3366 3988 
Q 3128 4100 2886 4159 
Q 2644 4219 2406 4219 
Q 1781 4219 1451 3797 
Q 1122 3375 1075 2522 
Q 1259 2794 1537 2939 
Q 1816 3084 2150 3084 
Q 2853 3084 3261 2657 
Q 3669 2231 3669 1497 
Q 3669 778 3244 343 
Q 2819 -91 2113 -91 
Q 1303 -91 875 529 
Q 447 1150 447 2328 
Q 447 3434 972 4092 
Q 1497 4750 2381 4750 
Q 2619 4750 2861 4703 
Q 3103 4656 3366 4563 
z
" transform="scale(0.015625)"/>
       </defs>
       <use xlink:href="#DejaVuSans-30"/>
       <use xlink:href="#DejaVuSans-2e" transform="translate(63.623047 0)"/>
       <use xlink:href="#DejaVuSans-30" transform="translate(95.410156 0)"/>
       <use xlink:href="#DejaVuSans-30" transform="translate(159.033203 0)"/>
       <use xlink:href="#DejaVuSans-36" transform="translate(222.65625 0)"/>
      </g>
     </g>
    </g>
    <g id="xtick_5">
     <g id="line2d_9">
      <path d="M 288.616599 231.64 
L 288.616599 26.88 
" clip-path="url(#p733c1e595a)" style="fill: none; stroke: #b0b0b0; stroke-opacity: 0.3; stroke-width: 0.8; stroke-linecap: square"/>
     </g>
     <g id="line2d_10">
      <g>
       <use xlink:href="#m70d766319a" x="288.616599" y="231.64" style="stroke: #000000; stroke-width: 0.8"/>
      </g>
     </g>
     <g id="text_5">
      <!-- 0.008 -->
      <g transform="translate(274.302536 246.238437) scale(0.1 -0.1)">
       <defs>
        <path id="DejaVuSans-38" d="M 2034 2216 
Q 1584 2216 1326 1975 
Q 1069 1734 1069 1313 
Q 1069 891 1326 650 
Q 1584 409 2034 409 
Q 2484 409 2743 651 
Q 3003 894 3003 1313 
Q 3003 1734 2745 1975 
Q 2488 2216 2034 2216 
z
M 1403 2484 
Q 997 2584 770 2862 
Q 544 3141 544 3541 
Q 544 4100 942 4425 
Q 1341 4750 2034 4750 
Q 2731 4750 3128 4425 
Q 3525 4100 3525 3541 
Q 3525 3141 3298 2862 
Q 3072 2584 2669 2484 
Q 3125 2378 3379 2068 
Q 3634 1759 3634 1313 
Q 3634 634 3220 271 
Q 2806 -91 2034 -91 
Q 1263 -91 848 271 
Q 434 634 434 1313 
Q 434 1759 690 2068 
Q 947 2378 1403 2484 
z
M 1172 3481 
Q 1172 3119 1398 2916 
Q 1625 2713 2034 2713 
Q 2441 2713 2670 2916 
Q 2900 3119 2900 3481 
Q 2900 3844 2670 4047 
Q 2441 4250 2034 4250 
Q 1625 4250 1398 4047 
Q 1172 3844 1172 3481 
z
" transform="scale(0.015625)"/>
       </defs>
       <use xlink:href="#DejaVuSans-30"/>
       <use xlink:href="#DejaVuSans-2e" transform="translate(63.623047 0)"/>
       <use xlink:href="#DejaVuSans-30" transform="translate(95.410156 0)"/>
       <use xlink:href="#DejaVuSans-30" transform="translate(159.033203 0)"/>
       <use xlink:href="#DejaVuSans-38" transform="translate(222.65625 0)"/>
      </g>
     </g>
    </g>
    <g id="xtick_6">
     <g id="line2d_11">
      <path d="M 346.590748 231.64 
L 346.590748 26.88 
" clip-path="url(#p733c1e595a)" style="fill: none; stroke: #b0b0b0; stroke-opacity: 0.3; stroke-width: 0.8; stroke-linecap: square"/>
     </g>
     <g id="line2d_12">
      <g>
       <use xlink:href="#m70d766319a" x="346.590748" y="231.64" style="stroke: #000000; stroke-width: 0.8"/>
      </g>
     </g>
     <g id="text_6">
      <!-- 0.010 -->
      <g transform="translate(332.276686 246.238437) scale(0.1 -0.1)">
       <defs>
        <path id="DejaVuSans-31" d="M 794 531 
L 1825 531 
L 1825 4091 
L 703 3866 
L 703 4441 
L 1819 4666 
L 2450 4666 
L 2450 531 
L 3481 531 
L 3481 0 
L 794 0 
L 794 531 
z
" transform="scale(0.015625)"/>
       </defs>
       <use xlink:href="#DejaVuSans-30"/>
       <use xlink:href="#DejaVuSans-2e" transform="translate(63.623047 0)"/>
       <use xlink:href="#DejaVuSans-30" transform="translate(95.410156 0)"/>
       <use xlink:href="#DejaVuSans-31" transform="translate(159.033203 0)"/>
       <use xlink:href="#DejaVuSans-30" transform="translate(222.65625 0)"/>
      </g>
     </g>
    </g>
    <g id="xtick_7">
     <g id="line2d_13">
      <path d="M 404.564898 231.64 
L 404.564898 26.88 
" clip-path="url(#p733c1e595a)" style="fill: none; stroke: #b0b0b0; stroke-opacity: 0.3; stroke-width: 0.8; stroke-linecap: square"/>
     </g>
     <g id="line2d_14">
      <g>
       <use xlink:href="#m70d766319a" x="404.564898" y="231.64" style="stroke: #000000; stroke-width: 0.8"/>
      </g>
     </g>
     <g id="text_7">
      <!-- 0.012 -->
      <g transform="translate(390.250835 246.238437) scale(0.1 -0.1)">
       <use xlink:href="#DejaVuSans-30"/>
       <use xlink:href="#DejaVuSans-2e" transform="translate(63.623047 0)"/>
       <use xlink:href="#DejaVuSans-30" transform="translate(95.410156 0)"/>
       <use xlink:href="#DejaVuSans-31" transform="translate(159.033203 0)"/>
       <use xlink:href="#DejaVuSans-32" transform="translate(222.65625 0)"/>
      </g>
     </g>
    </g>
    <g id="xtick_8">
     <g id="line2d_15">
      <path d="M 462.539048 231.64 
L 462.539048 26.88 
" clip-path="url(#p733c1e595a)" style="fill: none; stroke: #b0b0b0; stroke-opacity: 0.3; stroke-width: 0.8; stroke-linecap: square"/>
     </g>
     <g id="line2d_16">
      <g>
       <use xlink:href="#m70d766319a" x="462.539048" y="231.64" style="stroke: #000000; stroke-width: 0.8"/>
      </g>
     </g>
     <g id="text_8">
      <!-- 0.014 -->
      <g transform="translate(448.224985 246.238437) scale(0.1 -0.1)">
       <use xlink:href="#DejaVuSans-30"/>
       <use xlink:href="#DejaVuSans-2e" transform="translate(63.623047 0)"/>
       <use xlink:href="#DejaVuSans-30" transform="translate(95.410156 0)"/>
       <use xlink:href="#DejaVuSans-31" transform="translate(159.033203 0)"/>
       <use xlink:href="#DejaVuSans-34" transform="translate(222.65625 0)"/>
      </g>
     </g>
    </g>
    <g id="xtick_9">
     <g id="line2d_17">
      <path d="M 520.513197 231.64 
L 520.513197 26.88 
" clip-path="url(#p733c1e595a)" style="fill: none; stroke: #b0b0b0; stroke-opacity: 0.3; stroke-width: 0.8; stroke-linecap: square"/>
     </g>
     <g id="line2d_18">
      <g>
       <use xlink:href="#m70d766319a" x="520.513197" y="231.64" style="stroke: #000000; stroke-width: 0.8"/>
      </g>
     </g>
     <g id="text_9">
      <!-- 0.016 -->
      <g transform="translate(506.199135 246.238437) scale(0.1 -0.1)">
       <use xlink:href="#DejaVuSans-30"/>
       <use xlink:href="#DejaVuSans-2e" transform="translate(63.623047 0)"/>
       <use xlink:href="#DejaVuSans-30" transform="translate(95.410156 0)"/>
       <use xlink:href="#DejaVuSans-31" transform="translate(159.033203 0)"/>
       <use xlink:href="#DejaVuSans-36" transform="translate(222.65625 0)"/>
      </g>
     </g>
    </g>
    <g id="text_10">
     <!-- time (s) -->
     <g transform="translate(280.820022 259.916562) scale(0.1 -0.1)">
      <defs>
       <path id="DejaVuSans-74" d="M 1172 4494 
L 1172 3500 
L 2356 3500 
L 2356 3053 
L 1172 3053 
L 1172 1153 
Q 1172 725 1289 603 
Q 1406 481 1766 481 
L 2356 481 
L 2356 0 
L 1766 0 
Q 1100 0 847 248 
Q 594 497 594 1153 
L 594 3053 
L 172 3053 
L 172 3500 
L 594 3500 
L 594 4494 
L 1172 4494 
z
" transform="scale(0.015625)"/>
       <path id="DejaVuSans-69" d="M 603 3500 
L 1178 3500 
L 1178 0 
L 603 0 
L 603 3500 
z
M 603 4863 
L 1178 4863 
L 1178 4134 
L 603 4134 
L 603 4863 
z
" transform="scale(0.015625)"/>
       <path id="DejaVuSans-6d" d="M 3328 2828 
Q 3544 3216 3844 3400 
Q 4144 3584 4550 3584 
Q 5097 3584 5394 3201 
Q 5691 2819 5691 2113 
L 5691 0 
L 5113 0 
L 5113 2094 
Q 5113 2597 4934 2840 
Q 4756 3084 4391 3084 
Q 3944 3084 3684 2787 
Q 3425 2491 3425 1978 
L 3425 0 
L 2847 0 
L 2847 2094 
Q 2847 2600 2669 2842 
Q 2491 3084 2119 3084 
Q 1678 3084 1418 2786 
Q 1159 2488 1159 1978 
L 1159 0 
L 581 0 
L 581 3500 
L 1159 3500 
L 1159 2956 
Q 1356 3278 1631 3431 
Q 1906 3584 2284 3584 
Q 2666 3584 2933 3390 
Q 3200 3197 3328 2828 
z
" transform="scale(0.015625)"/>
       <path id="DejaVuSans-65" d="M 3597 1894 
L 3597 1613 
L 953 1613 
Q 991 1019 1311 708 
Q 1631 397 2203 397 
Q 2534 397 2845 478 
Q 3156 559 3463 722 
L 3463 178 
Q 3153 47 2828 -22 
Q 2503 -91 2169 -91 
Q 1331 -91 842 396 
Q 353 884 353 1716 
Q 353 2575 817 3079 
Q 1281 3584 2069 3584 
Q 2775 3584 3186 3129 
Q 3597 2675 3597 1894 
z
M 3022 2063 
Q 3016 2534 2758 2815 
Q 2500 3097 2075 3097 
Q 1594 3097 1305 2825 
Q 1016 2553 972 2059 
L 3022 2063 
z
" transform="scale(0.015625)"/>
       <path id="DejaVuSans-20" transform="scale(0.015625)"/>
       <path id="DejaVuSans-28" d="M 1984 4856 
Q 1566 4138 1362 3434 
Q 1159 2731 1159 2009 
Q 1159 1288 1364 580 
Q 1569 -128 1984 -844 
L 1484 -844 
Q 1016 -109 783 600 
Q 550 1309 550 2009 
Q 550 2706 781 3412 
Q 1013 4119 1484 4856 
L 1984 4856 
z
" transform="scale(0.015625)"/>
       <path id="DejaVuSans-73" d="M 2834 3397 
L 2834 2853 
Q 2591 2978 2328 3040 
Q 2066 3103 1784 3103 
Q 1356 3103 1142 2972 
Q 928 2841 928 2578 
Q 928 2378 1081 2264 
Q 1234 2150 1697 2047 
L 1894 2003 
Q 2506 1872 2764 1633 
Q 3022 1394 3022 966 
Q 3022 478 2636 193 
Q 2250 -91 1575 -91 
Q 1294 -91 989 -36 
Q 684 19 347 128 
L 347 722 
Q 666 556 975 473 
Q 1284 391 1588 391 
Q 1994 391 2212 530 
Q 2431 669 2431 922 
Q 2431 1156 2273 1281 
Q 2116 1406 1581 1522 
L 1381 1569 
Q 847 1681 609 1914 
Q 372 2147 372 2553 
Q 372 3047 722 3315 
Q 1072 3584 1716 3584 
Q 2034 3584 2315 3537 
Q 2597 3491 2834 3397 
z
" transform="scale(0.015625)"/>
       <path id="DejaVuSans-29" d="M 513 4856 
L 1013 4856 
Q 1481 4119 1714 3412 
Q 1947 2706 1947 2009 
Q 1947 1309 1714 600 
Q 1481 -109 1013 -844 
L 513 -844 
Q 928 -128 1133 580 
Q 1338 1288 1338 2009 
Q 1338 2731 1133 3434 
Q 928 4138 513 4856 
z
" transform="scale(0.015625)"/>
      </defs>
      <use xlink:href="#DejaVuSans-74"/>
      <use xlink:href="#DejaVuSans-69" transform="translate(39.208984 0)"/>
      <use xlink:href="#DejaVuSans-6d" transform="translate(66.992188 0)"/>
      <use xlink:href="#DejaVuSans-65" transform="translate(164.404297 0)"/>
      <use xlink:href="#DejaVuSans-20" transform="translate(225.927734 0)"/>
      <use xlink:href="#DejaVuSans-28" transform="translate(257.714844 0)"/>
      <use xlink:href="#DejaVuSans-73" transform="translate(296.728516 0)"/>
      <use xlink:href="#DejaVuSans-29" transform="translate(348.828125 0)"/>
     </g>
    </g>
   </g>
   <g id="matplotlib.axis_2">
    <g id="ytick_1">
     <g id="line2d_19">
      <defs>
       <path id="mb2a9fa4958" d="M 0 0 
L -3.5 0 
" style="stroke: #000000; stroke-width: 0.8"/>
      </defs>
      <g>
       <use xlink:href="#mb2a9fa4958" x="56.72" y="207.913009" style="stroke: #000000; stroke-width: 0.8"/>
      </g>
     </g>
     <g id="text_11">
      <!-- die 0 -->
      <g transform="translate(24.899687 211.712228) scale(0.1 -0.1)">
       <defs>
        <path id="DejaVuSans-64" d="M 2906 2969 
L 2906 4863 
L 3481 4863 
L 3481 0 
L 2906 0 
L 2906 525 
Q 2725 213 2448 61 
Q 2172 -91 1784 -91 
Q 1150 -91 751 415 
Q 353 922 353 1747 
Q 353 2572 751 3078 
Q 1150 3584 1784 3584 
Q 2172 3584 2448 3432 
Q 2725 3281 2906 2969 
z
M 947 1747 
Q 947 1113 1208 752 
Q 1469 391 1925 391 
Q 2381 391 2643 752 
Q 2906 1113 2906 1747 
Q 2906 2381 2643 2742 
Q 2381 3103 1925 3103 
Q 1469 3103 1208 2742 
Q 947 2381 947 1747 
z
" transform="scale(0.015625)"/>
       </defs>
       <use xlink:href="#DejaVuSans-64"/>
       <use xlink:href="#DejaVuSans-69" transform="translate(63.476562 0)"/>
       <use xlink:href="#DejaVuSans-65" transform="translate(91.259766 0)"/>
       <use xlink:href="#DejaVuSans-20" transform="translate(152.783203 0)"/>
       <use xlink:href="#DejaVuSans-30" transform="translate(184.570312 0)"/>
      </g>
     </g>
    </g>
    <g id="ytick_2">
     <g id="line2d_20">
      <g>
       <use xlink:href="#mb2a9fa4958" x="56.72" y="155.47767" style="stroke: #000000; stroke-width: 0.8"/>
      </g>
     </g>
     <g id="text_12">
      <!-- die 1 -->
      <g transform="translate(24.899687 159.276888) scale(0.1 -0.1)">
       <use xlink:href="#DejaVuSans-64"/>
       <use xlink:href="#DejaVuSans-69" transform="translate(63.476562 0)"/>
       <use xlink:href="#DejaVuSans-65" transform="translate(91.259766 0)"/>
       <use xlink:href="#DejaVuSans-20" transform="translate(152.783203 0)"/>
       <use xlink:href="#DejaVuSans-31" transform="translate(184.570312 0)"/>
      </g>
     </g>
    </g>
    <g id="ytick_3">
     <g id="line2d_21">
      <g>
       <use xlink:href="#mb2a9fa4958" x="56.72" y="103.04233" style="stroke: #000000; stroke-width: 0.8"/>
      </g>
     </g>
     <g id="text_13">
      <!-- die 2 -->
      <g transform="translate(24.899687 106.841549) scale(0.1 -0.1)">
       <use xlink:href="#DejaVuSans-64"/>
       <use xlink:href="#DejaVuSans-69" transform="translate(63.476562 0)"/>
       <use xlink:href="#DejaVuSans-65" transform="translate(91.259766 0)"/>
       <use xlink:href="#DejaVuSans-20" transform="translate(152.783203 0)"/>
       <use xlink:href="#DejaVuSans-32" transform="translate(184.570312 0)"/>
      </g>
     </g>
    </g>
    <g id="ytick_4">
     <g id="line2d_22">
      <g>
       <use xlink:href="#mb2a9fa4958" x="56.72" y="50.606991" style="stroke: #000000; stroke-width: 0.8"/>
      </g>
     </g>
     <g id="text_14">
      <!-- die 3 -->
      <g transform="translate(24.899687 54.40621) scale(0.1 -0.1)">
       <defs>
        <path id="DejaVuSans-33" d="M 2597 2516 
Q 3050 2419 3304 2112 
Q 3559 1806 3559 1356 
Q 3559 666 3084 287 
Q 2609 -91 1734 -91 
Q 1441 -91 1130 -33 
Q 819 25 488 141 
L 488 750 
Q 750 597 1062 519 
Q 1375 441 1716 441 
Q 2309 441 2620 675 
Q 2931 909 2931 1356 
Q 2931 1769 2642 2001 
Q 2353 2234 1838 2234 
L 1294 2234 
L 1294 2753 
L 1863 2753 
Q 2328 2753 2575 2939 
Q 2822 3125 2822 3475 
Q 2822 3834 2567 4026 
Q 2313 4219 1838 4219 
Q 1578 4219 1281 4162 
Q 984 4106 628 3988 
L 628 4550 
Q 988 4650 1302 4700 
Q 1616 4750 1894 4750 
Q 2613 4750 3031 4423 
Q 3450 4097 3450 3541 
Q 3450 3153 3228 2886 
Q 3006 2619 2597 2516 
z
" transform="scale(0.015625)"/>
       </defs>
       <use xlink:href="#DejaVuSans-64"/>
       <use xlink:href="#DejaVuSans-69" transform="translate(63.476562 0)"/>
       <use xlink:href="#DejaVuSans-65" transform="translate(91.259766 0)"/>
       <use xlink:href="#DejaVuSans-20" transform="translate(152.783203 0)"/>
       <use xlink:href="#DejaVuSans-33" transform="translate(184.570312 0)"/>
      </g>
     </g>
    </g>
    <g id="text_15">
     <!-- die -->
     <g transform="translate(18.82 136.899844) rotate(-90) scale(0.1 -0.1)">
      <use xlink:href="#DejaVuSans-64"/>
      <use xlink:href="#DejaVuSans-69" transform="translate(63.476562 0)"/>
      <use xlink:href="#DejaVuSans-65" transform="translate(91.259766 0)"/>
     </g>
    </g>
   </g>
   <g id="patch_26">
    <path d="M 56.72 231.64 
L 56.72 26.88 
" style="fill: none; stroke: #000000; stroke-width: 0.8; stroke-linejoin: miter; stroke-linecap: square"/>
   </g>
   <g id="patch_27">
    <path d="M 543.702857 231.64 
L 543.702857 26.88 
" style="fill: none; stroke: #000000; stroke-width: 0.8; stroke-linejoin: miter; stroke-linecap: square"/>
   </g>
   <g id="patch_28">
    <path d="M 56.72 231.64 
L 543.702857 231.64 
" style="fill: none; stroke: #000000; stroke-width: 0.8; stroke-linejoin: miter; stroke-linecap: square"/>
   </g>
   <g id="patch_29">
    <path d="M 56.72 26.88 
L 543.702857 26.88 
" style="fill: none; stroke: #000000; stroke-width: 0.8; stroke-linejoin: miter; stroke-linecap: square"/>
   </g>
   <g id="text_16">
    <!-- instrument_access_die0 -->
    <g transform="translate(14.443665 210.009259) scale(0.08 -0.08)">
     <defs>
      <path id="DejaVuSans-6e" d="M 3513 2113 
L 3513 0 
L 2938 0 
L 2938 2094 
Q 2938 2591 2744 2837 
Q 2550 3084 2163 3084 
Q 1697 3084 1428 2787 
Q 1159 2491 1159 1978 
L 1159 0 
L 581 0 
L 581 3500 
L 1159 3500 
L 1159 2956 
Q 1366 3272 1645 3428 
Q 1925 3584 2291 3584 
Q 2894 3584 3203 3211 
Q 3513 2838 3513 2113 
z
" transform="scale(0.015625)"/>
      <path id="DejaVuSans-72" d="M 2631 2963 
Q 2534 3019 2420 3045 
Q 2306 3072 2169 3072 
Q 1681 3072 1420 2755 
Q 1159 2438 1159 1844 
L 1159 0 
L 581 0 
L 581 3500 
L 1159 3500 
L 1159 2956 
Q 1341 3275 1631 3429 
Q 1922 3584 2338 3584 
Q 2397 3584 2469 3576 
Q 2541 3569 2628 3553 
L 2631 2963 
z
" transform="scale(0.015625)"/>
      <path id="DejaVuSans-75" d="M 544 1381 
L 544 3500 
L 1119 3500 
L 1119 1403 
Q 1119 906 1312 657 
Q 1506 409 1894 409 
Q 2359 409 2629 706 
Q 2900 1003 2900 1516 
L 2900 3500 
L 3475 3500 
L 3475 0 
L 2900 0 
L 2900 538 
Q 2691 219 2414 64 
Q 2138 -91 1772 -91 
Q 1169 -91 856 284 
Q 544 659 544 1381 
z
M 1991 3584 
L 1991 3584 
z
" transform="scale(0.015625)"/>
      <path id="DejaVuSans-5f" d="M 3263 -1063 
L 3263 -1509 
L -63 -1509 
L -63 -1063 
L 3263 -1063 
z
" transform="scale(0.015625)"/>
      <path id="DejaVuSans-61" d="M 2194 1759 
Q 1497 1759 1228 1600 
Q 959 1441 959 1056 
Q 959 750 1161 570 
Q 1363 391 1709 391 
Q 2188 391 2477 730 
Q 2766 1069 2766 1631 
L 2766 1759 
L 2194 1759 
z
M 3341 1997 
L 3341 0 
L 2766 0 
L 2766 531 
Q 2569 213 2275 61 
Q 1981 -91 1556 -91 
Q 1019 -91 701 211 
Q 384 513 384 1019 
Q 384 1609 779 1909 
Q 1175 2209 1959 2209 
L 2766 2209 
L 2766 2266 
Q 2766 2663 2505 2880 
Q 2244 3097 1772 3097 
Q 1472 3097 1187 3025 
Q 903 2953 641 2809 
L 641 3341 
Q 956 3463 1253 3523 
Q 1550 3584 1831 3584 
Q 2591 3584 2966 3190 
Q 3341 2797 3341 1997 
z
" transform="scale(0.015625)"/>
      <path id="DejaVuSans-63" d="M 3122 3366 
L 3122 2828 
Q 2878 2963 2633 3030 
Q 2388 3097 2138 3097 
Q 1578 3097 1268 2742 
Q 959 2388 959 1747 
Q 959 1106 1268 751 
Q 1578 397 2138 397 
Q 2388 397 2633 464 
Q 2878 531 3122 666 
L 3122 134 
Q 2881 22 2623 -34 
Q 2366 -91 2075 -91 
Q 1284 -91 818 406 
Q 353 903 353 1747 
Q 353 2603 823 3093 
Q 1294 3584 2113 3584 
Q 2378 3584 2631 3529 
Q 2884 3475 3122 3366 
z
" transform="scale(0.015625)"/>
     </defs>
     <use xlink:href="#DejaVuSans-69"/>
     <use xlink:href="#DejaVuSans-6e" transform="translate(27.783203 0)"/>
     <use xlink:href="#DejaVuSans-73" transform="translate(91.162109 0)"/>
     <use xlink:href="#DejaVuSans-74" transform="translate(143.261719 0)"/>
     <use xlink:href="#DejaVuSans-72" transform="translate(182.470703 0)"/>
     <use xlink:href="#DejaVuSans-75" transform="translate(223.583984 0)"/>
     <use xlink:href="#DejaVuSans-6d" transform="translate(286.962891 0)"/>
     <use xlink:href="#DejaVuSans-65" transform="translate(384.375 0)"/>
     <use xlink:href="#DejaVuSans-6e" transform="translate(445.898438 0)"/>
     <use xlink:href="#DejaVuSans-74" transform="translate(509.277344 0)"/>
     <use xlink:href="#DejaVuSans-5f" transform="translate(548.486328 0)"/>
     <use xlink:href="#DejaVuSans-61" transform="translate(598.486328 0)"/>
     <use xlink:href="#DejaVuSans-63" transform="translate(659.765625 0)"/>
     <use xlink:href="#DejaVuSans-63" transform="translate(714.746094 0)"/>
     <use xlink:href="#DejaVuSans-65" transform="translate(769.726562 0)"/>
     <use xlink:href="#DejaVuSans-73" transform="translate(831.25 0)"/>
     <use xlink:href="#DejaVuSans-73" transform="translate(883.349609 0)"/>
     <use xlink:href="#DejaVuSans-5f" transform="translate(935.449219 0)"/>
     <use xlink:href="#DejaVuSans-64" transform="translate(985.449219 0)"/>
     <use xlink:href="#DejaVuSans-69" transform="translate(1048.925781 0)"/>
     <use xlink:href="#DejaVuSans-65" transform="translate(1076.708984 0)"/>
     <use xlink:href="#DejaVuSans-30" transform="translate(1138.232422 0)"/>
    </g>
   </g>
   <g id="text_17">
    <!-- dwr_extest_die0_die1 -->
    <g transform="translate(39.599617 210.009259) scale(0.08 -0.08)">
     <defs>
      <path id="DejaVuSans-77" d="M 269 3500 
L 844 3500 
L 1563 769 
L 2278 3500 
L 2956 3500 
L 3675 769 
L 4391 3500 
L 4966 3500 
L 4050 0 
L 3372 0 
L 2619 2869 
L 1863 0 
L 1184 0 
L 269 3500 
z
" transform="scale(0.015625)"/>
      <path id="DejaVuSans-78" d="M 3513 3500 
L 2247 1797 
L 3578 0 
L 2900 0 
L 1881 1375 
L 863 0 
L 184 0 
L 1544 1831 
L 300 3500 
L 978 3500 
L 1906 2253 
L 2834 3500 
L 3513 3500 
z
" transform="scale(0.015625)"/>
     </defs>
     <use xlink:href="#DejaVuSans-64"/>
     <use xlink:href="#DejaVuSans-77" transform="translate(63.476562 0)"/>
     <use xlink:href="#DejaVuSans-72" transform="translate(145.263672 0)"/>
     <use xlink:href="#DejaVuSans-5f" transform="translate(186.376953 0)"/>
     <use xlink:href="#DejaVuSans-65" transform="translate(236.376953 0)"/>
     <use xlink:href="#DejaVuSans-78" transform="translate(296.150391 0)"/>
     <use xlink:href="#DejaVuSans-74" transform="translate(355.330078 0)"/>
     <use xlink:href="#DejaVuSans-65" transform="translate(394.539062 0)"/>
     <use xlink:href="#DejaVuSans-73" transform="translate(456.0625 0)"/>
     <use xlink:href="#DejaVuSans-74" transform="translate(508.162109 0)"/>
     <use xlink:href="#DejaVuSans-5f" transform="translate(547.371094 0)"/>
     <use xlink:href="#DejaVuSans-64" transform="translate(597.371094 0)"/>
     <use xlink:href="#DejaVuSans-69" transform="translate(660.847656 0)"/>
     <use xlink:href="#DejaVuSans-65" transform="translate(688.630859 0)"/>
     <use xlink:href="#DejaVuSans-30" transform="translate(750.154297 0)"/>
     <use xlink:href="#DejaVuSans-5f" transform="translate(813.777344 0)"/>
     <use xlink:href="#DejaVuSans-64" transform="translate(863.777344 0)"/>
     <use xlink:href="#DejaVuSans-69" transform="translate(927.253906 0)"/>
     <use xlink:href="#DejaVuSans-65" transform="translate(955.037109 0)"/>
     <use xlink:href="#DejaVuSans-31" transform="translate(1016.560547 0)"/>
    </g>
   </g>
   <g id="text_18">
    <!-- scan_shift_die0_a -->
    <g transform="translate(62.288155 210.009259) scale(0.08 -0.08)">
     <defs>
      <path id="DejaVuSans-68" d="M 3513 2113 
L 3513 0 
L 2938 0 
L 2938 2094 
Q 2938 2591 2744 2837 
Q 2550 3084 2163 3084 
Q 1697 3084 1428 2787 
Q 1159 2491 1159 1978 
L 1159 0 
L 581 0 
L 581 4863 
L 1159 4863 
L 1159 2956 
Q 1366 3272 1645 3428 
Q 1925 3584 2291 3584 
Q 2894 3584 3203 3211 
Q 3513 2838 3513 2113 
z
" transform="scale(0.015625)"/>
      <path id="DejaVuSans-66" d="M 2375 4863 
L 2375 4384 
L 1825 4384 
Q 1516 4384 1395 4259 
Q 1275 4134 1275 3809 
L 1275 3500 
L 2222 3500 
L 2222 3053 
L 1275 3053 
L 1275 0 
L 697 0 
L 697 3053 
L 147 3053 
L 147 3500 
L 697 3500 
L 697 3744 
Q 697 4328 969 4595 
Q 1241 4863 1831 4863 
L 2375 4863 
z
" transform="scale(0.015625)"/>
     </defs>
     <use xlink:href="#DejaVuSans-73"/>
     <use xlink:href="#DejaVuSans-63" transform="translate(52.099609 0)"/>
     <use xlink:href="#DejaVuSans-61" transform="translate(107.080078 0)"/>
     <use xlink:href="#DejaVuSans-6e" transform="translate(168.359375 0)"/>
     <use xlink:href="#DejaVuSans-5f" transform="translate(231.738281 0)"/>
     <use xlink:href="#DejaVuSans-73" transform="translate(281.738281 0)"/>
     <use xlink:href="#DejaVuSans-68" transform="translate(333.837891 0)"/>
     <use xlink:href="#DejaVuSans-69" transform="translate(397.216797 0)"/>
     <use xlink:href="#DejaVuSans-66" transform="translate(425 0)"/>
     <use xlink:href="#DejaVuSans-74" transform="translate(458.455078 0)"/>
     <use xlink:href="#DejaVuSans-5f" transform="translate(497.664062 0)"/>
     <use xlink:href="#DejaVuSans-64" transform="translate(547.664062 0)"/>
     <use xlink:href="#DejaVuSans-69" transform="translate(611.140625 0)"/>
     <use xlink:href="#DejaVuSans-65" transform="translate(638.923828 0)"/>
     <use xlink:href="#DejaVuSans-30" transform="translate(700.447266 0)"/>
     <use xlink:href="#DejaVuSans-5f" transform="translate(764.070312 0)"/>
     <use xlink:href="#DejaVuSans-61" transform="translate(814.070312 0)"/>
    </g>
   </g>
   <g id="text_19">
    <!-- bist_die0 -->
    <g transform="translate(82.241237 210.009259) scale(0.08 -0.08)">
     <defs>
      <path id="DejaVuSans-62" d="M 3116 1747 
Q 3116 2381 2855 2742 
Q 2594 3103 2138 3103 
Q 1681 3103 1420 2742 
Q 1159 2381 1159 1747 
Q 1159 1113 1420 752 
Q 1681 391 2138 391 
Q 2594 391 2855 752 
Q 3116 1113 3116 1747 
z
M 1159 2969 
Q 1341 3281 1617 3432 
Q 1894 3584 2278 3584 
Q 2916 3584 3314 3078 
Q 3713 2572 3713 1747 
Q 3713 922 3314 415 
Q 2916 -91 2278 -91 
Q 1894 -91 1617 61 
Q 1341 213 1159 525 
L 1159 0 
L 581 0 
L 581 4863 
L 1159 4863 
L 1159 2969 
z
" transform="scale(0.015625)"/>
     </defs>
     <use xlink:href="#DejaVuSans-62"/>
     <use xlink:href="#DejaVuSans-69" transform="translate(63.476562 0)"/>
     <use xlink:href="#DejaVuSans-73" transform="translate(91.259766 0)"/>
     <use xlink:href="#DejaVuSans-74" transform="translate(143.359375 0)"/>
     <use xlink:href="#DejaVuSans-5f" transform="translate(182.568359 0)"/>
     <use xlink:href="#DejaVuSans-64" transform="translate(232.568359 0)"/>
     <use xlink:href="#DejaVuSans-69" transform="translate(296.044922 0)"/>
     <use xlink:href="#DejaVuSans-65" transform="translate(323.828125 0)"/>
     <use xlink:href="#DejaVuSans-30" transform="translate(385.351562 0)"/>
    </g>
   </g>
   <g id="text_20">
    <!-- bist_die1 -->
    <g transform="translate(82.241237 157.57392) scale(0.08 -0.08)">
     <use xlink:href="#DejaVuSans-62"/>
     <use xlink:href="#DejaVuSans-69" transform="translate(63.476562 0)"/>
     <use xlink:href="#DejaVuSans-73" transform="translate(91.259766 0)"/>
     <use xlink:href="#DejaVuSans-74" transform="translate(143.359375 0)"/>
     <use xlink:href="#DejaVuSans-5f" transform="translate(182.568359 0)"/>
     <use xlink:href="#DejaVuSans-64" transform="translate(232.568359 0)"/>
     <use xlink:href="#DejaVuSans-69" transform="translate(296.044922 0)"/>
     <use xlink:href="#DejaVuSans-65" transform="translate(323.828125 0)"/>
     <use xlink:href="#DejaVuSans-31" transform="translate(385.351562 0)"/>
    </g>
   </g>
   <g id="text_21">
    <!-- bist_die2 -->
    <g transform="translate(82.241237 105.13858) scale(0.08 -0.08)">
     <use xlink:href="#DejaVuSans-62"/>
     <use xlink:href="#DejaVuSans-69" transform="translate(63.476562 0)"/>
     <use xlink:href="#DejaVuSans-73" transform="translate(91.259766 0)"/>
     <use xlink:href="#DejaVuSans-74" transform="translate(143.359375 0)"/>
     <use xlink:href="#DejaVuSans-5f" transform="translate(182.568359 0)"/>
     <use xlink:href="#DejaVuSans-64" transform="translate(232.568359 0)"/>
     <use xlink:href="#DejaVuSans-69" transform="translate(296.044922 0)"/>
     <use xlink:href="#DejaVuSans-65" transform="translate(323.828125 0)"/>
     <use xlink:href="#DejaVuSans-32" transform="translate(385.351562 0)"/>
    </g>
   </g>
   <g id="text_22">
    <!-- bist_die3 -->
    <g transform="translate(82.241237 52.703241) scale(0.08 -0.08)">
     <use xlink:href="#DejaVuSans-62"/>
     <use xlink:href="#DejaVuSans-69" transform="translate(63.476562 0)"/>
     <use xlink:href="#DejaVuSans-73" transform="translate(91.259766 0)"/>
     <use xlink:href="#DejaVuSans-74" transform="translate(143.359375 0)"/>
     <use xlink:href="#DejaVuSans-5f" transform="translate(182.568359 0)"/>
     <use xlink:href="#DejaVuSans-64" transform="translate(232.568359 0)"/>
     <use xlink:href="#DejaVuSans-69" transform="translate(296.044922 0)"/>
     <use xlink:href="#DejaVuSans-65" transform="translate(323.828125 0)"/>
     <use xlink:href="#DejaVuSans-33" transform="translate(385.351562 0)"/>
    </g>
   </g>
   <g id="text_23">
    <!-- instrument_access_die1 -->
    <g transform="translate(26.038495 157.57392) scale(0.08 -0.08)">
     <use xlink:href="#DejaVuSans-69"/>
     <use xlink:href="#DejaVuSans-6e" transform="translate(27.783203 0)"/>
     <use xlink:href="#DejaVuSans-73" transform="translate(91.162109 0)"/>
     <use xlink:href="#DejaVuSans-74" transform="translate(143.261719 0)"/>
     <use xlink:href="#DejaVuSans-72" transform="translate(182.470703 0)"/>
     <use xlink:href="#DejaVuSans-75" transform="translate(223.583984 0)"/>
     <use xlink:href="#DejaVuSans-6d" transform="translate(286.962891 0)"/>
     <use xlink:href="#DejaVuSans-65" transform="translate(384.375 0)"/>
     <use xlink:href="#DejaVuSans-6e" transform="translate(445.898438 0)"/>
     <use xlink:href="#DejaVuSans-74" transform="translate(509.277344 0)"/>
     <use xlink:href="#DejaVuSans-5f" transform="translate(548.486328 0)"/>
     <use xlink:href="#DejaVuSans-61" transform="translate(598.486328 0)"/>
     <use xlink:href="#DejaVuSans-63" transform="translate(659.765625 0)"/>
     <use xlink:href="#DejaVuSans-63" transform="translate(714.746094 0)"/>
     <use xlink:href="#DejaVuSans-65" transform="translate(769.726562 0)"/>
     <use xlink:href="#DejaVuSans-73" transform="translate(831.25 0)"/>
     <use xlink:href="#DejaVuSans-73" transform="translate(883.349609 0)"/>
     <use xlink:href="#DejaVuSans-5f" transform="translate(935.449219 0)"/>
     <use xlink:href="#DejaVuSans-64" transform="translate(985.449219 0)"/>
     <use xlink:href="#DejaVuSans-69" transform="translate(1048.925781 0)"/>
     <use xlink:href="#DejaVuSans-65" transform="translate(1076.708984 0)"/>
     <use xlink:href="#DejaVuSans-31" transform="translate(1138.232422 0)"/>
    </g>
   </g>
   <g id="text_24">
    <!-- instrument_access_die2 -->
    <g transform="translate(37.633325 105.13858) scale(0.08 -0.08)">
     <use xlink:href="#DejaVuSans-69"/>
     <use xlink:href="#DejaVuSans-6e" transform="translate(27.783203 0)"/>
     <use xlink:href="#DejaVuSans-73" transform="translate(91.162109 0)"/>
     <use xlink:href="#DejaVuSans-74" transform="translate(143.261719 0)"/>
     <use xlink:href="#DejaVuSans-72" transform="translate(182.470703 0)"/>
     <use xlink:href="#DejaVuSans-75" transform="translate(223.583984 0)"/>
     <use xlink:href="#DejaVuSans-6d" transform="translate(286.962891 0)"/>
     <use xlink:href="#DejaVuSans-65" transform="translate(384.375 0)"/>
     <use xlink:href="#DejaVuSans-6e" transform="translate(445.898438 0)"/>
     <use xlink:href="#DejaVuSans-74" transform="translate(509.277344 0)"/>
     <use xlink:href="#DejaVuSans-5f" transform="translate(548.486328 0)"/>
     <use xlink:href="#DejaVuSans-61" transform="translate(598.486328 0)"/>
     <use xlink:href="#DejaVuSans-63" transform="translate(659.765625 0)"/>
     <use xlink:href="#DejaVuSans-63" transform="translate(714.746094 0)"/>
     <use xlink:href="#DejaVuSans-65" transform="translate(769.726562 0)"/>
     <use xlink:href="#DejaVuSans-73" transform="translate(831.25 0)"/>
     <use xlink:href="#DejaVuSans-73" transform="translate(883.349609 0)"/>
     <use xlink:href="#DejaVuSans-5f" transform="translate(935.449219 0)"/>
     <use xlink:href="#DejaVuSans-64" transform="translate(985.449219 0)"/>
     <use xlink:href="#DejaVuSans-69" transform="translate(1048.925781 0)"/>
     <use xlink:href="#DejaVuSans-65" transform="translate(1076.708984 0)"/>
     <use xlink:href="#DejaVuSans-32" transform="translate(1138.232422 0)"/>
    </g>
   </g>
   <g id="text_25">
    <!-- instrument_access_die3 -->
    <g transform="translate(49.228155 52.703241) scale(0.08 -0.08)">
     <use xlink:href="#DejaVuSans-69"/>
     <use xlink:href="#DejaVuSans-6e" transform="translate(27.783203 0)"/>
     <use xlink:href="#DejaVuSans-73" transform="translate(91.162109 0)"/>
     <use xlink:href="#DejaVuSans-74" transform="translate(143.261719 0)"/>
     <use xlink:href="#DejaVuSans-72" transform="translate(182.470703 0)"/>
     <use xlink:href="#DejaVuSans-75" transform="translate(223.583984 0)"/>
     <use xlink:href="#DejaVuSans-6d" transform="translate(286.962891 0)"/>
     <use xlink:href="#DejaVuSans-65" transform="translate(384.375 0)"/>
     <use xlink:href="#DejaVuSans-6e" transform="translate(445.898438 0)"/>
     <use xlink:href="#DejaVuSans-74" transform="translate(509.277344 0)"/>
     <use xlink:href="#DejaVuSans-5f" transform="translate(548.486328 0)"/>
     <use xlink:href="#DejaVuSans-61" transform="translate(598.486328 0)"/>
     <use xlink:href="#DejaVuSans-63" transform="translate(659.765625 0)"/>
     <use xlink:href="#DejaVuSans-63" transform="translate(714.746094 0)"/>
     <use xlink:href="#DejaVuSans-65" transform="translate(769.726562 0)"/>
     <use xlink:href="#DejaVuSans-73" transform="translate(831.25 0)"/>
     <use xlink:href="#DejaVuSans-73" transform="translate(883.349609 0)"/>
     <use xlink:href="#DejaVuSans-5f" transform="translate(935.449219 0)"/>
     <use xlink:href="#DejaVuSans-64" transform="translate(985.449219 0)"/>
     <use xlink:href="#DejaVuSans-69" transform="translate(1048.925781 0)"/>
     <use xlink:href="#DejaVuSans-65" transform="translate(1076.708984 0)"/>
     <use xlink:href="#DejaVuSans-33" transform="translate(1138.232422 0)"/>
    </g>
   </g>
   <g id="text_26">
    <!-- dwr_extest_die1_die2 -->
    <g transform="translate(91.776352 157.57392) scale(0.08 -0.08)">
     <use xlink:href="#DejaVuSans-64"/>
     <use xlink:href="#DejaVuSans-77" transform="translate(63.476562 0)"/>
     <use xlink:href="#DejaVuSans-72" transform="translate(145.263672 0)"/>
     <use xlink:href="#DejaVuSans-5f" transform="translate(186.376953 0)"/>
     <use xlink:href="#DejaVuSans-65" transform="translate(236.376953 0)"/>
     <use xlink:href="#DejaVuSans-78" transform="translate(296.150391 0)"/>
     <use xlink:href="#DejaVuSans-74" transform="translate(355.330078 0)"/>
     <use xlink:href="#DejaVuSans-65" transform="translate(394.539062 0)"/>
     <use xlink:href="#DejaVuSans-73" transform="translate(456.0625 0)"/>
     <use xlink:href="#DejaVuSans-74" transform="translate(508.162109 0)"/>
     <use xlink:href="#DejaVuSans-5f" transform="translate(547.371094 0)"/>
     <use xlink:href="#DejaVuSans-64" transform="translate(597.371094 0)"/>
     <use xlink:href="#DejaVuSans-69" transform="translate(660.847656 0)"/>
     <use xlink:href="#DejaVuSans-65" transform="translate(688.630859 0)"/>
     <use xlink:href="#DejaVuSans-31" transform="translate(750.154297 0)"/>
     <use xlink:href="#DejaVuSans-5f" transform="translate(813.777344 0)"/>
     <use xlink:href="#DejaVuSans-64" transform="translate(863.777344 0)"/>
     <use xlink:href="#DejaVuSans-69" transform="translate(927.253906 0)"/>
     <use xlink:href="#DejaVuSans-65" transform="translate(955.037109 0)"/>
     <use xlink:href="#DejaVuSans-32" transform="translate(1016.560547 0)"/>
    </g>
   </g>
   <g id="text_27">
    <!-- scan_shift_die0_b -->
    <g transform="translate(140.465132 210.009259) scale(0.08 -0.08)">
     <use xlink:href="#DejaVuSans-73"/>
     <use xlink:href="#DejaVuSans-63" transform="translate(52.099609 0)"/>
     <use xlink:href="#DejaVuSans-61" transform="translate(107.080078 0)"/>
     <use xlink:href="#DejaVuSans-6e" transform="translate(168.359375 0)"/>
     <use xlink:href="#DejaVuSans-5f" transform="translate(231.738281 0)"/>
     <use xlink:href="#DejaVuSans-73" transform="translate(281.738281 0)"/>
     <use xlink:href="#DejaVuSans-68" transform="translate(333.837891 0)"/>
     <use xlink:href="#DejaVuSans-69" transform="translate(397.216797 0)"/>
     <use xlink:href="#DejaVuSans-66" transform="translate(425 0)"/>
     <use xlink:href="#DejaVuSans-74" transform="translate(458.455078 0)"/>
     <use xlink:href="#DejaVuSans-5f" transform="translate(497.664062 0)"/>
     <use xlink:href="#DejaVuSans-64" transform="translate(547.664062 0)"/>
     <use xlink:href="#DejaVuSans-69" transform="translate(611.140625 0)"/>
     <use xlink:href="#DejaVuSans-65" transform="translate(638.923828 0)"/>
     <use xlink:href="#DejaVuSans-30" transform="translate(700.447266 0)"/>
     <use xlink:href="#DejaVuSans-5f" transform="translate(764.070312 0)"/>
     <use xlink:href="#DejaVuSans-62" transform="translate(814.070312 0)"/>
    </g>
   </g>
   <g id="text_28">
    <!-- scan_shift_die1_a -->
    <g transform="translate(166.641624 157.57392) scale(0.08 -0.08)">
     <use xlink:href="#DejaVuSans-73"/>
     <use xlink:href="#DejaVuSans-63" transform="translate(52.099609 0)"/>
     <use xlink:href="#DejaVuSans-61" transform="translate(107.080078 0)"/>
     <use xlink:href="#DejaVuSans-6e" transform="translate(168.359375 0)"/>
     <use xlink:href="#DejaVuSans-5f" transform="translate(231.738281 0)"/>
     <use xlink:href="#DejaVuSans-73" transform="translate(281.738281 0)"/>
     <use xlink:href="#DejaVuSans-68" transform="translate(333.837891 0)"/>
     <use xlink:href="#DejaVuSans-69" transform="translate(397.216797 0)"/>
     <use xlink:href="#DejaVuSans-66" transform="translate(425 0)"/>
     <use xlink:href="#DejaVuSans-74" transform="translate(458.455078 0)"/>
     <use xlink:href="#DejaVuSans-5f" transform="translate(497.664062 0)"/>
     <use xlink:href="#DejaVuSans-64" transform="translate(547.664062 0)"/>
     <use xlink:href="#DejaVuSans-69" transform="translate(611.140625 0)"/>
     <use xlink:href="#DejaVuSans-65" transform="translate(638.923828 0)"/>
     <use xlink:href="#DejaVuSans-31" transform="translate(700.447266 0)"/>
     <use xlink:href="#DejaVuSans-5f" transform="translate(764.070312 0)"/>
     <use xlink:href="#DejaVuSans-61" transform="translate(814.070312 0)"/>
    </g>
   </g>
   <g id="text_29">
    <!-- scan_capture_die0 -->
    <g transform="translate(193.407449 210.009259) scale(0.08 -0.08)">
     <defs>
      <path id="DejaVuSans-70" d="M 1159 525 
L 1159 -1331 
L 581 -1331 
L 581 3500 
L 1159 3500 
L 1159 2969 
Q 1341 3281 1617 3432 
Q 1894 3584 2278 3584 
Q 2916 3584 3314 3078 
Q 3713 2572 3713 1747 
Q 3713 922 3314 415 
Q 2916 -91 2278 -91 
Q 1894 -91 1617 61 
Q 1341 213 1159 525 
z
M 3116 1747 
Q 3116 2381 2855 2742 
Q 2594 3103 2138 3103 
Q 1681 3103 1420 2742 
Q 1159 2381 1159 1747 
Q 1159 1113 1420 752 
Q 1681 391 2138 391 
Q 2594 391 2855 752 
Q 3116 1113 3116 1747 
z
" transform="scale(0.015625)"/>
     </defs>
     <use xlink:href="#DejaVuSans-73"/>
     <use xlink:href="#DejaVuSans-63" transform="translate(52.099609 0)"/>
     <use xlink:href="#DejaVuSans-61" transform="translate(107.080078 0)"/>
     <use xlink:href="#DejaVuSans-6e" transform="translate(168.359375 0)"/>
     <use xlink:href="#DejaVuSans-5f" transform="translate(231.738281 0)"/>
     <use xlink:href="#DejaVuSans-63" transform="translate(281.738281 0)"/>
     <use xlink:href="#DejaVuSans-61" transform="translate(336.71875 0)"/>
     <use xlink:href="#DejaVuSans-70" transform="translate(397.998047 0)"/>
     <use xlink:href="#DejaVuSans-74" transform="translate(461.474609 0)"/>
     <use xlink:href="#DejaVuSans-75" transform="translate(500.683594 0)"/>
     <use xlink:href="#DejaVuSans-72" transform="translate(564.0625 0)"/>
     <use xlink:href="#DejaVuSans-65" transform="translate(602.925781 0)"/>
     <use xlink:href="#DejaVuSans-5f" transform="translate(664.449219 0)"/>
     <use xlink:href="#DejaVuSans-64" transform="translate(714.449219 0)"/>
     <use xlink:href="#DejaVuSans-69" transform="translate(777.925781 0)"/>
     <use xlink:href="#DejaVuSans-65" transform="translate(805.708984 0)"/>
     <use xlink:href="#DejaVuSans-30" transform="translate(867.232422 0)"/>
    </g>
   </g>
   <g id="text_30">
    <!-- scan_shift_die1_b -->
    <g transform="translate(244.818601 157.57392) scale(0.08 -0.08)">
     <use xlink:href="#DejaVuSans-73"/>
     <use xlink:href="#DejaVuSans-63" transform="translate(52.099609 0)"/>
     <use xlink:href="#DejaVuSans-61" transform="translate(107.080078 0)"/>
     <use xlink:href="#DejaVuSans-6e" transform="translate(168.359375 0)"/>
     <use xlink:href="#DejaVuSans-5f" transform="translate(231.738281 0)"/>
     <use xlink:href="#DejaVuSans-73" transform="translate(281.738281 0)"/>
     <use xlink:href="#DejaVuSans-68" transform="translate(333.837891 0)"/>
     <use xlink:href="#DejaVuSans-69" transform="translate(397.216797 0)"/>
     <use xlink:href="#DejaVuSans-66" transform="translate(425 0)"/>
     <use xlink:href="#DejaVuSans-74" transform="translate(458.455078 0)"/>
     <use xlink:href="#DejaVuSans-5f" transform="translate(497.664062 0)"/>
     <use xlink:href="#DejaVuSans-64" transform="translate(547.664062 0)"/>
     <use xlink:href="#DejaVuSans-69" transform="translate(611.140625 0)"/>
     <use xlink:href="#DejaVuSans-65" transform="translate(638.923828 0)"/>
     <use xlink:href="#DejaVuSans-31" transform="translate(700.447266 0)"/>
     <use xlink:href="#DejaVuSans-5f" transform="translate(764.070312 0)"/>
     <use xlink:href="#DejaVuSans-62" transform="translate(814.070312 0)"/>
    </g>
   </g>
   <g id="text_31">
    <!-- dwr_extest_die2_die3 -->
    <g transform="translate(230.914311 105.13858) scale(0.08 -0.08)">
     <use xlink:href="#DejaVuSans-64"/>
     <use xlink:href="#DejaVuSans-77" transform="translate(63.476562 0)"/>
     <use xlink:href="#DejaVuSans-72" transform="translate(145.263672 0)"/>
     <use xlink:href="#DejaVuSans-5f" transform="translate(186.376953 0)"/>
     <use xlink:href="#DejaVuSans-65" transform="translate(236.376953 0)"/>
     <use xlink:href="#DejaVuSans-78" transform="translate(296.150391 0)"/>
     <use xlink:href="#DejaVuSans-74" transform="translate(355.330078 0)"/>
     <use xlink:href="#DejaVuSans-65" transform="translate(394.539062 0)"/>
     <use xlink:href="#DejaVuSans-73" transform="translate(456.0625 0)"/>
     <use xlink:href="#DejaVuSans-74" transform="translate(508.162109 0)"/>
     <use xlink:href="#DejaVuSans-5f" transform="translate(547.371094 0)"/>
     <use xlink:href="#DejaVuSans-64" transform="translate(597.371094 0)"/>
     <use xlink:href="#DejaVuSans-69" transform="translate(660.847656 0)"/>
     <use xlink:href="#DejaVuSans-65" transform="translate(688.630859 0)"/>
     <use xlink:href="#DejaVuSans-32" transform="translate(750.154297 0)"/>
     <use xlink:href="#DejaVuSans-5f" transform="translate(813.777344 0)"/>
     <use xlink:href="#DejaVuSans-64" transform="translate(863.777344 0)"/>
     <use xlink:href="#DejaVuSans-69" transform="translate(927.253906 0)"/>
     <use xlink:href="#DejaVuSans-65" transform="translate(955.037109 0)"/>
     <use xlink:href="#DejaVuSans-33" transform="translate(1016.560547 0)"/>
    </g>
   </g>
   <g id="text_32">
    <!-- scan_shift_die2_a -->
    <g transform="translate(305.779583 105.13858) scale(0.08 -0.08)">
     <use xlink:href="#DejaVuSans-73"/>
     <use xlink:href="#DejaVuSans-63" transform="translate(52.099609 0)"/>
     <use xlink:href="#DejaVuSans-61" transform="translate(107.080078 0)"/>
     <use xlink:href="#DejaVuSans-6e" transform="translate(168.359375 0)"/>
     <use xlink:href="#DejaVuSans-5f" transform="translate(231.738281 0)"/>
     <use xlink:href="#DejaVuSans-73" transform="translate(281.738281 0)"/>
     <use xlink:href="#DejaVuSans-68" transform="translate(333.837891 0)"/>
     <use xlink:href="#DejaVuSans-69" transform="translate(397.216797 0)"/>
     <use xlink:href="#DejaVuSans-66" transform="translate(425 0)"/>
     <use xlink:href="#DejaVuSans-74" transform="translate(458.455078 0)"/>
     <use xlink:href="#DejaVuSans-5f" transform="translate(497.664062 0)"/>
     <use xlink:href="#DejaVuSans-64" transform="translate(547.664062 0)"/>
     <use xlink:href="#DejaVuSans-69" transform="translate(611.140625 0)"/>
     <use xlink:href="#DejaVuSans-65" transform="translate(638.923828 0)"/>
     <use xlink:href="#DejaVuSans-32" transform="translate(700.447266 0)"/>
     <use xlink:href="#DejaVuSans-5f" transform="translate(764.070312 0)"/>
     <use xlink:href="#DejaVuSans-61" transform="translate(814.070312 0)"/>
    </g>
   </g>
   <g id="text_33">
    <!-- scan_capture_die1 -->
    <g transform="translate(297.760918 157.57392) scale(0.08 -0.08)">
     <use xlink:href="#DejaVuSans-73"/>
     <use xlink:href="#DejaVuSans-63" transform="translate(52.099609 0)"/>
     <use xlink:href="#DejaVuSans-61" transform="translate(107.080078 0)"/>
     <use xlink:href="#DejaVuSans-6e" transform="translate(168.359375 0)"/>
     <use xlink:href="#DejaVuSans-5f" transform="translate(231.738281 0)"/>
     <use xlink:href="#DejaVuSans-63" transform="translate(281.738281 0)"/>
     <use xlink:href="#DejaVuSans-61" transform="translate(336.71875 0)"/>
     <use xlink:href="#DejaVuSans-70" transform="translate(397.998047 0)"/>
     <use xlink:href="#DejaVuSans-74" transform="translate(461.474609 0)"/>
     <use xlink:href="#DejaVuSans-75" transform="translate(500.683594 0)"/>
     <use xlink:href="#DejaVuSans-72" transform="translate(564.0625 0)"/>
     <use xlink:href="#DejaVuSans-65" transform="translate(602.925781 0)"/>
     <use xlink:href="#DejaVuSans-5f" transform="translate(664.449219 0)"/>
     <use xlink:href="#DejaVuSans-64" transform="translate(714.449219 0)"/>
     <use xlink:href="#DejaVuSans-69" transform="translate(777.925781 0)"/>
     <use xlink:href="#DejaVuSans-65" transform="translate(805.708984 0)"/>
     <use xlink:href="#DejaVuSans-31" transform="translate(867.232422 0)"/>
    </g>
   </g>
   <g id="text_34">
    <!-- scan_shift_die3_a -->
    <g transform="translate(357.956318 52.703241) scale(0.08 -0.08)">
     <use xlink:href="#DejaVuSans-73"/>
     <use xlink:href="#DejaVuSans-63" transform="translate(52.099609 0)"/>
     <use xlink:href="#DejaVuSans-61" transform="translate(107.080078 0)"/>
     <use xlink:href="#DejaVuSans-6e" transform="translate(168.359375 0)"/>
     <use xlink:href="#DejaVuSans-5f" transform="translate(231.738281 0)"/>
     <use xlink:href="#DejaVuSans-73" transform="translate(281.738281 0)"/>
     <use xlink:href="#DejaVuSans-68" transform="translate(333.837891 0)"/>
     <use xlink:href="#DejaVuSans-69" transform="translate(397.216797 0)"/>
     <use xlink:href="#DejaVuSans-66" transform="translate(425 0)"/>
     <use xlink:href="#DejaVuSans-74" transform="translate(458.455078 0)"/>
     <use xlink:href="#DejaVuSans-5f" transform="translate(497.664062 0)"/>
     <use xlink:href="#DejaVuSans-64" transform="translate(547.664062 0)"/>
     <use xlink:href="#DejaVuSans-69" transform="translate(611.140625 0)"/>
     <use xlink:href="#DejaVuSans-65" transform="translate(638.923828 0)"/>
     <use xlink:href="#DejaVuSans-33" transform="translate(700.447266 0)"/>
     <use xlink:href="#DejaVuSans-5f" transform="translate(764.070312 0)"/>
     <use xlink:href="#DejaVuSans-61" transform="translate(814.070312 0)"/>
    </g>
   </g>
   <g id="text_35">
    <!-- scan_shift_die2_b -->
    <g transform="translate(383.95656 105.13858) scale(0.08 -0.08)">
     <use xlink:href="#DejaVuSans-73"/>
     <use xlink:href="#DejaVuSans-63" transform="translate(52.099609 0)"/>
     <use xlink:href="#DejaVuSans-61" transform="translate(107.080078 0)"/>
     <use xlink:href="#DejaVuSans-6e" transform="translate(168.359375 0)"/>
     <use xlink:href="#DejaVuSans-5f" transform="translate(231.738281 0)"/>
     <use xlink:href="#DejaVuSans-73" transform="translate(281.738281 0)"/>
     <use xlink:href="#DejaVuSans-68" transform="translate(333.837891 0)"/>
     <use xlink:href="#DejaVuSans-69" transform="translate(397.216797 0)"/>
     <use xlink:href="#DejaVuSans-66" transform="translate(425 0)"/>
     <use xlink:href="#DejaVuSans-74" transform="translate(458.455078 0)"/>
     <use xlink:href="#DejaVuSans-5f" transform="translate(497.664062 0)"/>
     <use xlink:href="#DejaVuSans-64" transform="translate(547.664062 0)"/>
     <use xlink:href="#DejaVuSans-69" transform="translate(611.140625 0)"/>
     <use xlink:href="#DejaVuSans-65" transform="translate(638.923828 0)"/>
     <use xlink:href="#DejaVuSans-32" transform="translate(700.447266 0)"/>
     <use xlink:href="#DejaVuSans-5f" transform="translate(764.070312 0)"/>
     <use xlink:href="#DejaVuSans-62" transform="translate(814.070312 0)"/>
    </g>
   </g>
   <g id="text_36">
    <!-- scan_shift_die3_b -->
    <g transform="translate(436.133295 52.703241) scale(0.08 -0.08)">
     <use xlink:href="#DejaVuSans-73"/>
     <use xlink:href="#DejaVuSans-63" transform="translate(52.099609 0)"/>
     <use xlink:href="#DejaVuSans-61" transform="translate(107.080078 0)"/>
     <use xlink:href="#DejaVuSans-6e" transform="translate(168.359375 0)"/>
     <use xlink:href="#DejaVuSans-5f" transform="translate(231.738281 0)"/>
     <use xlink:href="#DejaVuSans-73" transform="translate(281.738281 0)"/>
     <use xlink:href="#DejaVuSans-68" transform="translate(333.837891 0)"/>
     <use xlink:href="#DejaVuSans-69" transform="translate(397.216797 0)"/>
     <use xlink:href="#DejaVuSans-66" transform="translate(425 0)"/>
     <use xlink:href="#DejaVuSans-74" transform="translate(458.455078 0)"/>
     <use xlink:href="#DejaVuSans-5f" transform="translate(497.664062 0)"/>
     <use xlink:href="#DejaVuSans-64" transform="translate(547.664062 0)"/>
     <use xlink:href="#DejaVuSans-69" transform="translate(611.140625 0)"/>
     <use xlink:href="#DejaVuSans-65" transform="translate(638.923828 0)"/>
     <use xlink:href="#DejaVuSans-33" transform="translate(700.447266 0)"/>
     <use xlink:href="#DejaVuSans-5f" transform="translate(764.070312 0)"/>
     <use xlink:href="#DejaVuSans-62" transform="translate(814.070312 0)"/>
    </g>
   </g>
   <g id="text_37">
    <!-- scan_capture_die2 -->
    <g transform="translate(436.898878 105.13858) scale(0.08 -0.08)">
     <use xlink:href="#DejaVuSans-73"/>
     <use xlink:href="#DejaVuSans-63" transform="translate(52.099609 0)"/>
     <use xlink:href="#DejaVuSans-61" transform="translate(107.080078 0)"/>
     <use xlink:href="#DejaVuSans-6e" transform="translate(168.359375 0)"/>
     <use xlink:href="#DejaVuSans-5f" transform="translate(231.738281 0)"/>
     <use xlink:href="#DejaVuSans-63" transform="translate(281.738281 0)"/>
     <use xlink:href="#DejaVuSans-61" transform="translate(336.71875 0)"/>
     <use xlink:href="#DejaVuSans-70" transform="translate(397.998047 0)"/>
     <use xlink:href="#DejaVuSans-74" transform="translate(461.474609 0)"/>
     <use xlink:href="#DejaVuSans-75" transform="translate(500.683594 0)"/>
     <use xlink:href="#DejaVuSans-72" transform="translate(564.0625 0)"/>
     <use xlink:href="#DejaVuSans-65" transform="translate(602.925781 0)"/>
     <use xlink:href="#DejaVuSans-5f" transform="translate(664.449219 0)"/>
     <use xlink:href="#DejaVuSans-64" transform="translate(714.449219 0)"/>
     <use xlink:href="#DejaVuSans-69" transform="translate(777.925781 0)"/>
     <use xlink:href="#DejaVuSans-65" transform="translate(805.708984 0)"/>
     <use xlink:href="#DejaVuSans-32" transform="translate(867.232422 0)"/>
    </g>
   </g>
   <g id="text_38">
    <!-- scan_capture_die3 -->
    <g transform="translate(489.075612 52.703241) scale(0.08 -0.08)">
     <use xlink:href="#DejaVuSans-73"/>
     <use xlink:href="#DejaVuSans-63" transform="translate(52.099609 0)"/>
     <use xlink:href="#DejaVuSans-61" transform="translate(107.080078 0)"/>
     <use xlink:href="#DejaVuSans-6e" transform="translate(168.359375 0)"/>
     <use xlink:href="#DejaVuSans-5f" transform="translate(231.738281 0)"/>
     <use xlink:href="#DejaVuSans-63" transform="translate(281.738281 0)"/>
     <use xlink:href="#DejaVuSans-61" transform="translate(336.71875 0)"/>
     <use xlink:href="#DejaVuSans-70" transform="translate(397.998047 0)"/>
     <use xlink:href="#DejaVuSans-74" transform="translate(461.474609 0)"/>
     <use xlink:href="#DejaVuSans-75" transform="translate(500.683594 0)"/>
     <use xlink:href="#DejaVuSans-72" transform="translate(564.0625 0)"/>
     <use xlink:href="#DejaVuSans-65" transform="translate(602.925781 0)"/>
     <use xlink:href="#DejaVuSans-5f" transform="translate(664.449219 0)"/>
     <use xlink:href="#DejaVuSans-64" transform="translate(714.449219 0)"/>
     <use xlink:href="#DejaVuSans-69" transform="translate(777.925781 0)"/>
     <use xlink:href="#DejaVuSans-65" transform="translate(805.708984 0)"/>
     <use xlink:href="#DejaVuSans-33" transform="translate(867.232422 0)"/>
    </g>
   </g>
   <g id="text_39">
    <!-- bandwidth_greedy schedule -->
    <g transform="translate(215.895491 20.88) scale(0.12 -0.12)">
     <defs>
      <path id="DejaVuSans-67" d="M 2906 1791 
Q 2906 2416 2648 2759 
Q 2391 3103 1925 3103 
Q 1463 3103 1205 2759 
Q 947 2416 947 1791 
Q 947 1169 1205 825 
Q 1463 481 1925 481 
Q 2391 481 2648 825 
Q 2906 1169 2906 1791 
z
M 3481 434 
Q 3481 -459 3084 -895 
Q 2688 -1331 1869 -1331 
Q 1566 -1331 1297 -1286 
Q 1028 -1241 775 -1147 
L 775 -588 
Q 1028 -725 1275 -790 
Q 1522 -856 1778 -856 
Q 2344 -856 2625 -561 
Q 2906 -266 2906 331 
L 2906 616 
Q 2728 306 2450 153 
Q 2172 0 1784 0 
Q 1141 0 747 490 
Q 353 981 353 1791 
Q 353 2603 747 3093 
Q 1141 3584 1784 3584 
Q 2172 3584 2450 3431 
Q 2728 3278 2906 2969 
L 2906 3500 
L 3481 3500 
L 3481 434 
z
" transform="scale(0.015625)"/>
      <path id="DejaVuSans-79" d="M 2059 -325 
Q 1816 -950 1584 -1140 
Q 1353 -1331 966 -1331 
L 506 -1331 
L 506 -850 
L 844 -850 
Q 1081 -850 1212 -737 
Q 1344 -625 1503 -206 
L 1606 56 
L 191 3500 
L 800 3500 
L 1894 763 
L 2988 3500 
L 3597 3500 
L 2059 -325 
z
" transform="scale(0.015625)"/>
      <path id="DejaVuSans-6c" d="M 603 4863 
L 1178 4863 
L 1178 0 
L 603 0 
L 603 4863 
z
" transform="scale(0.015625)"/>
     </defs>
     <use xlink:href="#DejaVuSans-62"/>
     <use xlink:href="#DejaVuSans-61" transform="translate(63.476562 0)"/>
     <use xlink:href="#DejaVuSans-6e" transform="translate(124.755859 0)"/>
     <use xlink:href="#DejaVuSans-64" transform="translate(188.134766 0)"/>
     <use xlink:href="#DejaVuSans-77" transform="translate(251.611328 0)"/>
     <use xlink:href="#DejaVuSans-69" transform="translate(333.398438 0)"/>
     <use xlink:href="#DejaVuSans-64" transform="translate(361.181641 0)"/>
     <use xlink:href="#DejaVuSans-74" transform="translate(424.658203 0)"/>
     <use xlink:href="#DejaVuSans-68" transform="translate(463.867188 0)"/>
     <use xlink:href="#DejaVuSans-5f" transform="translate(527.246094 0)"/>
     <use xlink:href="#DejaVuSans-67" transform="translate(577.246094 0)"/>
     <use xlink:href="#DejaVuSans-72" transform="translate(640.722656 0)"/>
     <use xlink:href="#DejaVuSans-65" transform="translate(679.585938 0)"/>
     <use xlink:href="#DejaVuSans-65" transform="translate(741.109375 0)"/>
     <use xlink:href="#DejaVuSans-64" transform="translate(802.632812 0)"/>
     <use xlink:href="#DejaVuSans-79" transform="translate(866.109375 0)"/>
     <use xlink:href="#DejaVuSans-20" transform="translate(925.289062 0)"/>
     <use xlink:href="#DejaVuSans-73" transform="translate(957.076172 0)"/>
     <use xlink:href="#DejaVuSans-63" transform="translate(1009.175781 0)"/>
     <use xlink:href="#DejaVuSans-68" transform="translate(1064.15625 0)"/>
     <use xlink:href="#DejaVuSans-65" transform="translate(1127.535156 0)"/>
     <use xlink:href="#DejaVuSans-64" transform="translate(1189.058594 0)"/>
     <use xlink:href="#DejaVuSans-75" transform="translate(1252.535156 0)"/>
     <use xlink:href="#DejaVuSans-6c" transform="translate(1315.914062 0)"/>
     <use xlink:href="#DejaVuSans-65" transform="translate(1343.697266 0)"/>
    </g>
   </g>
   <g id="legend_1">
    <g id="patch_30">
     <path d="M 437.669107 227.64 
L 538.102857 227.64 
Q 539.702857 227.64 539.702857 226.04 
L 539.702857 179.425 
Q 539.702857 177.825 538.102857 177.825 
L 437.669107 177.825 
Q 436.069107 177.825 436.069107 179.425 
L 436.069107 226.04 
Q 436.069107 227.64 437.669107 227.64 
z
" style="fill: #ffffff; opacity: 0.8; stroke: #cccccc; stroke-linejoin: miter"/>
    </g>
    <g id="patch_31">
     <path d="M 439.269107 187.10375 
L 455.269107 187.10375 
L 455.269107 181.50375 
L 439.269107 181.50375 
z
" style="fill: #17becf"/>
    </g>
    <g id="text_40">
     <!-- instrument_access -->
     <g transform="translate(461.669107 187.10375) scale(0.08 -0.08)">
      <use xlink:href="#DejaVuSans-69"/>
      <use xlink:href="#DejaVuSans-6e" transform="translate(27.783203 0)"/>
      <use xlink:href="#DejaVuSans-73" transform="translate(91.162109 0)"/>
      <use xlink:href="#DejaVuSans-74" transform="translate(143.261719 0)"/>
      <use xlink:href="#DejaVuSans-72" transform="translate(182.470703 0)"/>
      <use xlink:href="#DejaVuSans-75" transform="translate(223.583984 0)"/>
      <use xlink:href="#DejaVuSans-6d" transform="translate(286.962891 0)"/>
      <use xlink:href="#DejaVuSans-65" transform="translate(384.375 0)"/>
      <use xlink:href="#DejaVuSans-6e" transform="translate(445.898438 0)"/>
      <use xlink:href="#DejaVuSans-74" transform="translate(509.277344 0)"/>
      <use xlink:href="#DejaVuSans-5f" transform="translate(548.486328 0)"/>
      <use xlink:href="#DejaVuSans-61" transform="translate(598.486328 0)"/>
      <use xlink:href="#DejaVuSans-63" transform="translate(659.765625 0)"/>
      <use xlink:href="#DejaVuSans-63" transform="translate(714.746094 0)"/>
      <use xlink:href="#DejaVuSans-65" transform="translate(769.726562 0)"/>
      <use xlink:href="#DejaVuSans-73" transform="translate(831.25 0)"/>
      <use xlink:href="#DejaVuSans-73" transform="translate(883.349609 0)"/>
     </g>
    </g>
    <g id="patch_32">
     <path d="M 439.269107 199.06875 
L 455.269107 199.06875 
L 455.269107 193.46875 
L 439.269107 193.46875 
z
" style="fill: #8c564b"/>
    </g>
    <g id="text_41">
     <!-- dwr_extest -->
     <g transform="translate(461.669107 199.06875) scale(0.08 -0.08)">
      <use xlink:href="#DejaVuSans-64"/>
      <use xlink:href="#DejaVuSans-77" transform="translate(63.476562 0)"/>
      <use xlink:href="#DejaVuSans-72" transform="translate(145.263672 0)"/>
      <use xlink:href="#DejaVuSans-5f" transform="translate(186.376953 0)"/>
      <use xlink:href="#DejaVuSans-65" transform="translate(236.376953 0)"/>
      <use xlink:href="#DejaVuSans-78" transform="translate(296.150391 0)"/>
      <use xlink:href="#DejaVuSans-74" transform="translate(355.330078 0)"/>
      <use xlink:href="#DejaVuSans-65" transform="translate(394.539062 0)"/>
      <use xlink:href="#DejaVuSans-73" transform="translate(456.0625 0)"/>
      <use xlink:href="#DejaVuSans-74" transform="translate(508.162109 0)"/>
     </g>
    </g>
    <g id="patch_33">
     <path d="M 439.269107 211.03375 
L 455.269107 211.03375 
L 455.269107 205.43375 
L 439.269107 205.43375 
z
" style="fill: #2ca02c"/>
    </g>
    <g id="text_42">
     <!-- scan -->
     <g transform="translate(461.669107 211.03375) scale(0.08 -0.08)">
      <use xlink:href="#DejaVuSans-73"/>
      <use xlink:href="#DejaVuSans-63" transform="translate(52.099609 0)"/>
      <use xlink:href="#DejaVuSans-61" transform="translate(107.080078 0)"/>
      <use xlink:href="#DejaVuSans-6e" transform="translate(168.359375 0)"/>
     </g>
    </g>
    <g id="patch_34">
     <path d="M 439.269107 222.77625 
L 455.269107 222.77625 
L 455.269107 217.17625 
L 439.269107 217.17625 
z
" style="fill: #e377c2"/>
    </g>
    <g id="text_43">
     <!-- bist -->
     <g transform="translate(461.669107 222.77625) scale(0.08 -0.08)">
      <use xlink:href="#DejaVuSans-62"/>
      <use xlink:href="#DejaVuSans-69" transform="translate(63.476562 0)"/>
      <use xlink:href="#DejaVuSans-73" transform="translate(91.259766 0)"/>
      <use xlink:href="#DejaVuSans-74" transform="translate(143.359375 0)"/>
     </g>
    </g>
   </g>
  </g>
 </g>
 <defs>
  <clipPath id="p733c1e595a">
   <rect x="56.72" y="26.88" width="486.982857" height="204.76"/>
  </clipPath>
 </defs>
</svg>
