<?xml version="1.0" encoding="utf-8" standalone="no"?>
<!DOCTYPE svg PUBLIC "-//W3C//DTD SVG 1.1//EN"
  "http://www.w3.org/Graphics/SVG/1.1/DTD/svg11.dtd">
<svg xmlns:xlink="http://www.w3.org/1999/xlink" width="576pt" height="273.6pt" viewBox="0 0 576 273.6" xmlns="http://www.w3.org/2000/svg" version="1.1">
 <metadata>
  <rdf:RDF xmlns:dc="http://purl.org/dc/elements/1.1/" xmlns:cc="http://creativecommons.org/ns#" xmlns:rdf="http://www.w3.org/1999/02/22-rdf-syntax-ns#">
   <cc:Work>
    <dc:type rdf:resource="http://purl.org/dc/dcmitype/StillImage"/>
    <dc:date>2026-05-15T17:04:02.699415</dc:date>
    <dc:format>image/svg+xml</dc:format>
    <dc:creator>
     <cc:Agent>
      <dc:title>Matplotlib v3.10.9, https://matplotlib.org/</dc:title>
     </cc:Agent>
    </dc:creator>
   </cc:Work>
  </rdf:RDF>
 </metadata>
 <defs>
  <style type="text/css">*{stroke-linejoin: round; stroke-linecap: butt}</style>
 </defs>
 <g id="figure_1">
  <g id="patch_1">
   <path d="M 0 273.6 
L 576 273.6 
L 576 0 
L 0 0 
z
" style="fill: #ffffff"/>
  </g>
  <g id="axes_1">
   <g id="patch_2">
    <path d="M 54.02 231.64 
L 556.597115 231.64 
L 556.597115 26.68875 
L 54.02 26.68875 
z
" style="fill: #ffffff"/>
   </g>
   <g id="matplotlib.axis_1">
    <g id="xtick_1">
     <g id="line2d_1">
      <path d="M 76.864414 231.64 
L 76.864414 26.68875 
" clip-path="url(#p3eb06596ce)" style="fill: none; stroke: #b0b0b0; stroke-opacity: 0.3; stroke-width: 0.8; stroke-linecap: square"/>
     </g>
     <g id="line2d_2">
      <defs>
       <path id="m5fdf191c11" d="M 0 0 
L 0 3.5 
" style="stroke: #000000; stroke-width: 0.8"/>
      </defs>
      <g>
       <use xlink:href="#m5fdf191c11" x="76.864414" y="231.64" style="stroke: #000000; stroke-width: 0.8"/>
      </g>
     </g>
     <g id="text_1">
      <!-- 0.000 -->
      <g transform="translate(62.550352 246.238437) scale(0.1 -0.1)">
       <defs>
        <path id="DejaVuSans-30" d="M 2034 4250 
Q 1547 4250 1301 3770 
Q 1056 3291 1056 2328 
Q 1056 1369 1301 889 
Q 1547 409 2034 409 
Q 2525 409 2770 889 
Q 3016 1369 3016 2328 
Q 3016 3291 2770 3770 
Q 2525 4250 2034 4250 
z
M 2034 4750 
Q 2819 4750 3233 4129 
Q 3647 3509 3647 2328 
Q 3647 1150 3233 529 
Q 2819 -91 2034 -91 
Q 1250 -91 836 529 
Q 422 1150 422 2328 
Q 422 3509 836 4129 
Q 1250 4750 2034 4750 
z
" transform="scale(0.015625)"/>
        <path id="DejaVuSans-2e" d="M 684 794 
L 1344 794 
L 1344 0 
L 684 0 
L 684 794 
z
" transform="scale(0.015625)"/>
       </defs>
       <use xlink:href="#DejaVuSans-30"/>
       <use xlink:href="#DejaVuSans-2e" transform="translate(63.623047 0)"/>
       <use xlink:href="#DejaVuSans-30" transform="translate(95.410156 0)"/>
       <use xlink:href="#DejaVuSans-30" transform="translate(159.033203 0)"/>
       <use xlink:href="#DejaVuSans-30" transform="translate(222.65625 0)"/>
      </g>
     </g>
    </g>
    <g id="xtick_2">
     <g id="line2d_3">
      <path d="M 136.046835 231.64 
L 136.046835 26.68875 
" clip-path="url(#p3eb06596ce)" style="fill: none; stroke: #b0b0b0; stroke-opacity: 0.3; stroke-width: 0.8; stroke-linecap: square"/>
     </g>
     <g id="line2d_4">
      <g>
       <use xlink:href="#m5fdf191c11" x="136.046835" y="231.64" style="stroke: #000000; stroke-width: 0.8"/>
      </g>
     </g>
     <g id="text_2">
      <!-- 0.005 -->
      <g transform="translate(121.732772 246.238437) scale(0.1 -0.1)">
       <defs>
        <path id="DejaVuSans-35" d="M 691 4666 
L 3169 4666 
L 3169 4134 
L 1269 4134 
L 1269 2991 
Q 1406 3038 1543 3061 
Q 1681 3084 1819 3084 
Q 2600 3084 3056 2656 
Q 3513 2228 3513 1497 
Q 3513 744 3044 326 
Q 2575 -91 1722 -91 
Q 1428 -91 1123 -41 
Q 819 9 494 109 
L 494 744 
Q 775 591 1075 516 
Q 1375 441 1709 441 
Q 2250 441 2565 725 
Q 2881 1009 2881 1497 
Q 2881 1984 2565 2268 
Q 2250 2553 1709 2553 
Q 1456 2553 1204 2497 
Q 953 2441 691 2322 
L 691 4666 
z
" transform="scale(0.015625)"/>
       </defs>
       <use xlink:href="#DejaVuSans-30"/>
       <use xlink:href="#DejaVuSans-2e" transform="translate(63.623047 0)"/>
       <use xlink:href="#DejaVuSans-30" transform="translate(95.410156 0)"/>
       <use xlink:href="#DejaVuSans-30" transform="translate(159.033203 0)"/>
       <use xlink:href="#DejaVuSans-35" transform="translate(222.65625 0)"/>
      </g>
     </g>
    </g>
    <g id="xtick_3">
     <g id="line2d_5">
      <path d="M 195.229255 231.64 
L 195.229255 26.68875 
" clip-path="url(#p3eb06596ce)" style="fill: none; stroke: #b0b0b0; stroke-opacity: 0.3; stroke-width: 0.8; stroke-linecap: square"/>
     </g>
     <g id="line2d_6">
      <g>
       <use xlink:href="#m5fdf191c11" x="195.229255" y="231.64" style="stroke: #000000; stroke-width: 0.8"/>
      </g>
     </g>
     <g id="text_3">
      <!-- 0.010 -->
      <g transform="translate(180.915193 246.238437) scale(0.1 -0.1)">
       <defs>
        <path id="DejaVuSans-31" d="M 794 531 
L 1825 531 
L 1825 4091 
L 703 3866 
L 703 4441 
L 1819 4666 
L 2450 4666 
L 2450 531 
L 3481 531 
L 3481 0 
L 794 0 
L 794 531 
z
" transform="scale(0.015625)"/>
       </defs>
       <use xlink:href="#DejaVuSans-30"/>
       <use xlink:href="#DejaVuSans-2e" transform="translate(63.623047 0)"/>
       <use xlink:href="#DejaVuSans-30" transform="translate(95.410156 0)"/>
       <use xlink:href="#DejaVuSans-31" transform="translate(159.033203 0)"/>
       <use xlink:href="#DejaVuSans-30" transform="translate(222.65625 0)"/>
      </g>
     </g>
    </g>
    <g id="xtick_4">
     <g id="line2d_7">
      <path d="M 254.411676 231.64 
L 254.411676 26.68875 
" clip-path="url(#p3eb06596ce)" style="fill: none; stroke: #b0b0b0; stroke-opacity: 0.3; stroke-width: 0.8; stroke-linecap: square"/>
     </g>
     <g id="line2d_8">
      <g>
       <use xlink:href="#m5fdf191c11" x="254.411676" y="231.64" style="stroke: #000000; stroke-width: 0.8"/>
      </g>
     </g>
     <g id="text_4">
      <!-- 0.015 -->
      <g transform="translate(240.097613 246.238437) scale(0.1 -0.1)">
       <use xlink:href="#DejaVuSans-30"/>
       <use xlink:href="#DejaVuSans-2e" transform="translate(63.623047 0)"/>
       <use xlink:href="#DejaVuSans-30" transform="translate(95.410156 0)"/>
       <use xlink:href="#DejaVuSans-31" transform="translate(159.033203 0)"/>
       <use xlink:href="#DejaVuSans-35" transform="translate(222.65625 0)"/>
      </g>
     </g>
    </g>
    <g id="xtick_5">
     <g id="line2d_9">
      <path d="M 313.594096 231.64 
L 313.594096 26.68875 
" clip-path="url(#p3eb06596ce)" style="fill: none; stroke: #b0b0b0; stroke-opacity: 0.3; stroke-width: 0.8; stroke-linecap: square"/>
     </g>
     <g id="line2d_10">
      <g>
       <use xlink:href="#m5fdf191c11" x="313.594096" y="231.64" style="stroke: #000000; stroke-width: 0.8"/>
      </g>
     </g>
     <g id="text_5">
      <!-- 0.020 -->
      <g transform="translate(299.280034 246.238437) scale(0.1 -0.1)">
       <defs>
        <path id="DejaVuSans-32" d="M 1228 531 
L 3431 531 
L 3431 0 
L 469 0 
L 469 531 
Q 828 903 1448 1529 
Q 2069 2156 2228 2338 
Q 2531 2678 2651 2914 
Q 2772 3150 2772 3378 
Q 2772 3750 2511 3984 
Q 2250 4219 1831 4219 
Q 1534 4219 1204 4116 
Q 875 4013 500 3803 
L 500 4441 
Q 881 4594 1212 4672 
Q 1544 4750 1819 4750 
Q 2544 4750 2975 4387 
Q 3406 4025 3406 3419 
Q 3406 3131 3298 2873 
Q 3191 2616 2906 2266 
Q 2828 2175 2409 1742 
Q 1991 1309 1228 531 
z
" transform="scale(0.015625)"/>
       </defs>
       <use xlink:href="#DejaVuSans-30"/>
       <use xlink:href="#DejaVuSans-2e" transform="translate(63.623047 0)"/>
       <use xlink:href="#DejaVuSans-30" transform="translate(95.410156 0)"/>
       <use xlink:href="#DejaVuSans-32" transform="translate(159.033203 0)"/>
       <use xlink:href="#DejaVuSans-30" transform="translate(222.65625 0)"/>
      </g>
     </g>
    </g>
    <g id="xtick_6">
     <g id="line2d_11">
      <path d="M 372.776517 231.64 
L 372.776517 26.68875 
" clip-path="url(#p3eb06596ce)" style="fill: none; stroke: #b0b0b0; stroke-opacity: 0.3; stroke-width: 0.8; stroke-linecap: square"/>
     </g>
     <g id="line2d_12">
      <g>
       <use xlink:href="#m5fdf191c11" x="372.776517" y="231.64" style="stroke: #000000; stroke-width: 0.8"/>
      </g>
     </g>
     <g id="text_6">
      <!-- 0.025 -->
      <g transform="translate(358.462454 246.238437) scale(0.1 -0.1)">
       <use xlink:href="#DejaVuSans-30"/>
       <use xlink:href="#DejaVuSans-2e" transform="translate(63.623047 0)"/>
       <use xlink:href="#DejaVuSans-30" transform="translate(95.410156 0)"/>
       <use xlink:href="#DejaVuSans-32" transform="translate(159.033203 0)"/>
       <use xlink:href="#DejaVuSans-35" transform="translate(222.65625 0)"/>
      </g>
     </g>
    </g>
    <g id="xtick_7">
     <g id="line2d_13">
      <path d="M 431.958937 231.64 
L 431.958937 26.68875 
" clip-path="url(#p3eb06596ce)" style="fill: none; stroke: #b0b0b0; stroke-opacity: 0.3; stroke-width: 0.8; stroke-linecap: square"/>
     </g>
     <g id="line2d_14">
      <g>
       <use xlink:href="#m5fdf191c11" x="431.958937" y="231.64" style="stroke: #000000; stroke-width: 0.8"/>
      </g>
     </g>
     <g id="text_7">
      <!-- 0.030 -->
      <g transform="translate(417.644875 246.238437) scale(0.1 -0.1)">
       <defs>
        <path id="DejaVuSans-33" d="M 2597 2516 
Q 3050 2419 3304 2112 
Q 3559 1806 3559 1356 
Q 3559 666 3084 287 
Q 2609 -91 1734 -91 
Q 1441 -91 1130 -33 
Q 819 25 488 141 
L 488 750 
Q 750 597 1062 519 
Q 1375 441 1716 441 
Q 2309 441 2620 675 
Q 2931 909 2931 1356 
Q 2931 1769 2642 2001 
Q 2353 2234 1838 2234 
L 1294 2234 
L 1294 2753 
L 1863 2753 
Q 2328 2753 2575 2939 
Q 2822 3125 2822 3475 
Q 2822 3834 2567 4026 
Q 2313 4219 1838 4219 
Q 1578 4219 1281 4162 
Q 984 4106 628 3988 
L 628 4550 
Q 988 4650 1302 4700 
Q 1616 4750 1894 4750 
Q 2613 4750 3031 4423 
Q 3450 4097 3450 3541 
Q 3450 3153 3228 2886 
Q 3006 2619 2597 2516 
z
" transform="scale(0.015625)"/>
       </defs>
       <use xlink:href="#DejaVuSans-30"/>
       <use xlink:href="#DejaVuSans-2e" transform="translate(63.623047 0)"/>
       <use xlink:href="#DejaVuSans-30" transform="translate(95.410156 0)"/>
       <use xlink:href="#DejaVuSans-33" transform="translate(159.033203 0)"/>
       <use xlink:href="#DejaVuSans-30" transform="translate(222.65625 0)"/>
      </g>
     </g>
    </g>
    <g id="xtick_8">
     <g id="line2d_15">
      <path d="M 491.141358 231.64 
L 491.141358 26.68875 
" clip-path="url(#p3eb06596ce)" style="fill: none; stroke: #b0b0b0; stroke-opacity: 0.3; stroke-width: 0.8; stroke-linecap: square"/>
     </g>
     <g id="line2d_16">
      <g>
       <use xlink:href="#m5fdf191c11" x="491.141358" y="231.64" style="stroke: #000000; stroke-width: 0.8"/>
      </g>
     </g>
     <g id="text_8">
      <!-- 0.035 -->
      <g transform="translate(476.827295 246.238437) scale(0.1 -0.1)">
       <use xlink:href="#DejaVuSans-30"/>
       <use xlink:href="#DejaVuSans-2e" transform="translate(63.623047 0)"/>
       <use xlink:href="#DejaVuSans-30" transform="translate(95.410156 0)"/>
       <use xlink:href="#DejaVuSans-33" transform="translate(159.033203 0)"/>
       <use xlink:href="#DejaVuSans-35" transform="translate(222.65625 0)"/>
      </g>
     </g>
    </g>
    <g id="xtick_9">
     <g id="line2d_17">
      <path d="M 550.323778 231.64 
L 550.323778 26.68875 
" clip-path="url(#p3eb06596ce)" style="fill: none; stroke: #b0b0b0; stroke-opacity: 0.3; stroke-width: 0.8; stroke-linecap: square"/>
     </g>
     <g id="line2d_18">
      <g>
       <use xlink:href="#m5fdf191c11" x="550.323778" y="231.64" style="stroke: #000000; stroke-width: 0.8"/>
      </g>
     </g>
     <g id="text_9">
      <!-- 0.040 -->
      <g transform="translate(536.009716 246.238437) scale(0.1 -0.1)">
       <defs>
        <path id="DejaVuSans-34" d="M 2419 4116 
L 825 1625 
L 2419 1625 
L 2419 4116 
z
M 2253 4666 
L 3047 4666 
L 3047 1625 
L 3713 1625 
L 3713 1100 
L 3047 1100 
L 3047 0 
L 2419 0 
L 2419 1100 
L 313 1100 
L 313 1709 
L 2253 4666 
z
" transform="scale(0.015625)"/>
       </defs>
       <use xlink:href="#DejaVuSans-30"/>
       <use xlink:href="#DejaVuSans-2e" transform="translate(63.623047 0)"/>
       <use xlink:href="#DejaVuSans-30" transform="translate(95.410156 0)"/>
       <use xlink:href="#DejaVuSans-34" transform="translate(159.033203 0)"/>
       <use xlink:href="#DejaVuSans-30" transform="translate(222.65625 0)"/>
      </g>
     </g>
    </g>
    <g id="text_10">
     <!-- time (s) -->
     <g transform="translate(285.917151 259.916562) scale(0.1 -0.1)">
      <defs>
       <path id="DejaVuSans-74" d="M 1172 4494 
L 1172 3500 
L 2356 3500 
L 2356 3053 
L 1172 3053 
L 1172 1153 
Q 1172 725 1289 603 
Q 1406 481 1766 481 
L 2356 481 
L 2356 0 
L 1766 0 
Q 1100 0 847 248 
Q 594 497 594 1153 
L 594 3053 
L 172 3053 
L 172 3500 
L 594 3500 
L 594 4494 
L 1172 4494 
z
" transform="scale(0.015625)"/>
       <path id="DejaVuSans-69" d="M 603 3500 
L 1178 3500 
L 1178 0 
L 603 0 
L 603 3500 
z
M 603 4863 
L 1178 4863 
L 1178 4134 
L 603 4134 
L 603 4863 
z
" transform="scale(0.015625)"/>
       <path id="DejaVuSans-6d" d="M 3328 2828 
Q 3544 3216 3844 3400 
Q 4144 3584 4550 3584 
Q 5097 3584 5394 3201 
Q 5691 2819 5691 2113 
L 5691 0 
L 5113 0 
L 5113 2094 
Q 5113 2597 4934 2840 
Q 4756 3084 4391 3084 
Q 3944 3084 3684 2787 
Q 3425 2491 3425 1978 
L 3425 0 
L 2847 0 
L 2847 2094 
Q 2847 2600 2669 2842 
Q 2491 3084 2119 3084 
Q 1678 3084 1418 2786 
Q 1159 2488 1159 1978 
L 1159 0 
L 581 0 
L 581 3500 
L 1159 3500 
L 1159 2956 
Q 1356 3278 1631 3431 
Q 1906 3584 2284 3584 
Q 2666 3584 2933 3390 
Q 3200 3197 3328 2828 
z
" transform="scale(0.015625)"/>
       <path id="DejaVuSans-65" d="M 3597 1894 
L 3597 1613 
L 953 1613 
Q 991 1019 1311 708 
Q 1631 397 2203 397 
Q 2534 397 2845 478 
Q 3156 559 3463 722 
L 3463 178 
Q 3153 47 2828 -22 
Q 2503 -91 2169 -91 
Q 1331 -91 842 396 
Q 353 884 353 1716 
Q 353 2575 817 3079 
Q 1281 3584 2069 3584 
Q 2775 3584 3186 3129 
Q 3597 2675 3597 1894 
z
M 3022 2063 
Q 3016 2534 2758 2815 
Q 2500 3097 2075 3097 
Q 1594 3097 1305 2825 
Q 1016 2553 972 2059 
L 3022 2063 
z
" transform="scale(0.015625)"/>
       <path id="DejaVuSans-20" transform="scale(0.015625)"/>
       <path id="DejaVuSans-28" d="M 1984 4856 
Q 1566 4138 1362 3434 
Q 1159 2731 1159 2009 
Q 1159 1288 1364 580 
Q 1569 -128 1984 -844 
L 1484 -844 
Q 1016 -109 783 600 
Q 550 1309 550 2009 
Q 550 2706 781 3412 
Q 1013 4119 1484 4856 
L 1984 4856 
z
" transform="scale(0.015625)"/>
       <path id="DejaVuSans-73" d="M 2834 3397 
L 2834 2853 
Q 2591 2978 2328 3040 
Q 2066 3103 1784 3103 
Q 1356 3103 1142 2972 
Q 928 2841 928 2578 
Q 928 2378 1081 2264 
Q 1234 2150 1697 2047 
L 1894 2003 
Q 2506 1872 2764 1633 
Q 3022 1394 3022 966 
Q 3022 478 2636 193 
Q 2250 -91 1575 -91 
Q 1294 -91 989 -36 
Q 684 19 347 128 
L 347 722 
Q 666 556 975 473 
Q 1284 391 1588 391 
Q 1994 391 2212 530 
Q 2431 669 2431 922 
Q 2431 1156 2273 1281 
Q 2116 1406 1581 1522 
L 1381 1569 
Q 847 1681 609 1914 
Q 372 2147 372 2553 
Q 372 3047 722 3315 
Q 1072 3584 1716 3584 
Q 2034 3584 2315 3537 
Q 2597 3491 2834 3397 
z
" transform="scale(0.015625)"/>
       <path id="DejaVuSans-29" d="M 513 4856 
L 1013 4856 
Q 1481 4119 1714 3412 
Q 1947 2706 1947 2009 
Q 1947 1309 1714 600 
Q 1481 -109 1013 -844 
L 513 -844 
Q 928 -128 1133 580 
Q 1338 1288 1338 2009 
Q 1338 2731 1133 3434 
Q 928 4138 513 4856 
z
" transform="scale(0.015625)"/>
      </defs>
      <use xlink:href="#DejaVuSans-74"/>
      <use xlink:href="#DejaVuSans-69" transform="translate(39.208984 0)"/>
      <use xlink:href="#DejaVuSans-6d" transform="translate(66.992188 0)"/>
      <use xlink:href="#DejaVuSans-65" transform="translate(164.404297 0)"/>
      <use xlink:href="#DejaVuSans-20" transform="translate(225.927734 0)"/>
      <use xlink:href="#DejaVuSans-28" transform="translate(257.714844 0)"/>
      <use xlink:href="#DejaVuSans-73" transform="translate(296.728516 0)"/>
      <use xlink:href="#DejaVuSans-29" transform="translate(348.828125 0)"/>
     </g>
    </g>
   </g>
   <g id="matplotlib.axis_2">
    <g id="ytick_1">
     <g id="line2d_19">
      <path d="M 54.02 231.052136 
L 556.597115 231.052136 
" clip-path="url(#p3eb06596ce)" style="fill: none; stroke: #b0b0b0; stroke-opacity: 0.3; stroke-width: 0.8; stroke-linecap: square"/>
     </g>
     <g id="line2d_20">
      <defs>
       <path id="ma5fed2509e" d="M 0 0 
L -3.5 0 
" style="stroke: #000000; stroke-width: 0.8"/>
      </defs>
      <g>
       <use xlink:href="#ma5fed2509e" x="54.02" y="231.052136" style="stroke: #000000; stroke-width: 0.8"/>
      </g>
     </g>
     <g id="text_11">
      <!-- 25.2 -->
      <g transform="translate(24.754375 234.851354) scale(0.1 -0.1)">
       <use xlink:href="#DejaVuSans-32"/>
       <use xlink:href="#DejaVuSans-35" transform="translate(63.623047 0)"/>
       <use xlink:href="#DejaVuSans-2e" transform="translate(127.246094 0)"/>
       <use xlink:href="#DejaVuSans-32" transform="translate(159.033203 0)"/>
      </g>
     </g>
    </g>
    <g id="ytick_2">
     <g id="line2d_21">
      <path d="M 54.02 198.726009 
L 556.597115 198.726009 
" clip-path="url(#p3eb06596ce)" style="fill: none; stroke: #b0b0b0; stroke-opacity: 0.3; stroke-width: 0.8; stroke-linecap: square"/>
     </g>
     <g id="line2d_22">
      <g>
       <use xlink:href="#ma5fed2509e" x="54.02" y="198.726009" style="stroke: #000000; stroke-width: 0.8"/>
      </g>
     </g>
     <g id="text_12">
      <!-- 25.3 -->
      <g transform="translate(24.754375 202.525228) scale(0.1 -0.1)">
       <use xlink:href="#DejaVuSans-32"/>
       <use xlink:href="#DejaVuSans-35" transform="translate(63.623047 0)"/>
       <use xlink:href="#DejaVuSans-2e" transform="translate(127.246094 0)"/>
       <use xlink:href="#DejaVuSans-33" transform="translate(159.033203 0)"/>
      </g>
     </g>
    </g>
    <g id="ytick_3">
     <g id="line2d_23">
      <path d="M 54.02 166.399883 
L 556.597115 166.399883 
" clip-path="url(#p3eb06596ce)" style="fill: none; stroke: #b0b0b0; stroke-opacity: 0.3; stroke-width: 0.8; stroke-linecap: square"/>
     </g>
     <g id="line2d_24">
      <g>
       <use xlink:href="#ma5fed2509e" x="54.02" y="166.399883" style="stroke: #000000; stroke-width: 0.8"/>
      </g>
     </g>
     <g id="text_13">
      <!-- 25.4 -->
      <g transform="translate(24.754375 170.199101) scale(0.1 -0.1)">
       <use xlink:href="#DejaVuSans-32"/>
       <use xlink:href="#DejaVuSans-35" transform="translate(63.623047 0)"/>
       <use xlink:href="#DejaVuSans-2e" transform="translate(127.246094 0)"/>
       <use xlink:href="#DejaVuSans-34" transform="translate(159.033203 0)"/>
      </g>
     </g>
    </g>
    <g id="ytick_4">
     <g id="line2d_25">
      <path d="M 54.02 134.073756 
L 556.597115 134.073756 
" clip-path="url(#p3eb06596ce)" style="fill: none; stroke: #b0b0b0; stroke-opacity: 0.3; stroke-width: 0.8; stroke-linecap: square"/>
     </g>
     <g id="line2d_26">
      <g>
       <use xlink:href="#ma5fed2509e" x="54.02" y="134.073756" style="stroke: #000000; stroke-width: 0.8"/>
      </g>
     </g>
     <g id="text_14">
      <!-- 25.5 -->
      <g transform="translate(24.754375 137.872975) scale(0.1 -0.1)">
       <use xlink:href="#DejaVuSans-32"/>
       <use xlink:href="#DejaVuSans-35" transform="translate(63.623047 0)"/>
       <use xlink:href="#DejaVuSans-2e" transform="translate(127.246094 0)"/>
       <use xlink:href="#DejaVuSans-35" transform="translate(159.033203 0)"/>
      </g>
     </g>
    </g>
    <g id="ytick_5">
     <g id="line2d_27">
      <path d="M 54.02 101.74763 
L 556.597115 101.74763 
" clip-path="url(#p3eb06596ce)" style="fill: none; stroke: #b0b0b0; stroke-opacity: 0.3; stroke-width: 0.8; stroke-linecap: square"/>
     </g>
     <g id="line2d_28">
      <g>
       <use xlink:href="#ma5fed2509e" x="54.02" y="101.74763" style="stroke: #000000; stroke-width: 0.8"/>
      </g>
     </g>
     <g id="text_15">
      <!-- 25.6 -->
      <g transform="translate(24.754375 105.546849) scale(0.1 -0.1)">
       <defs>
        <path id="DejaVuSans-36" d="M 2113 2584 
Q 1688 2584 1439 2293 
Q 1191 2003 1191 1497 
Q 1191 994 1439 701 
Q 1688 409 2113 409 
Q 2538 409 2786 701 
Q 3034 994 3034 1497 
Q 3034 2003 2786 2293 
Q 2538 2584 2113 2584 
z
M 3366 4563 
L 3366 3988 
Q 3128 4100 2886 4159 
Q 2644 4219 2406 4219 
Q 1781 4219 1451 3797 
Q 1122 3375 1075 2522 
Q 1259 2794 1537 2939 
Q 1816 3084 2150 3084 
Q 2853 3084 3261 2657 
Q 3669 2231 3669 1497 
Q 3669 778 3244 343 
Q 2819 -91 2113 -91 
Q 1303 -91 875 529 
Q 447 1150 447 2328 
Q 447 3434 972 4092 
Q 1497 4750 2381 4750 
Q 2619 4750 2861 4703 
Q 3103 4656 3366 4563 
z
" transform="scale(0.015625)"/>
       </defs>
       <use xlink:href="#DejaVuSans-32"/>
       <use xlink:href="#DejaVuSans-35" transform="translate(63.623047 0)"/>
       <use xlink:href="#DejaVuSans-2e" transform="translate(127.246094 0)"/>
       <use xlink:href="#DejaVuSans-36" transform="translate(159.033203 0)"/>
      </g>
     </g>
    </g>
    <g id="ytick_6">
     <g id="line2d_29">
      <path d="M 54.02 69.421503 
L 556.597115 69.421503 
" clip-path="url(#p3eb06596ce)" style="fill: none; stroke: #b0b0b0; stroke-opacity: 0.3; stroke-width: 0.8; stroke-linecap: square"/>
     </g>
     <g id="line2d_30">
      <g>
       <use xlink:href="#ma5fed2509e" x="54.02" y="69.421503" style="stroke: #000000; stroke-width: 0.8"/>
      </g>
     </g>
     <g id="text_16">
      <!-- 25.7 -->
      <g transform="translate(24.754375 73.220722) scale(0.1 -0.1)">
       <defs>
        <path id="DejaVuSans-37" d="M 525 4666 
L 3525 4666 
L 3525 4397 
L 1831 0 
L 1172 0 
L 2766 4134 
L 525 4134 
L 525 4666 
z
" transform="scale(0.015625)"/>
       </defs>
       <use xlink:href="#DejaVuSans-32"/>
       <use xlink:href="#DejaVuSans-35" transform="translate(63.623047 0)"/>
       <use xlink:href="#DejaVuSans-2e" transform="translate(127.246094 0)"/>
       <use xlink:href="#DejaVuSans-37" transform="translate(159.033203 0)"/>
      </g>
     </g>
    </g>
    <g id="ytick_7">
     <g id="line2d_31">
      <path d="M 54.02 37.095377 
L 556.597115 37.095377 
" clip-path="url(#p3eb06596ce)" style="fill: none; stroke: #b0b0b0; stroke-opacity: 0.3; stroke-width: 0.8; stroke-linecap: square"/>
     </g>
     <g id="line2d_32">
      <g>
       <use xlink:href="#ma5fed2509e" x="54.02" y="37.095377" style="stroke: #000000; stroke-width: 0.8"/>
      </g>
     </g>
     <g id="text_17">
      <!-- 25.8 -->
      <g transform="translate(24.754375 40.894596) scale(0.1 -0.1)">
       <defs>
        <path id="DejaVuSans-38" d="M 2034 2216 
Q 1584 2216 1326 1975 
Q 1069 1734 1069 1313 
Q 1069 891 1326 650 
Q 1584 409 2034 409 
Q 2484 409 2743 651 
Q 3003 894 3003 1313 
Q 3003 1734 2745 1975 
Q 2488 2216 2034 2216 
z
M 1403 2484 
Q 997 2584 770 2862 
Q 544 3141 544 3541 
Q 544 4100 942 4425 
Q 1341 4750 2034 4750 
Q 2731 4750 3128 4425 
Q 3525 4100 3525 3541 
Q 3525 3141 3298 2862 
Q 3072 2584 2669 2484 
Q 3125 2378 3379 2068 
Q 3634 1759 3634 1313 
Q 3634 634 3220 271 
Q 2806 -91 2034 -91 
Q 1263 -91 848 271 
Q 434 634 434 1313 
Q 434 1759 690 2068 
Q 947 2378 1403 2484 
z
M 1172 3481 
Q 1172 3119 1398 2916 
Q 1625 2713 2034 2713 
Q 2441 2713 2670 2916 
Q 2900 3119 2900 3481 
Q 2900 3844 2670 4047 
Q 2441 4250 2034 4250 
Q 1625 4250 1398 4047 
Q 1172 3844 1172 3481 
z
" transform="scale(0.015625)"/>
       </defs>
       <use xlink:href="#DejaVuSans-32"/>
       <use xlink:href="#DejaVuSans-35" transform="translate(63.623047 0)"/>
       <use xlink:href="#DejaVuSans-2e" transform="translate(127.246094 0)"/>
       <use xlink:href="#DejaVuSans-38" transform="translate(159.033203 0)"/>
      </g>
     </g>
    </g>
    <g id="text_18">
     <!-- temperature (C) -->
     <g transform="translate(18.674688 169.572187) rotate(-90) scale(0.1 -0.1)">
      <defs>
       <path id="DejaVuSans-70" d="M 1159 525 
L 1159 -1331 
L 581 -1331 
L 581 3500 
L 1159 3500 
L 1159 2969 
Q 1341 3281 1617 3432 
Q 1894 3584 2278 3584 
Q 2916 3584 3314 3078 
Q 3713 2572 3713 1747 
Q 3713 922 3314 415 
Q 2916 -91 2278 -91 
Q 1894 -91 1617 61 
Q 1341 213 1159 525 
z
M 3116 1747 
Q 3116 2381 2855 2742 
Q 2594 3103 2138 3103 
Q 1681 3103 1420 2742 
Q 1159 2381 1159 1747 
Q 1159 1113 1420 752 
Q 1681 391 2138 391 
Q 2594 391 2855 752 
Q 3116 1113 3116 1747 
z
" transform="scale(0.015625)"/>
       <path id="DejaVuSans-72" d="M 2631 2963 
Q 2534 3019 2420 3045 
Q 2306 3072 2169 3072 
Q 1681 3072 1420 2755 
Q 1159 2438 1159 1844 
L 1159 0 
L 581 0 
L 581 3500 
L 1159 3500 
L 1159 2956 
Q 1341 3275 1631 3429 
Q 1922 3584 2338 3584 
Q 2397 3584 2469 3576 
Q 2541 3569 2628 3553 
L 2631 2963 
z
" transform="scale(0.015625)"/>
       <path id="DejaVuSans-61" d="M 2194 1759 
Q 1497 1759 1228 1600 
Q 959 1441 959 1056 
Q 959 750 1161 570 
Q 1363 391 1709 391 
Q 2188 391 2477 730 
Q 2766 1069 2766 1631 
L 2766 1759 
L 2194 1759 
z
M 3341 1997 
L 3341 0 
L 2766 0 
L 2766 531 
Q 2569 213 2275 61 
Q 1981 -91 1556 -91 
Q 1019 -91 701 211 
Q 384 513 384 1019 
Q 384 1609 779 1909 
Q 1175 2209 1959 2209 
L 2766 2209 
L 2766 2266 
Q 2766 2663 2505 2880 
Q 2244 3097 1772 3097 
Q 1472 3097 1187 3025 
Q 903 2953 641 2809 
L 641 3341 
Q 956 3463 1253 3523 
Q 1550 3584 1831 3584 
Q 2591 3584 2966 3190 
Q 3341 2797 3341 1997 
z
" transform="scale(0.015625)"/>
       <path id="DejaVuSans-75" d="M 544 1381 
L 544 3500 
L 1119 3500 
L 1119 1403 
Q 1119 906 1312 657 
Q 1506 409 1894 409 
Q 2359 409 2629 706 
Q 2900 1003 2900 1516 
L 2900 3500 
L 3475 3500 
L 3475 0 
L 2900 0 
L 2900 538 
Q 2691 219 2414 64 
Q 2138 -91 1772 -91 
Q 1169 -91 856 284 
Q 544 659 544 1381 
z
M 1991 3584 
L 1991 3584 
z
" transform="scale(0.015625)"/>
       <path id="DejaVuSans-43" d="M 4122 4306 
L 4122 3641 
Q 3803 3938 3442 4084 
Q 3081 4231 2675 4231 
Q 1875 4231 1450 3742 
Q 1025 3253 1025 2328 
Q 1025 1406 1450 917 
Q 1875 428 2675 428 
Q 3081 428 3442 575 
Q 3803 722 4122 1019 
L 4122 359 
Q 3791 134 3420 21 
Q 3050 -91 2638 -91 
Q 1578 -91 968 557 
Q 359 1206 359 2328 
Q 359 3453 968 4101 
Q 1578 4750 2638 4750 
Q 3056 4750 3426 4639 
Q 3797 4528 4122 4306 
z
" transform="scale(0.015625)"/>
      </defs>
      <use xlink:href="#DejaVuSans-74"/>
      <use xlink:href="#DejaVuSans-65" transform="translate(39.208984 0)"/>
      <use xlink:href="#DejaVuSans-6d" transform="translate(100.732422 0)"/>
      <use xlink:href="#DejaVuSans-70" transform="translate(198.144531 0)"/>
      <use xlink:href="#DejaVuSans-65" transform="translate(261.621094 0)"/>
      <use xlink:href="#DejaVuSans-72" transform="translate(323.144531 0)"/>
      <use xlink:href="#DejaVuSans-61" transform="translate(364.257812 0)"/>
      <use xlink:href="#DejaVuSans-74" transform="translate(425.537109 0)"/>
      <use xlink:href="#DejaVuSans-75" transform="translate(464.746094 0)"/>
      <use xlink:href="#DejaVuSans-72" transform="translate(528.125 0)"/>
      <use xlink:href="#DejaVuSans-65" transform="translate(566.988281 0)"/>
      <use xlink:href="#DejaVuSans-20" transform="translate(628.511719 0)"/>
      <use xlink:href="#DejaVuSans-28" transform="translate(660.298828 0)"/>
      <use xlink:href="#DejaVuSans-43" transform="translate(699.3125 0)"/>
      <use xlink:href="#DejaVuSans-29" transform="translate(769.136719 0)"/>
     </g>
    </g>
   </g>
   <g id="line2d_33">
    <path d="M 76.864414 117.910693 
L 81.599008 122.391094 
L 86.333602 129.254301 
L 91.068195 135.845724 
L 91.068195 135.845724 
L 95.802789 142.176127 
L 100.537383 148.255846 
L 107.639273 156.927 
L 114.741163 165.088221 
L 121.843054 172.769496 
L 128.944944 179.999052 
L 136.046835 186.803451 
L 143.148725 193.207697 
L 147.883319 176.784733 
L 152.617913 161.012117 
L 157.352506 145.864097 
L 162.0871 131.315939 
L 166.821693 117.343888 
L 171.556287 103.92513 
L 176.290881 91.037755 
L 181.025474 99.142554 
L 185.760068 106.926402 
L 190.494662 114.402011 
L 195.229255 121.581585 
L 199.963849 128.476848 
L 204.698443 135.099059 
L 209.433036 141.45903 
L 214.16763 133.485885 
L 218.902224 125.828477 
L 223.636817 118.474303 
L 228.371411 111.411353 
L 230.738708 107.985466 
L 235.473301 115.419136 
L 240.207895 122.558432 
L 240.207895 122.558432 
L 244.942489 129.415011 
L 249.677082 136.000071 
L 254.411676 142.324362 
L 259.146269 148.398211 
L 266.24816 157.060993 
L 273.35005 165.214333 
L 278.084644 151.18002 
L 282.819238 137.701466 
L 287.553831 124.756663 
L 292.288425 112.324474 
L 297.023019 100.384599 
L 301.757612 88.917544 
L 304.124909 83.355443 
L 308.859503 91.764461 
L 313.594096 99.840482 
L 318.32869 107.596693 
L 323.063284 115.045758 
L 327.797877 122.199839 
L 332.532471 129.070619 
L 337.267065 135.669317 
L 342.001658 142.006706 
L 346.736252 148.093134 
L 353.838142 156.773856 
L 360.940033 164.944083 
L 368.041923 172.633835 
L 375.143814 179.871368 
L 382.245704 186.683277 
L 389.347595 193.09459 
L 396.449485 199.128867 
L 403.551376 204.80828 
L 405.918672 206.626203 
L 410.653266 189.671865 
L 415.38786 173.388919 
L 420.122453 157.750778 
L 424.857047 142.731907 
L 429.591641 128.307784 
L 434.326234 114.454856 
L 439.060828 101.150503 
L 441.428125 94.697221 
L 446.162718 102.657105 
L 450.897312 110.301777 
L 455.631906 117.64372 
L 460.366499 124.694923 
L 465.101093 131.466898 
L 469.835686 137.970702 
L 474.57028 144.216956 
L 479.304874 150.215859 
L 486.406764 158.771748 
L 493.508655 166.824483 
L 500.610545 174.403652 
L 505.345139 179.207161 
L 510.079732 160.778389 
L 514.814326 143.079395 
L 519.54892 126.081282 
L 524.283513 132.798357 
L 529.018107 139.249436 
L 533.752701 145.445052 
L 533.752701 145.445052 
" clip-path="url(#p3eb06596ce)" style="fill: none; stroke: #1f77b4; stroke-width: 1.5; stroke-linecap: square"/>
   </g>
   <g id="line2d_34">
    <path d="M 76.864414 117.910693 
L 81.599008 105.109547 
L 86.333602 92.815326 
L 91.068195 81.007957 
L 91.068195 81.007957 
L 95.802789 67.10793 
L 100.537383 56.318573 
L 105.271976 45.956475 
L 110.00657 36.004716 
L 114.741163 46.288823 
L 119.475757 56.165679 
L 124.210351 65.651412 
L 128.944944 74.76151 
L 133.679538 83.510848 
L 138.414132 91.913712 
L 143.148725 99.983823 
L 147.883319 107.734357 
L 152.617913 115.177971 
L 157.352506 122.326817 
L 162.0871 129.192569 
L 166.821693 135.786437 
L 171.556287 142.119188 
L 176.290881 148.201162 
L 183.392771 156.875531 
L 190.494662 165.039779 
L 197.596552 172.723903 
L 204.698443 179.95614 
L 209.433036 184.53977 
L 214.16763 170.380227 
L 218.902224 156.781402 
L 223.636817 143.721091 
L 228.371411 131.177967 
L 230.738708 125.093919 
L 235.473301 99.207171 
L 240.207895 74.345539 
L 240.207895 74.345539 
L 247.309785 66.451827 
L 252.044379 61.448967 
L 256.778973 70.725482 
L 261.513566 79.634647 
L 266.24816 88.191008 
L 270.982754 96.408538 
L 275.717347 104.300654 
L 280.451941 111.880242 
L 285.186534 119.159678 
L 289.921128 126.150849 
L 294.655722 132.865169 
L 299.390315 139.313602 
L 304.124909 145.506677 
L 311.2268 154.339504 
L 318.32869 162.65289 
L 325.43058 170.477383 
L 332.532471 177.841733 
L 339.634361 184.773 
L 346.736252 191.296653 
L 353.838142 197.436663 
L 360.940033 203.215591 
L 368.041923 208.654672 
L 370.40922 210.395667 
L 375.143814 193.932116 
L 379.878407 178.120521 
L 384.613001 162.935066 
L 389.347595 148.350955 
L 394.082188 134.344374 
L 398.816782 120.892454 
L 403.551376 107.973231 
L 405.918672 101.706755 
L 410.653266 109.389061 
L 415.38786 116.767148 
L 420.122453 123.853063 
L 424.857047 130.658375 
L 429.591641 137.194197 
L 434.326234 143.471201 
L 439.060828 149.499635 
L 446.162718 158.097644 
L 453.264609 166.190022 
L 460.366499 173.806503 
L 467.46839 180.975073 
L 474.57028 187.722075 
L 476.937577 189.881721 
L 481.672171 171.670293 
L 486.406764 154.180038 
L 491.141358 137.382396 
L 495.875951 143.651947 
L 500.610545 149.673224 
L 507.712436 158.261025 
L 514.814326 166.343794 
L 521.916217 173.951232 
L 529.018107 181.111292 
L 533.752701 185.649178 
L 533.752701 185.649178 
" clip-path="url(#p3eb06596ce)" style="fill: none; stroke: #ff7f0e; stroke-width: 1.5; stroke-linecap: square"/>
   </g>
   <g id="line2d_35">
    <path d="M 76.864414 117.910693 
L 81.599008 124.951323 
L 86.333602 129.152916 
L 91.068195 135.748354 
L 91.068195 135.748354 
L 95.802789 142.082613 
L 100.537383 148.166035 
L 107.639273 156.842471 
L 114.741163 165.008662 
L 121.843054 172.694617 
L 128.944944 179.928575 
L 136.046835 186.737119 
L 143.148725 193.145266 
L 150.250616 199.176563 
L 157.352506 204.853172 
L 164.454397 210.19595 
L 171.556287 215.22453 
L 176.290881 218.411533 
L 181.025474 200.990496 
L 185.760068 184.259332 
L 190.494662 168.190723 
L 195.229255 152.75843 
L 199.963849 137.937257 
L 204.698443 123.703001 
L 209.433036 110.032422 
L 214.16763 117.385032 
L 218.902224 124.446479 
L 223.636817 131.228292 
L 228.371411 137.741546 
L 233.106004 143.996874 
L 237.840598 150.004492 
L 244.942489 158.572811 
L 252.044379 166.637245 
L 256.778973 157.667043 
L 261.513566 149.052061 
L 266.24816 140.778233 
L 270.982754 132.832048 
L 273.35005 128.977747 
L 278.084644 135.580122 
L 282.819238 141.921043 
L 287.553831 148.010863 
L 294.655722 156.696424 
L 301.757612 164.871205 
L 304.124909 167.487868 
L 308.859503 153.363523 
L 313.594096 139.798502 
L 318.32869 126.770656 
L 323.063284 114.258713 
L 327.797877 102.242243 
L 332.532471 90.701625 
L 334.899768 85.103842 
L 339.634361 93.443624 
L 344.368955 101.45315 
L 349.103549 109.145499 
L 353.838142 116.533231 
L 358.572736 123.628409 
L 363.30733 130.442618 
L 368.041923 136.986984 
L 372.776517 143.272193 
L 377.51111 149.308508 
L 384.613001 157.917757 
L 391.714891 166.020713 
L 398.816782 173.647151 
L 405.918672 180.825093 
L 413.020563 187.580914 
L 420.122453 193.93944 
L 427.224344 199.924033 
L 434.326234 205.556684 
L 441.428125 210.85809 
L 446.162718 193.73617 
L 450.897312 177.292278 
L 455.631906 161.499563 
L 460.366499 146.332241 
L 465.101093 131.765544 
L 469.835686 117.775689 
L 474.57028 104.339831 
L 476.937577 97.822762 
L 481.672171 105.658874 
L 486.406764 113.184677 
L 491.141358 120.412457 
L 495.875951 127.354018 
L 500.610545 134.020693 
L 505.345139 140.423367 
L 510.079732 146.572495 
L 517.181623 155.342644 
L 519.54892 158.149879 
L 524.283513 140.554974 
L 529.018107 123.656828 
L 533.752701 107.427849 
L 533.752701 107.427849 
" clip-path="url(#p3eb06596ce)" style="fill: none; stroke: #2ca02c; stroke-width: 1.5; stroke-linecap: square"/>
   </g>
   <g id="line2d_36">
    <path d="M 76.864414 117.910693 
L 81.599008 124.951323 
L 86.333602 131.713145 
L 91.068195 135.646969 
L 91.068195 135.646969 
L 95.802789 141.985243 
L 100.537383 148.072521 
L 107.639273 156.754456 
L 110.00657 159.533454 
L 114.741163 145.084047 
L 119.475757 131.206836 
L 124.210351 117.879163 
L 128.944944 105.079265 
L 133.679538 92.786244 
L 138.414132 80.980026 
L 143.148725 69.641334 
L 147.883319 78.593431 
L 152.617913 87.191025 
L 157.352506 95.448154 
L 162.0871 103.378301 
L 166.821693 110.994414 
L 171.556287 118.308929 
L 176.290881 125.333789 
L 181.025474 132.080465 
L 185.760068 138.559972 
L 190.494662 144.782891 
L 197.596552 153.658283 
L 204.698443 162.01173 
L 211.800333 169.873928 
L 218.902224 177.273766 
L 226.004114 184.238434 
L 233.106004 190.793524 
L 240.207895 196.963122 
L 240.207895 196.963122 
L 244.942489 182.311614 
L 249.677082 168.240306 
L 254.411676 154.726222 
L 259.146269 141.747296 
L 263.880863 129.282335 
L 268.615457 117.310986 
L 270.982754 111.504278 
L 275.717347 118.798602 
L 280.451941 125.804071 
L 285.186534 132.532124 
L 289.921128 138.993745 
L 294.655722 145.199487 
L 301.757612 154.050379 
L 308.859503 162.380768 
L 315.961393 170.221264 
L 323.063284 177.600675 
L 330.165174 184.546118 
L 334.899768 188.947986 
L 339.634361 173.97382 
L 344.368955 159.592632 
L 349.103549 145.780938 
L 353.838142 132.516188 
L 358.572736 119.776721 
L 363.30733 107.541738 
L 368.041923 95.79126 
L 370.40922 90.091684 
L 375.143814 98.233947 
L 379.878407 106.053777 
L 384.613001 113.563941 
L 389.347595 120.776703 
L 394.082188 127.703839 
L 398.816782 134.356661 
L 403.551376 140.746031 
L 408.285969 146.882382 
L 415.38786 155.634306 
L 422.48975 163.871548 
L 429.591641 171.624374 
L 436.693531 178.921271 
L 443.795421 185.789053 
L 450.897312 192.252954 
L 457.999202 198.336726 
L 465.101093 204.062723 
L 472.202983 209.451986 
L 479.304874 214.524318 
L 486.406764 219.298355 
L 491.141358 222.324034 
L 495.875951 202.82789 
L 500.610545 184.103794 
L 505.345139 166.121172 
L 512.447029 173.741702 
L 519.54892 180.914084 
L 526.65081 187.664672 
L 533.752701 194.018271 
L 533.752701 194.018271 
" clip-path="url(#p3eb06596ce)" style="fill: none; stroke: #d62728; stroke-width: 1.5; stroke-linecap: square"/>
   </g>
   <g id="line2d_37">
    <path d="M 76.864414 117.910693 
L 81.599008 105.109547 
L 86.333602 92.815326 
L 91.068195 81.007957 
L 91.068195 81.007957 
L 95.802789 67.10793 
L 100.537383 56.318573 
L 105.271976 45.956475 
L 110.00657 36.004716 
L 114.741163 46.288823 
L 119.475757 56.165679 
L 124.210351 65.651412 
L 128.944944 74.76151 
L 133.679538 83.510848 
L 136.046835 86.823507 
L 140.781428 75.253414 
L 143.148725 69.641334 
L 147.883319 78.593431 
L 152.617913 87.191025 
L 157.352506 95.448154 
L 162.0871 103.378301 
L 166.821693 110.994414 
L 169.18899 110.566738 
L 173.923584 97.416355 
L 176.290881 91.037755 
L 181.025474 99.142554 
L 185.760068 106.926402 
L 190.494662 114.402011 
L 195.229255 121.581585 
L 199.963849 128.476848 
L 202.331146 130.748239 
L 207.065739 116.798669 
L 209.433036 110.032422 
L 214.16763 117.385032 
L 218.902224 124.446479 
L 221.26952 122.114248 
L 226.004114 114.907156 
L 230.738708 107.985466 
L 233.106004 111.739845 
L 240.207895 74.345539 
L 240.207895 74.345539 
L 247.309785 66.451827 
L 252.044379 61.448967 
L 256.778973 70.725482 
L 261.513566 79.634647 
L 266.24816 88.191008 
L 270.982754 96.408538 
L 275.717347 104.300654 
L 280.451941 111.880242 
L 285.186534 119.159678 
L 287.553831 122.690572 
L 289.921128 118.477779 
L 294.655722 106.294234 
L 299.390315 94.593157 
L 304.124909 83.355443 
L 308.859503 91.764461 
L 313.594096 99.840482 
L 318.32869 107.596693 
L 320.695987 111.358847 
L 323.063284 114.258713 
L 327.797877 102.242243 
L 332.532471 90.701625 
L 334.899768 85.103842 
L 339.634361 93.443624 
L 344.368955 101.45315 
L 349.103549 109.145499 
L 353.838142 116.533231 
L 356.205439 120.116654 
L 358.572736 119.776721 
L 363.30733 107.541738 
L 368.041923 95.79126 
L 370.40922 90.091684 
L 375.143814 98.233947 
L 379.878407 106.053777 
L 384.613001 113.563941 
L 389.347595 120.776703 
L 394.082188 127.703839 
L 396.449485 127.550475 
L 401.184079 114.367594 
L 405.918672 101.706755 
L 410.653266 109.389061 
L 415.38786 116.767148 
L 420.122453 123.853063 
L 424.857047 130.658375 
L 427.224344 133.959295 
L 429.591641 128.307784 
L 434.326234 114.454856 
L 439.060828 101.150503 
L 441.428125 94.697221 
L 446.162718 102.657105 
L 450.897312 110.301777 
L 455.631906 117.64372 
L 460.366499 124.694923 
L 465.101093 131.466898 
L 476.937577 97.822762 
L 481.672171 105.658874 
L 486.406764 113.184677 
L 491.141358 120.412457 
L 495.875951 127.354018 
L 500.610545 134.020693 
L 505.345139 140.423367 
L 510.079732 146.572495 
L 512.447029 149.555133 
L 514.814326 143.079395 
L 519.54892 126.081282 
L 524.283513 132.798357 
L 526.65081 132.020557 
L 531.385404 115.460374 
L 533.752701 107.427849 
L 533.752701 107.427849 
" clip-path="url(#p3eb06596ce)" style="fill: none; stroke: #9467bd; stroke-width: 2.2; stroke-linecap: square"/>
   </g>
   <g id="patch_3">
    <path d="M 54.02 231.64 
L 54.02 26.68875 
" style="fill: none; stroke: #000000; stroke-width: 0.8; stroke-linejoin: miter; stroke-linecap: square"/>
   </g>
   <g id="patch_4">
    <path d="M 556.597115 231.64 
L 556.597115 26.68875 
" style="fill: none; stroke: #000000; stroke-width: 0.8; stroke-linejoin: miter; stroke-linecap: square"/>
   </g>
   <g id="patch_5">
    <path d="M 54.02 231.64 
L 556.597115 231.64 
" style="fill: none; stroke: #000000; stroke-width: 0.8; stroke-linejoin: miter; stroke-linecap: square"/>
   </g>
   <g id="patch_6">
    <path d="M 54.02 26.68875 
L 556.597115 26.68875 
" style="fill: none; stroke: #000000; stroke-width: 0.8; stroke-linejoin: miter; stroke-linecap: square"/>
   </g>
   <g id="text_19">
    <!-- ptv_aware temperature trace -->
    <g transform="translate(217.300745 20.68875) scale(0.12 -0.12)">
     <defs>
      <path id="DejaVuSans-76" d="M 191 3500 
L 800 3500 
L 1894 563 
L 2988 3500 
L 3597 3500 
L 2284 0 
L 1503 0 
L 191 3500 
z
" transform="scale(0.015625)"/>
      <path id="DejaVuSans-5f" d="M 3263 -1063 
L 3263 -1509 
L -63 -1509 
L -63 -1063 
L 3263 -1063 
z
" transform="scale(0.015625)"/>
      <path id="DejaVuSans-77" d="M 269 3500 
L 844 3500 
L 1563 769 
L 2278 3500 
L 2956 3500 
L 3675 769 
L 4391 3500 
L 4966 3500 
L 4050 0 
L 3372 0 
L 2619 2869 
L 1863 0 
L 1184 0 
L 269 3500 
z
" transform="scale(0.015625)"/>
      <path id="DejaVuSans-63" d="M 3122 3366 
L 3122 2828 
Q 2878 2963 2633 3030 
Q 2388 3097 2138 3097 
Q 1578 3097 1268 2742 
Q 959 2388 959 1747 
Q 959 1106 1268 751 
Q 1578 397 2138 397 
Q 2388 397 2633 464 
Q 2878 531 3122 666 
L 3122 134 
Q 2881 22 2623 -34 
Q 2366 -91 2075 -91 
Q 1284 -91 818 406 
Q 353 903 353 1747 
Q 353 2603 823 3093 
Q 1294 3584 2113 3584 
Q 2378 3584 2631 3529 
Q 2884 3475 3122 3366 
z
" transform="scale(0.015625)"/>
     </defs>
     <use xlink:href="#DejaVuSans-70"/>
     <use xlink:href="#DejaVuSans-74" transform="translate(63.476562 0)"/>
     <use xlink:href="#DejaVuSans-76" transform="translate(102.685547 0)"/>
     <use xlink:href="#DejaVuSans-5f" transform="translate(161.865234 0)"/>
     <use xlink:href="#DejaVuSans-61" transform="translate(211.865234 0)"/>
     <use xlink:href="#DejaVuSans-77" transform="translate(273.144531 0)"/>
     <use xlink:href="#DejaVuSans-61" transform="translate(354.931641 0)"/>
     <use xlink:href="#DejaVuSans-72" transform="translate(416.210938 0)"/>
     <use xlink:href="#DejaVuSans-65" transform="translate(455.074219 0)"/>
     <use xlink:href="#DejaVuSans-20" transform="translate(516.597656 0)"/>
     <use xlink:href="#DejaVuSans-74" transform="translate(548.384766 0)"/>
     <use xlink:href="#DejaVuSans-65" transform="translate(587.59375 0)"/>
     <use xlink:href="#DejaVuSans-6d" transform="translate(649.117188 0)"/>
     <use xlink:href="#DejaVuSans-70" transform="translate(746.529297 0)"/>
     <use xlink:href="#DejaVuSans-65" transform="translate(810.005859 0)"/>
     <use xlink:href="#DejaVuSans-72" transform="translate(871.529297 0)"/>
     <use xlink:href="#DejaVuSans-61" transform="translate(912.642578 0)"/>
     <use xlink:href="#DejaVuSans-74" transform="translate(973.921875 0)"/>
     <use xlink:href="#DejaVuSans-75" transform="translate(1013.130859 0)"/>
     <use xlink:href="#DejaVuSans-72" transform="translate(1076.509766 0)"/>
     <use xlink:href="#DejaVuSans-65" transform="translate(1115.373047 0)"/>
     <use xlink:href="#DejaVuSans-20" transform="translate(1176.896484 0)"/>
     <use xlink:href="#DejaVuSans-74" transform="translate(1208.683594 0)"/>
     <use xlink:href="#DejaVuSans-72" transform="translate(1247.892578 0)"/>
     <use xlink:href="#DejaVuSans-61" transform="translate(1289.005859 0)"/>
     <use xlink:href="#DejaVuSans-63" transform="translate(1350.285156 0)"/>
     <use xlink:href="#DejaVuSans-65" transform="translate(1405.265625 0)"/>
    </g>
   </g>
   <g id="legend_1">
    <g id="patch_7">
     <path d="M 451.579615 92.91375 
L 550.997115 92.91375 
Q 552.597115 92.91375 552.597115 91.31375 
L 552.597115 32.28875 
Q 552.597115 30.68875 550.997115 30.68875 
L 451.579615 30.68875 
Q 449.979615 30.68875 449.979615 32.28875 
L 449.979615 91.31375 
Q 449.979615 92.91375 451.579615 92.91375 
z
" style="fill: #ffffff; opacity: 0.8; stroke: #cccccc; stroke-linejoin: miter"/>
    </g>
    <g id="line2d_38">
     <path d="M 453.179615 37.1675 
L 461.179615 37.1675 
L 469.179615 37.1675 
" style="fill: none; stroke: #1f77b4; stroke-width: 1.5; stroke-linecap: square"/>
    </g>
    <g id="text_20">
     <!-- die_0 -->
     <g transform="translate(475.579615 39.9675) scale(0.08 -0.08)">
      <defs>
       <path id="DejaVuSans-64" d="M 2906 2969 
L 2906 4863 
L 3481 4863 
L 3481 0 
L 2906 0 
L 2906 525 
Q 2725 213 2448 61 
Q 2172 -91 1784 -91 
Q 1150 -91 751 415 
Q 353 922 353 1747 
Q 353 2572 751 3078 
Q 1150 3584 1784 3584 
Q 2172 3584 2448 3432 
Q 2725 3281 2906 2969 
z
M 947 1747 
Q 947 1113 1208 752 
Q 1469 391 1925 391 
Q 2381 391 2643 752 
Q 2906 1113 2906 1747 
Q 2906 2381 2643 2742 
Q 2381 3103 1925 3103 
Q 1469 3103 1208 2742 
Q 947 2381 947 1747 
z
" transform="scale(0.015625)"/>
      </defs>
      <use xlink:href="#DejaVuSans-64"/>
      <use xlink:href="#DejaVuSans-69" transform="translate(63.476562 0)"/>
      <use xlink:href="#DejaVuSans-65" transform="translate(91.259766 0)"/>
      <use xlink:href="#DejaVuSans-5f" transform="translate(152.783203 0)"/>
      <use xlink:href="#DejaVuSans-30" transform="translate(202.783203 0)"/>
     </g>
    </g>
    <g id="line2d_39">
     <path d="M 453.179615 49.1325 
L 461.179615 49.1325 
L 469.179615 49.1325 
" style="fill: none; stroke: #ff7f0e; stroke-width: 1.5; stroke-linecap: square"/>
    </g>
    <g id="text_21">
     <!-- die_1 -->
     <g transform="translate(475.579615 51.9325) scale(0.08 -0.08)">
      <use xlink:href="#DejaVuSans-64"/>
      <use xlink:href="#DejaVuSans-69" transform="translate(63.476562 0)"/>
      <use xlink:href="#DejaVuSans-65" transform="translate(91.259766 0)"/>
      <use xlink:href="#DejaVuSans-5f" transform="translate(152.783203 0)"/>
      <use xlink:href="#DejaVuSans-31" transform="translate(202.783203 0)"/>
     </g>
    </g>
    <g id="line2d_40">
     <path d="M 453.179615 61.0975 
L 461.179615 61.0975 
L 469.179615 61.0975 
" style="fill: none; stroke: #2ca02c; stroke-width: 1.5; stroke-linecap: square"/>
    </g>
    <g id="text_22">
     <!-- die_2 -->
     <g transform="translate(475.579615 63.8975) scale(0.08 -0.08)">
      <use xlink:href="#DejaVuSans-64"/>
      <use xlink:href="#DejaVuSans-69" transform="translate(63.476562 0)"/>
      <use xlink:href="#DejaVuSans-65" transform="translate(91.259766 0)"/>
      <use xlink:href="#DejaVuSans-5f" transform="translate(152.783203 0)"/>
      <use xlink:href="#DejaVuSans-32" transform="translate(202.783203 0)"/>
     </g>
    </g>
    <g id="line2d_41">
     <path d="M 453.179615 73.0625 
L 461.179615 73.0625 
L 469.179615 73.0625 
" style="fill: none; stroke: #d62728; stroke-width: 1.5; stroke-linecap: square"/>
    </g>
    <g id="text_23">
     <!-- die_3 -->
     <g transform="translate(475.579615 75.8625) scale(0.08 -0.08)">
      <use xlink:href="#DejaVuSans-64"/>
      <use xlink:href="#DejaVuSans-69" transform="translate(63.476562 0)"/>
      <use xlink:href="#DejaVuSans-65" transform="translate(91.259766 0)"/>
      <use xlink:href="#DejaVuSans-5f" transform="translate(152.783203 0)"/>
      <use xlink:href="#DejaVuSans-33" transform="translate(202.783203 0)"/>
     </g>
    </g>
    <g id="line2d_42">
     <path d="M 453.179615 85.0275 
L 461.179615 85.0275 
L 469.179615 85.0275 
" style="fill: none; stroke: #9467bd; stroke-width: 2.2; stroke-linecap: square"/>
    </g>
    <g id="text_24">
     <!-- peak_temperature -->
     <g transform="translate(475.579615 87.8275) scale(0.08 -0.08)">
      <defs>
       <path id="DejaVuSans-6b" d="M 581 4863 
L 1159 4863 
L 1159 1991 
L 2875 3500 
L 3609 3500 
L 1753 1863 
L 3688 0 
L 2938 0 
L 1159 1709 
L 1159 0 
L 581 0 
L 581 4863 
z
" transform="scale(0.015625)"/>
      </defs>
      <use xlink:href="#DejaVuSans-70"/>
      <use xlink:href="#DejaVuSans-65" transform="translate(63.476562 0)"/>
      <use xlink:href="#DejaVuSans-61" transform="translate(125 0)"/>
      <use xlink:href="#DejaVuSans-6b" transform="translate(186.279297 0)"/>
      <use xlink:href="#DejaVuSans-5f" transform="translate(244.189453 0)"/>
      <use xlink:href="#DejaVuSans-74" transform="translate(294.189453 0)"/>
      <use xlink:href="#DejaVuSans-65" transform="translate(333.398438 0)"/>
      <use xlink:href="#DejaVuSans-6d" transform="translate(394.921875 0)"/>
      <use xlink:href="#DejaVuSans-70" transform="translate(492.333984 0)"/>
      <use xlink:href="#DejaVuSans-65" transform="translate(555.810547 0)"/>
      <use xlink:href="#DejaVuSans-72" transform="translate(617.333984 0)"/>
      <use xlink:href="#DejaVuSans-61" transform="translate(658.447266 0)"/>
      <use xlink:href="#DejaVuSans-74" transform="translate(719.726562 0)"/>
      <use xlink:href="#DejaVuSans-75" transform="translate(758.935547 0)"/>
      <use xlink:href="#DejaVuSans-72" transform="translate(822.314453 0)"/>
      <use xlink:href="#DejaVuSans-65" transform="translate(861.177734 0)"/>
     </g>
    </g>
   </g>
  </g>
 </g>
 <defs>
  <clipPath id="p3eb06596ce">
   <rect x="54.02" y="26.68875" width="502.577115" height="204.95125"/>
  </clipPath>
 </defs>
</svg>
