<?xml version="1.0" encoding="utf-8" standalone="no"?>
<!DOCTYPE svg PUBLIC "-//W3C//DTD SVG 1.1//EN"
  "http://www.w3.org/Graphics/SVG/1.1/DTD/svg11.dtd">
<svg xmlns:xlink="http://www.w3.org/1999/xlink" width="576pt" height="273.6pt" viewBox="0 0 576 273.6" xmlns="http://www.w3.org/2000/svg" version="1.1">
 <metadata>
  <rdf:RDF xmlns:dc="http://purl.org/dc/elements/1.1/" xmlns:cc="http://creativecommons.org/ns#" xmlns:rdf="http://www.w3.org/1999/02/22-rdf-syntax-ns#">
   <cc:Work>
    <dc:type rdf:resource="http://purl.org/dc/dcmitype/StillImage"/>
    <dc:date>2026-05-17T10:15:00.895754</dc:date>
    <dc:format>image/svg+xml</dc:format>
    <dc:creator>
     <cc:Agent>
      <dc:title>Matplotlib v3.10.9, https://matplotlib.org/</dc:title>
     </cc:Agent>
    </dc:creator>
   </cc:Work>
  </rdf:RDF>
 </metadata>
 <defs>
  <style type="text/css">*{stroke-linejoin: round; stroke-linecap: butt}</style>
 </defs>
 <g id="figure_1">
  <g id="patch_1">
   <path d="M 0 273.6 
L 576 273.6 
L 576 0 
L 0 0 
z
" style="fill: #ffffff"/>
  </g>
  <g id="axes_1">
   <g id="patch_2">
    <path d="M 62.425606 231.64 
L 528.783476 231.64 
L 528.783476 26.88 
L 62.425606 26.88 
z
" style="fill: #ffffff"/>
   </g>
   <g id="patch_3">
    <path d="M 62.425606 222.332727 
L 65.036111 222.332727 
L 65.036111 193.493291 
L 62.425606 193.493291 
z
" clip-path="url(#p931ebee002)" style="fill: #1f77b4"/>
   </g>
   <g id="patch_4">
    <path d="M 65.036111 222.332727 
L 89.174347 222.332727 
L 89.174347 193.493291 
L 65.036111 193.493291 
z
" clip-path="url(#p931ebee002)" style="fill: #ff7f0e"/>
   </g>
   <g id="patch_5">
    <path d="M 89.174347 222.332727 
L 96.498067 222.332727 
L 96.498067 193.493291 
L 89.174347 193.493291 
z
" clip-path="url(#p931ebee002)" style="fill: #2ca02c"/>
   </g>
   <g id="patch_6">
    <path d="M 96.498067 222.332727 
L 160.866696 222.332727 
L 160.866696 193.493291 
L 96.498067 193.493291 
z
" clip-path="url(#p931ebee002)" style="fill: #d62728"/>
   </g>
   <g id="patch_7">
    <path d="M 160.866696 222.332727 
L 163.563026 222.332727 
L 163.563026 193.493291 
L 160.866696 193.493291 
z
" clip-path="url(#p931ebee002)" style="fill: #9467bd"/>
   </g>
   <g id="patch_8">
    <path d="M 163.563026 169.897388 
L 166.795762 169.897388 
L 166.795762 141.057951 
L 163.563026 141.057951 
z
" clip-path="url(#p931ebee002)" style="fill: #8c564b"/>
   </g>
   <g id="patch_9">
    <path d="M 166.795762 169.897388 
L 170.386101 169.897388 
L 170.386101 141.057951 
L 166.795762 141.057951 
z
" clip-path="url(#p931ebee002)" style="fill: #e377c2"/>
   </g>
   <g id="patch_10">
    <path d="M 170.386101 169.897388 
L 198.279174 169.897388 
L 198.279174 141.057951 
L 170.386101 141.057951 
z
" clip-path="url(#p931ebee002)" style="fill: #7f7f7f"/>
   </g>
   <g id="patch_11">
    <path d="M 198.279174 169.897388 
L 207.433823 169.897388 
L 207.433823 141.057951 
L 198.279174 141.057951 
z
" clip-path="url(#p931ebee002)" style="fill: #bcbd22"/>
   </g>
   <g id="patch_12">
    <path d="M 207.433823 169.897388 
L 300.410732 169.897388 
L 300.410732 141.057951 
L 207.433823 141.057951 
z
" clip-path="url(#p931ebee002)" style="fill: #17becf"/>
   </g>
   <g id="patch_13">
    <path d="M 300.410732 169.897388 
L 303.736445 169.897388 
L 303.736445 141.057951 
L 300.410732 141.057951 
z
" clip-path="url(#p931ebee002)" style="fill: #1f77b4"/>
   </g>
   <g id="patch_14">
    <path d="M 303.736445 117.462049 
L 306.661641 117.462049 
L 306.661641 88.622612 
L 303.736445 88.622612 
z
" clip-path="url(#p931ebee002)" style="fill: #ff7f0e"/>
   </g>
   <g id="patch_15">
    <path d="M 306.661641 117.462049 
L 332.902586 117.462049 
L 332.902586 88.622612 
L 306.661641 88.622612 
z
" clip-path="url(#p931ebee002)" style="fill: #2ca02c"/>
   </g>
   <g id="patch_16">
    <path d="M 332.902586 117.462049 
L 361.324911 117.462049 
L 361.324911 88.622612 
L 332.902586 88.622612 
z
" clip-path="url(#p931ebee002)" style="fill: #d62728"/>
   </g>
   <g id="patch_17">
    <path d="M 361.324911 117.462049 
L 367.733166 117.462049 
L 367.733166 88.622612 
L 361.324911 88.622612 
z
" clip-path="url(#p931ebee002)" style="fill: #9467bd"/>
   </g>
   <g id="patch_18">
    <path d="M 367.733166 117.462049 
L 446.456 117.462049 
L 446.456 88.622612 
L 367.733166 88.622612 
z
" clip-path="url(#p931ebee002)" style="fill: #8c564b"/>
   </g>
   <g id="patch_19">
    <path d="M 446.456 117.462049 
L 449.474173 117.462049 
L 449.474173 88.622612 
L 446.456 88.622612 
z
" clip-path="url(#p931ebee002)" style="fill: #e377c2"/>
   </g>
   <g id="patch_20">
    <path d="M 449.474173 65.026709 
L 451.526817 65.026709 
L 451.526817 36.187273 
L 449.474173 36.187273 
z
" clip-path="url(#p931ebee002)" style="fill: #7f7f7f"/>
   </g>
   <g id="patch_21">
    <path d="M 451.526817 65.026709 
L 476.566214 65.026709 
L 476.566214 36.187273 
L 451.526817 36.187273 
z
" clip-path="url(#p931ebee002)" style="fill: #bcbd22"/>
   </g>
   <g id="patch_22">
    <path d="M 476.566214 65.026709 
L 526.645007 65.026709 
L 526.645007 36.187273 
L 476.566214 36.187273 
z
" clip-path="url(#p931ebee002)" style="fill: #17becf"/>
   </g>
   <g id="patch_23">
    <path d="M 526.645007 65.026709 
L 528.783476 65.026709 
L 528.783476 36.187273 
L 526.645007 36.187273 
z
" clip-path="url(#p931ebee002)" style="fill: #1f77b4"/>
   </g>
   <g id="matplotlib.axis_1">
    <g id="xtick_1">
     <g id="line2d_1">
      <path d="M 62.425606 231.64 
L 62.425606 26.88 
" clip-path="url(#p931ebee002)" style="fill: none; stroke: #b0b0b0; stroke-opacity: 0.3; stroke-width: 0.8; stroke-linecap: square"/>
     </g>
     <g id="line2d_2">
      <defs>
       <path id="maf65ad76fb" d="M 0 0 
L 0 3.5 
" style="stroke: #000000; stroke-width: 0.8"/>
      </defs>
      <g>
       <use xlink:href="#maf65ad76fb" x="62.425606" y="231.64" style="stroke: #000000; stroke-width: 0.8"/>
      </g>
     </g>
     <g id="text_1">
      <!-- 0.00 -->
      <g transform="translate(51.292793 246.238437) scale(0.1 -0.1)">
       <defs>
        <path id="DejaVuSans-30" d="M 2034 4250 
Q 1547 4250 1301 3770 
Q 1056 3291 1056 2328 
Q 1056 1369 1301 889 
Q 1547 409 2034 409 
Q 2525 409 2770 889 
Q 3016 1369 3016 2328 
Q 3016 3291 2770 3770 
Q 2525 4250 2034 4250 
z
M 2034 4750 
Q 2819 4750 3233 4129 
Q 3647 3509 3647 2328 
Q 3647 1150 3233 529 
Q 2819 -91 2034 -91 
Q 1250 -91 836 529 
Q 422 1150 422 2328 
Q 422 3509 836 4129 
Q 1250 4750 2034 4750 
z
" transform="scale(0.015625)"/>
        <path id="DejaVuSans-2e" d="M 684 794 
L 1344 794 
L 1344 0 
L 684 0 
L 684 794 
z
" transform="scale(0.015625)"/>
       </defs>
       <use xlink:href="#DejaVuSans-30"/>
       <use xlink:href="#DejaVuSans-2e" transform="translate(63.623047 0)"/>
       <use xlink:href="#DejaVuSans-30" transform="translate(95.410156 0)"/>
       <use xlink:href="#DejaVuSans-30" transform="translate(159.033203 0)"/>
      </g>
     </g>
    </g>
    <g id="xtick_2">
     <g id="line2d_3">
      <path d="M 133.946305 231.64 
L 133.946305 26.88 
" clip-path="url(#p931ebee002)" style="fill: none; stroke: #b0b0b0; stroke-opacity: 0.3; stroke-width: 0.8; stroke-linecap: square"/>
     </g>
     <g id="line2d_4">
      <g>
       <use xlink:href="#maf65ad76fb" x="133.946305" y="231.64" style="stroke: #000000; stroke-width: 0.8"/>
      </g>
     </g>
     <g id="text_2">
      <!-- 0.01 -->
      <g transform="translate(122.813492 246.238437) scale(0.1 -0.1)">
       <defs>
        <path id="DejaVuSans-31" d="M 794 531 
L 1825 531 
L 1825 4091 
L 703 3866 
L 703 4441 
L 1819 4666 
L 2450 4666 
L 2450 531 
L 3481 531 
L 3481 0 
L 794 0 
L 794 531 
z
" transform="scale(0.015625)"/>
       </defs>
       <use xlink:href="#DejaVuSans-30"/>
       <use xlink:href="#DejaVuSans-2e" transform="translate(63.623047 0)"/>
       <use xlink:href="#DejaVuSans-30" transform="translate(95.410156 0)"/>
       <use xlink:href="#DejaVuSans-31" transform="translate(159.033203 0)"/>
      </g>
     </g>
    </g>
    <g id="xtick_3">
     <g id="line2d_5">
      <path d="M 205.467004 231.64 
L 205.467004 26.88 
" clip-path="url(#p931ebee002)" style="fill: none; stroke: #b0b0b0; stroke-opacity: 0.3; stroke-width: 0.8; stroke-linecap: square"/>
     </g>
     <g id="line2d_6">
      <g>
       <use xlink:href="#maf65ad76fb" x="205.467004" y="231.64" style="stroke: #000000; stroke-width: 0.8"/>
      </g>
     </g>
     <g id="text_3">
      <!-- 0.02 -->
      <g transform="translate(194.334191 246.238437) scale(0.1 -0.1)">
       <defs>
        <path id="DejaVuSans-32" d="M 1228 531 
L 3431 531 
L 3431 0 
L 469 0 
L 469 531 
Q 828 903 1448 1529 
Q 2069 2156 2228 2338 
Q 2531 2678 2651 2914 
Q 2772 3150 2772 3378 
Q 2772 3750 2511 3984 
Q 2250 4219 1831 4219 
Q 1534 4219 1204 4116 
Q 875 4013 500 3803 
L 500 4441 
Q 881 4594 1212 4672 
Q 1544 4750 1819 4750 
Q 2544 4750 2975 4387 
Q 3406 4025 3406 3419 
Q 3406 3131 3298 2873 
Q 3191 2616 2906 2266 
Q 2828 2175 2409 1742 
Q 1991 1309 1228 531 
z
" transform="scale(0.015625)"/>
       </defs>
       <use xlink:href="#DejaVuSans-30"/>
       <use xlink:href="#DejaVuSans-2e" transform="translate(63.623047 0)"/>
       <use xlink:href="#DejaVuSans-30" transform="translate(95.410156 0)"/>
       <use xlink:href="#DejaVuSans-32" transform="translate(159.033203 0)"/>
      </g>
     </g>
    </g>
    <g id="xtick_4">
     <g id="line2d_7">
      <path d="M 276.987703 231.64 
L 276.987703 26.88 
" clip-path="url(#p931ebee002)" style="fill: none; stroke: #b0b0b0; stroke-opacity: 0.3; stroke-width: 0.8; stroke-linecap: square"/>
     </g>
     <g id="line2d_8">
      <g>
       <use xlink:href="#maf65ad76fb" x="276.987703" y="231.64" style="stroke: #000000; stroke-width: 0.8"/>
      </g>
     </g>
     <g id="text_4">
      <!-- 0.03 -->
      <g transform="translate(265.854891 246.238437) scale(0.1 -0.1)">
       <defs>
        <path id="DejaVuSans-33" d="M 2597 2516 
Q 3050 2419 3304 2112 
Q 3559 1806 3559 1356 
Q 3559 666 3084 287 
Q 2609 -91 1734 -91 
Q 1441 -91 1130 -33 
Q 819 25 488 141 
L 488 750 
Q 750 597 1062 519 
Q 1375 441 1716 441 
Q 2309 441 2620 675 
Q 2931 909 2931 1356 
Q 2931 1769 2642 2001 
Q 2353 2234 1838 2234 
L 1294 2234 
L 1294 2753 
L 1863 2753 
Q 2328 2753 2575 2939 
Q 2822 3125 2822 3475 
Q 2822 3834 2567 4026 
Q 2313 4219 1838 4219 
Q 1578 4219 1281 4162 
Q 984 4106 628 3988 
L 628 4550 
Q 988 4650 1302 4700 
Q 1616 4750 1894 4750 
Q 2613 4750 3031 4423 
Q 3450 4097 3450 3541 
Q 3450 3153 3228 2886 
Q 3006 2619 2597 2516 
z
" transform="scale(0.015625)"/>
       </defs>
       <use xlink:href="#DejaVuSans-30"/>
       <use xlink:href="#DejaVuSans-2e" transform="translate(63.623047 0)"/>
       <use xlink:href="#DejaVuSans-30" transform="translate(95.410156 0)"/>
       <use xlink:href="#DejaVuSans-33" transform="translate(159.033203 0)"/>
      </g>
     </g>
    </g>
    <g id="xtick_5">
     <g id="line2d_9">
      <path d="M 348.508402 231.64 
L 348.508402 26.88 
" clip-path="url(#p931ebee002)" style="fill: none; stroke: #b0b0b0; stroke-opacity: 0.3; stroke-width: 0.8; stroke-linecap: square"/>
     </g>
     <g id="line2d_10">
      <g>
       <use xlink:href="#maf65ad76fb" x="348.508402" y="231.64" style="stroke: #000000; stroke-width: 0.8"/>
      </g>
     </g>
     <g id="text_5">
      <!-- 0.04 -->
      <g transform="translate(337.37559 246.238437) scale(0.1 -0.1)">
       <defs>
        <path id="DejaVuSans-34" d="M 2419 4116 
L 825 1625 
L 2419 1625 
L 2419 4116 
z
M 2253 4666 
L 3047 4666 
L 3047 1625 
L 3713 1625 
L 3713 1100 
L 3047 1100 
L 3047 0 
L 2419 0 
L 2419 1100 
L 313 1100 
L 313 1709 
L 2253 4666 
z
" transform="scale(0.015625)"/>
       </defs>
       <use xlink:href="#DejaVuSans-30"/>
       <use xlink:href="#DejaVuSans-2e" transform="translate(63.623047 0)"/>
       <use xlink:href="#DejaVuSans-30" transform="translate(95.410156 0)"/>
       <use xlink:href="#DejaVuSans-34" transform="translate(159.033203 0)"/>
      </g>
     </g>
    </g>
    <g id="xtick_6">
     <g id="line2d_11">
      <path d="M 420.029101 231.64 
L 420.029101 26.88 
" clip-path="url(#p931ebee002)" style="fill: none; stroke: #b0b0b0; stroke-opacity: 0.3; stroke-width: 0.8; stroke-linecap: square"/>
     </g>
     <g id="line2d_12">
      <g>
       <use xlink:href="#maf65ad76fb" x="420.029101" y="231.64" style="stroke: #000000; stroke-width: 0.8"/>
      </g>
     </g>
     <g id="text_6">
      <!-- 0.05 -->
      <g transform="translate(408.896289 246.238437) scale(0.1 -0.1)">
       <defs>
        <path id="DejaVuSans-35" d="M 691 4666 
L 3169 4666 
L 3169 4134 
L 1269 4134 
L 1269 2991 
Q 1406 3038 1543 3061 
Q 1681 3084 1819 3084 
Q 2600 3084 3056 2656 
Q 3513 2228 3513 1497 
Q 3513 744 3044 326 
Q 2575 -91 1722 -91 
Q 1428 -91 1123 -41 
Q 819 9 494 109 
L 494 744 
Q 775 591 1075 516 
Q 1375 441 1709 441 
Q 2250 441 2565 725 
Q 2881 1009 2881 1497 
Q 2881 1984 2565 2268 
Q 2250 2553 1709 2553 
Q 1456 2553 1204 2497 
Q 953 2441 691 2322 
L 691 4666 
z
" transform="scale(0.015625)"/>
       </defs>
       <use xlink:href="#DejaVuSans-30"/>
       <use xlink:href="#DejaVuSans-2e" transform="translate(63.623047 0)"/>
       <use xlink:href="#DejaVuSans-30" transform="translate(95.410156 0)"/>
       <use xlink:href="#DejaVuSans-35" transform="translate(159.033203 0)"/>
      </g>
     </g>
    </g>
    <g id="xtick_7">
     <g id="line2d_13">
      <path d="M 491.5498 231.64 
L 491.5498 26.88 
" clip-path="url(#p931ebee002)" style="fill: none; stroke: #b0b0b0; stroke-opacity: 0.3; stroke-width: 0.8; stroke-linecap: square"/>
     </g>
     <g id="line2d_14">
      <g>
       <use xlink:href="#maf65ad76fb" x="491.5498" y="231.64" style="stroke: #000000; stroke-width: 0.8"/>
      </g>
     </g>
     <g id="text_7">
      <!-- 0.06 -->
      <g transform="translate(480.416988 246.238437) scale(0.1 -0.1)">
       <defs>
        <path id="DejaVuSans-36" d="M 2113 2584 
Q 1688 2584 1439 2293 
Q 1191 2003 1191 1497 
Q 1191 994 1439 701 
Q 1688 409 2113 409 
Q 2538 409 2786 701 
Q 3034 994 3034 1497 
Q 3034 2003 2786 2293 
Q 2538 2584 2113 2584 
z
M 3366 4563 
L 3366 3988 
Q 3128 4100 2886 4159 
Q 2644 4219 2406 4219 
Q 1781 4219 1451 3797 
Q 1122 3375 1075 2522 
Q 1259 2794 1537 2939 
Q 1816 3084 2150 3084 
Q 2853 3084 3261 2657 
Q 3669 2231 3669 1497 
Q 3669 778 3244 343 
Q 2819 -91 2113 -91 
Q 1303 -91 875 529 
Q 447 1150 447 2328 
Q 447 3434 972 4092 
Q 1497 4750 2381 4750 
Q 2619 4750 2861 4703 
Q 3103 4656 3366 4563 
z
" transform="scale(0.015625)"/>
       </defs>
       <use xlink:href="#DejaVuSans-30"/>
       <use xlink:href="#DejaVuSans-2e" transform="translate(63.623047 0)"/>
       <use xlink:href="#DejaVuSans-30" transform="translate(95.410156 0)"/>
       <use xlink:href="#DejaVuSans-36" transform="translate(159.033203 0)"/>
      </g>
     </g>
    </g>
    <g id="text_8">
     <!-- time (s) -->
     <g transform="translate(276.213135 259.916562) scale(0.1 -0.1)">
      <defs>
       <path id="DejaVuSans-74" d="M 1172 4494 
L 1172 3500 
L 2356 3500 
L 2356 3053 
L 1172 3053 
L 1172 1153 
Q 1172 725 1289 603 
Q 1406 481 1766 481 
L 2356 481 
L 2356 0 
L 1766 0 
Q 1100 0 847 248 
Q 594 497 594 1153 
L 594 3053 
L 172 3053 
L 172 3500 
L 594 3500 
L 594 4494 
L 1172 4494 
z
" transform="scale(0.015625)"/>
       <path id="DejaVuSans-69" d="M 603 3500 
L 1178 3500 
L 1178 0 
L 603 0 
L 603 3500 
z
M 603 4863 
L 1178 4863 
L 1178 4134 
L 603 4134 
L 603 4863 
z
" transform="scale(0.015625)"/>
       <path id="DejaVuSans-6d" d="M 3328 2828 
Q 3544 3216 3844 3400 
Q 4144 3584 4550 3584 
Q 5097 3584 5394 3201 
Q 5691 2819 5691 2113 
L 5691 0 
L 5113 0 
L 5113 2094 
Q 5113 2597 4934 2840 
Q 4756 3084 4391 3084 
Q 3944 3084 3684 2787 
Q 3425 2491 3425 1978 
L 3425 0 
L 2847 0 
L 2847 2094 
Q 2847 2600 2669 2842 
Q 2491 3084 2119 3084 
Q 1678 3084 1418 2786 
Q 1159 2488 1159 1978 
L 1159 0 
L 581 0 
L 581 3500 
L 1159 3500 
L 1159 2956 
Q 1356 3278 1631 3431 
Q 1906 3584 2284 3584 
Q 2666 3584 2933 3390 
Q 3200 3197 3328 2828 
z
" transform="scale(0.015625)"/>
       <path id="DejaVuSans-65" d="M 3597 1894 
L 3597 1613 
L 953 1613 
Q 991 1019 1311 708 
Q 1631 397 2203 397 
Q 2534 397 2845 478 
Q 3156 559 3463 722 
L 3463 178 
Q 3153 47 2828 -22 
Q 2503 -91 2169 -91 
Q 1331 -91 842 396 
Q 353 884 353 1716 
Q 353 2575 817 3079 
Q 1281 3584 2069 3584 
Q 2775 3584 3186 3129 
Q 3597 2675 3597 1894 
z
M 3022 2063 
Q 3016 2534 2758 2815 
Q 2500 3097 2075 3097 
Q 1594 3097 1305 2825 
Q 1016 2553 972 2059 
L 3022 2063 
z
" transform="scale(0.015625)"/>
       <path id="DejaVuSans-20" transform="scale(0.015625)"/>
       <path id="DejaVuSans-28" d="M 1984 4856 
Q 1566 4138 1362 3434 
Q 1159 2731 1159 2009 
Q 1159 1288 1364 580 
Q 1569 -128 1984 -844 
L 1484 -844 
Q 1016 -109 783 600 
Q 550 1309 550 2009 
Q 550 2706 781 3412 
Q 1013 4119 1484 4856 
L 1984 4856 
z
" transform="scale(0.015625)"/>
       <path id="DejaVuSans-73" d="M 2834 3397 
L 2834 2853 
Q 2591 2978 2328 3040 
Q 2066 3103 1784 3103 
Q 1356 3103 1142 2972 
Q 928 2841 928 2578 
Q 928 2378 1081 2264 
Q 1234 2150 1697 2047 
L 1894 2003 
Q 2506 1872 2764 1633 
Q 3022 1394 3022 966 
Q 3022 478 2636 193 
Q 2250 -91 1575 -91 
Q 1294 -91 989 -36 
Q 684 19 347 128 
L 347 722 
Q 666 556 975 473 
Q 1284 391 1588 391 
Q 1994 391 2212 530 
Q 2431 669 2431 922 
Q 2431 1156 2273 1281 
Q 2116 1406 1581 1522 
L 1381 1569 
Q 847 1681 609 1914 
Q 372 2147 372 2553 
Q 372 3047 722 3315 
Q 1072 3584 1716 3584 
Q 2034 3584 2315 3537 
Q 2597 3491 2834 3397 
z
" transform="scale(0.015625)"/>
       <path id="DejaVuSans-29" d="M 513 4856 
L 1013 4856 
Q 1481 4119 1714 3412 
Q 1947 2706 1947 2009 
Q 1947 1309 1714 600 
Q 1481 -109 1013 -844 
L 513 -844 
Q 928 -128 1133 580 
Q 1338 1288 1338 2009 
Q 1338 2731 1133 3434 
Q 928 4138 513 4856 
z
" transform="scale(0.015625)"/>
      </defs>
      <use xlink:href="#DejaVuSans-74"/>
      <use xlink:href="#DejaVuSans-69" transform="translate(39.208984 0)"/>
      <use xlink:href="#DejaVuSans-6d" transform="translate(66.992188 0)"/>
      <use xlink:href="#DejaVuSans-65" transform="translate(164.404297 0)"/>
      <use xlink:href="#DejaVuSans-20" transform="translate(225.927734 0)"/>
      <use xlink:href="#DejaVuSans-28" transform="translate(257.714844 0)"/>
      <use xlink:href="#DejaVuSans-73" transform="translate(296.728516 0)"/>
      <use xlink:href="#DejaVuSans-29" transform="translate(348.828125 0)"/>
     </g>
    </g>
   </g>
   <g id="matplotlib.axis_2">
    <g id="ytick_1">
     <g id="line2d_15">
      <defs>
       <path id="m90e7e641aa" d="M 0 0 
L -3.5 0 
" style="stroke: #000000; stroke-width: 0.8"/>
      </defs>
      <g>
       <use xlink:href="#m90e7e641aa" x="62.425606" y="207.913009" style="stroke: #000000; stroke-width: 0.8"/>
      </g>
     </g>
     <g id="text_9">
      <!-- die 0 -->
      <g transform="translate(30.605293 211.712228) scale(0.1 -0.1)">
       <defs>
        <path id="DejaVuSans-64" d="M 2906 2969 
L 2906 4863 
L 3481 4863 
L 3481 0 
L 2906 0 
L 2906 525 
Q 2725 213 2448 61 
Q 2172 -91 1784 -91 
Q 1150 -91 751 415 
Q 353 922 353 1747 
Q 353 2572 751 3078 
Q 1150 3584 1784 3584 
Q 2172 3584 2448 3432 
Q 2725 3281 2906 2969 
z
M 947 1747 
Q 947 1113 1208 752 
Q 1469 391 1925 391 
Q 2381 391 2643 752 
Q 2906 1113 2906 1747 
Q 2906 2381 2643 2742 
Q 2381 3103 1925 3103 
Q 1469 3103 1208 2742 
Q 947 2381 947 1747 
z
" transform="scale(0.015625)"/>
       </defs>
       <use xlink:href="#DejaVuSans-64"/>
       <use xlink:href="#DejaVuSans-69" transform="translate(63.476562 0)"/>
       <use xlink:href="#DejaVuSans-65" transform="translate(91.259766 0)"/>
       <use xlink:href="#DejaVuSans-20" transform="translate(152.783203 0)"/>
       <use xlink:href="#DejaVuSans-30" transform="translate(184.570312 0)"/>
      </g>
     </g>
    </g>
    <g id="ytick_2">
     <g id="line2d_16">
      <g>
       <use xlink:href="#m90e7e641aa" x="62.425606" y="155.47767" style="stroke: #000000; stroke-width: 0.8"/>
      </g>
     </g>
     <g id="text_10">
      <!-- die 1 -->
      <g transform="translate(30.605293 159.276888) scale(0.1 -0.1)">
       <use xlink:href="#DejaVuSans-64"/>
       <use xlink:href="#DejaVuSans-69" transform="translate(63.476562 0)"/>
       <use xlink:href="#DejaVuSans-65" transform="translate(91.259766 0)"/>
       <use xlink:href="#DejaVuSans-20" transform="translate(152.783203 0)"/>
       <use xlink:href="#DejaVuSans-31" transform="translate(184.570312 0)"/>
      </g>
     </g>
    </g>
    <g id="ytick_3">
     <g id="line2d_17">
      <g>
       <use xlink:href="#m90e7e641aa" x="62.425606" y="103.04233" style="stroke: #000000; stroke-width: 0.8"/>
      </g>
     </g>
     <g id="text_11">
      <!-- die 2 -->
      <g transform="translate(30.605293 106.841549) scale(0.1 -0.1)">
       <use xlink:href="#DejaVuSans-64"/>
       <use xlink:href="#DejaVuSans-69" transform="translate(63.476562 0)"/>
       <use xlink:href="#DejaVuSans-65" transform="translate(91.259766 0)"/>
       <use xlink:href="#DejaVuSans-20" transform="translate(152.783203 0)"/>
       <use xlink:href="#DejaVuSans-32" transform="translate(184.570312 0)"/>
      </g>
     </g>
    </g>
    <g id="ytick_4">
     <g id="line2d_18">
      <g>
       <use xlink:href="#m90e7e641aa" x="62.425606" y="50.606991" style="stroke: #000000; stroke-width: 0.8"/>
      </g>
     </g>
     <g id="text_12">
      <!-- die 3 -->
      <g transform="translate(30.605293 54.40621) scale(0.1 -0.1)">
       <use xlink:href="#DejaVuSans-64"/>
       <use xlink:href="#DejaVuSans-69" transform="translate(63.476562 0)"/>
       <use xlink:href="#DejaVuSans-65" transform="translate(91.259766 0)"/>
       <use xlink:href="#DejaVuSans-20" transform="translate(152.783203 0)"/>
       <use xlink:href="#DejaVuSans-33" transform="translate(184.570312 0)"/>
      </g>
     </g>
    </g>
    <g id="text_13">
     <!-- die -->
     <g transform="translate(24.525606 136.899844) rotate(-90) scale(0.1 -0.1)">
      <use xlink:href="#DejaVuSans-64"/>
      <use xlink:href="#DejaVuSans-69" transform="translate(63.476562 0)"/>
      <use xlink:href="#DejaVuSans-65" transform="translate(91.259766 0)"/>
     </g>
    </g>
   </g>
   <g id="patch_24">
    <path d="M 62.425606 231.64 
L 62.425606 26.88 
" style="fill: none; stroke: #000000; stroke-width: 0.8; stroke-linejoin: miter; stroke-linecap: square"/>
   </g>
   <g id="patch_25">
    <path d="M 528.783476 231.64 
L 528.783476 26.88 
" style="fill: none; stroke: #000000; stroke-width: 0.8; stroke-linejoin: miter; stroke-linecap: square"/>
   </g>
   <g id="patch_26">
    <path d="M 62.425606 231.64 
L 528.783476 231.64 
" style="fill: none; stroke: #000000; stroke-width: 0.8; stroke-linejoin: miter; stroke-linecap: square"/>
   </g>
   <g id="patch_27">
    <path d="M 62.425606 26.88 
L 528.783476 26.88 
" style="fill: none; stroke: #000000; stroke-width: 0.8; stroke-linejoin: miter; stroke-linecap: square"/>
   </g>
   <g id="text_14">
    <!-- instrument_access_die0_0 -->
    <g transform="translate(11.112109 210.009259) scale(0.08 -0.08)">
     <defs>
      <path id="DejaVuSans-6e" d="M 3513 2113 
L 3513 0 
L 2938 0 
L 2938 2094 
Q 2938 2591 2744 2837 
Q 2550 3084 2163 3084 
Q 1697 3084 1428 2787 
Q 1159 2491 1159 1978 
L 1159 0 
L 581 0 
L 581 3500 
L 1159 3500 
L 1159 2956 
Q 1366 3272 1645 3428 
Q 1925 3584 2291 3584 
Q 2894 3584 3203 3211 
Q 3513 2838 3513 2113 
z
" transform="scale(0.015625)"/>
      <path id="DejaVuSans-72" d="M 2631 2963 
Q 2534 3019 2420 3045 
Q 2306 3072 2169 3072 
Q 1681 3072 1420 2755 
Q 1159 2438 1159 1844 
L 1159 0 
L 581 0 
L 581 3500 
L 1159 3500 
L 1159 2956 
Q 1341 3275 1631 3429 
Q 1922 3584 2338 3584 
Q 2397 3584 2469 3576 
Q 2541 3569 2628 3553 
L 2631 2963 
z
" transform="scale(0.015625)"/>
      <path id="DejaVuSans-75" d="M 544 1381 
L 544 3500 
L 1119 3500 
L 1119 1403 
Q 1119 906 1312 657 
Q 1506 409 1894 409 
Q 2359 409 2629 706 
Q 2900 1003 2900 1516 
L 2900 3500 
L 3475 3500 
L 3475 0 
L 2900 0 
L 2900 538 
Q 2691 219 2414 64 
Q 2138 -91 1772 -91 
Q 1169 -91 856 284 
Q 544 659 544 1381 
z
M 1991 3584 
L 1991 3584 
z
" transform="scale(0.015625)"/>
      <path id="DejaVuSans-5f" d="M 3263 -1063 
L 3263 -1509 
L -63 -1509 
L -63 -1063 
L 3263 -1063 
z
" transform="scale(0.015625)"/>
      <path id="DejaVuSans-61" d="M 2194 1759 
Q 1497 1759 1228 1600 
Q 959 1441 959 1056 
Q 959 750 1161 570 
Q 1363 391 1709 391 
Q 2188 391 2477 730 
Q 2766 1069 2766 1631 
L 2766 1759 
L 2194 1759 
z
M 3341 1997 
L 3341 0 
L 2766 0 
L 2766 531 
Q 2569 213 2275 61 
Q 1981 -91 1556 -91 
Q 1019 -91 701 211 
Q 384 513 384 1019 
Q 384 1609 779 1909 
Q 1175 2209 1959 2209 
L 2766 2209 
L 2766 2266 
Q 2766 2663 2505 2880 
Q 2244 3097 1772 3097 
Q 1472 3097 1187 3025 
Q 903 2953 641 2809 
L 641 3341 
Q 956 3463 1253 3523 
Q 1550 3584 1831 3584 
Q 2591 3584 2966 3190 
Q 3341 2797 3341 1997 
z
" transform="scale(0.015625)"/>
      <path id="DejaVuSans-63" d="M 3122 3366 
L 3122 2828 
Q 2878 2963 2633 3030 
Q 2388 3097 2138 3097 
Q 1578 3097 1268 2742 
Q 959 2388 959 1747 
Q 959 1106 1268 751 
Q 1578 397 2138 397 
Q 2388 397 2633 464 
Q 2878 531 3122 666 
L 3122 134 
Q 2881 22 2623 -34 
Q 2366 -91 2075 -91 
Q 1284 -91 818 406 
Q 353 903 353 1747 
Q 353 2603 823 3093 
Q 1294 3584 2113 3584 
Q 2378 3584 2631 3529 
Q 2884 3475 3122 3366 
z
" transform="scale(0.015625)"/>
     </defs>
     <use xlink:href="#DejaVuSans-69"/>
     <use xlink:href="#DejaVuSans-6e" transform="translate(27.783203 0)"/>
     <use xlink:href="#DejaVuSans-73" transform="translate(91.162109 0)"/>
     <use xlink:href="#DejaVuSans-74" transform="translate(143.261719 0)"/>
     <use xlink:href="#DejaVuSans-72" transform="translate(182.470703 0)"/>
     <use xlink:href="#DejaVuSans-75" transform="translate(223.583984 0)"/>
     <use xlink:href="#DejaVuSans-6d" transform="translate(286.962891 0)"/>
     <use xlink:href="#DejaVuSans-65" transform="translate(384.375 0)"/>
     <use xlink:href="#DejaVuSans-6e" transform="translate(445.898438 0)"/>
     <use xlink:href="#DejaVuSans-74" transform="translate(509.277344 0)"/>
     <use xlink:href="#DejaVuSans-5f" transform="translate(548.486328 0)"/>
     <use xlink:href="#DejaVuSans-61" transform="translate(598.486328 0)"/>
     <use xlink:href="#DejaVuSans-63" transform="translate(659.765625 0)"/>
     <use xlink:href="#DejaVuSans-63" transform="translate(714.746094 0)"/>
     <use xlink:href="#DejaVuSans-65" transform="translate(769.726562 0)"/>
     <use xlink:href="#DejaVuSans-73" transform="translate(831.25 0)"/>
     <use xlink:href="#DejaVuSans-73" transform="translate(883.349609 0)"/>
     <use xlink:href="#DejaVuSans-5f" transform="translate(935.449219 0)"/>
     <use xlink:href="#DejaVuSans-64" transform="translate(985.449219 0)"/>
     <use xlink:href="#DejaVuSans-69" transform="translate(1048.925781 0)"/>
     <use xlink:href="#DejaVuSans-65" transform="translate(1076.708984 0)"/>
     <use xlink:href="#DejaVuSans-30" transform="translate(1138.232422 0)"/>
     <use xlink:href="#DejaVuSans-5f" transform="translate(1201.855469 0)"/>
     <use xlink:href="#DejaVuSans-30" transform="translate(1251.855469 0)"/>
    </g>
   </g>
   <g id="text_15">
    <!-- bist_die0_0 -->
    <g transform="translate(54.600854 210.009259) scale(0.08 -0.08)">
     <defs>
      <path id="DejaVuSans-62" d="M 3116 1747 
Q 3116 2381 2855 2742 
Q 2594 3103 2138 3103 
Q 1681 3103 1420 2742 
Q 1159 2381 1159 1747 
Q 1159 1113 1420 752 
Q 1681 391 2138 391 
Q 2594 391 2855 752 
Q 3116 1113 3116 1747 
z
M 1159 2969 
Q 1341 3281 1617 3432 
Q 1894 3584 2278 3584 
Q 2916 3584 3314 3078 
Q 3713 2572 3713 1747 
Q 3713 922 3314 415 
Q 2916 -91 2278 -91 
Q 1894 -91 1617 61 
Q 1341 213 1159 525 
L 1159 0 
L 581 0 
L 581 4863 
L 1159 4863 
L 1159 2969 
z
" transform="scale(0.015625)"/>
     </defs>
     <use xlink:href="#DejaVuSans-62"/>
     <use xlink:href="#DejaVuSans-69" transform="translate(63.476562 0)"/>
     <use xlink:href="#DejaVuSans-73" transform="translate(91.259766 0)"/>
     <use xlink:href="#DejaVuSans-74" transform="translate(143.359375 0)"/>
     <use xlink:href="#DejaVuSans-5f" transform="translate(182.568359 0)"/>
     <use xlink:href="#DejaVuSans-64" transform="translate(232.568359 0)"/>
     <use xlink:href="#DejaVuSans-69" transform="translate(296.044922 0)"/>
     <use xlink:href="#DejaVuSans-65" transform="translate(323.828125 0)"/>
     <use xlink:href="#DejaVuSans-30" transform="translate(385.351562 0)"/>
     <use xlink:href="#DejaVuSans-5f" transform="translate(448.974609 0)"/>
     <use xlink:href="#DejaVuSans-30" transform="translate(498.974609 0)"/>
    </g>
   </g>
   <g id="text_16">
    <!-- dwr_extest_die0_die1 -->
    <g transform="translate(49.627457 210.009259) scale(0.08 -0.08)">
     <defs>
      <path id="DejaVuSans-77" d="M 269 3500 
L 844 3500 
L 1563 769 
L 2278 3500 
L 2956 3500 
L 3675 769 
L 4391 3500 
L 4966 3500 
L 4050 0 
L 3372 0 
L 2619 2869 
L 1863 0 
L 1184 0 
L 269 3500 
z
" transform="scale(0.015625)"/>
      <path id="DejaVuSans-78" d="M 3513 3500 
L 2247 1797 
L 3578 0 
L 2900 0 
L 1881 1375 
L 863 0 
L 184 0 
L 1544 1831 
L 300 3500 
L 978 3500 
L 1906 2253 
L 2834 3500 
L 3513 3500 
z
" transform="scale(0.015625)"/>
     </defs>
     <use xlink:href="#DejaVuSans-64"/>
     <use xlink:href="#DejaVuSans-77" transform="translate(63.476562 0)"/>
     <use xlink:href="#DejaVuSans-72" transform="translate(145.263672 0)"/>
     <use xlink:href="#DejaVuSans-5f" transform="translate(186.376953 0)"/>
     <use xlink:href="#DejaVuSans-65" transform="translate(236.376953 0)"/>
     <use xlink:href="#DejaVuSans-78" transform="translate(296.150391 0)"/>
     <use xlink:href="#DejaVuSans-74" transform="translate(355.330078 0)"/>
     <use xlink:href="#DejaVuSans-65" transform="translate(394.539062 0)"/>
     <use xlink:href="#DejaVuSans-73" transform="translate(456.0625 0)"/>
     <use xlink:href="#DejaVuSans-74" transform="translate(508.162109 0)"/>
     <use xlink:href="#DejaVuSans-5f" transform="translate(547.371094 0)"/>
     <use xlink:href="#DejaVuSans-64" transform="translate(597.371094 0)"/>
     <use xlink:href="#DejaVuSans-69" transform="translate(660.847656 0)"/>
     <use xlink:href="#DejaVuSans-65" transform="translate(688.630859 0)"/>
     <use xlink:href="#DejaVuSans-30" transform="translate(750.154297 0)"/>
     <use xlink:href="#DejaVuSans-5f" transform="translate(813.777344 0)"/>
     <use xlink:href="#DejaVuSans-64" transform="translate(863.777344 0)"/>
     <use xlink:href="#DejaVuSans-69" transform="translate(927.253906 0)"/>
     <use xlink:href="#DejaVuSans-65" transform="translate(955.037109 0)"/>
     <use xlink:href="#DejaVuSans-31" transform="translate(1016.560547 0)"/>
    </g>
   </g>
   <g id="text_17">
    <!-- scan_shift_die0 -->
    <g transform="translate(98.119881 210.009259) scale(0.08 -0.08)">
     <defs>
      <path id="DejaVuSans-68" d="M 3513 2113 
L 3513 0 
L 2938 0 
L 2938 2094 
Q 2938 2591 2744 2837 
Q 2550 3084 2163 3084 
Q 1697 3084 1428 2787 
Q 1159 2491 1159 1978 
L 1159 0 
L 581 0 
L 581 4863 
L 1159 4863 
L 1159 2956 
Q 1366 3272 1645 3428 
Q 1925 3584 2291 3584 
Q 2894 3584 3203 3211 
Q 3513 2838 3513 2113 
z
" transform="scale(0.015625)"/>
      <path id="DejaVuSans-66" d="M 2375 4863 
L 2375 4384 
L 1825 4384 
Q 1516 4384 1395 4259 
Q 1275 4134 1275 3809 
L 1275 3500 
L 2222 3500 
L 2222 3053 
L 1275 3053 
L 1275 0 
L 697 0 
L 697 3053 
L 147 3053 
L 147 3500 
L 697 3500 
L 697 3744 
Q 697 4328 969 4595 
Q 1241 4863 1831 4863 
L 2375 4863 
z
" transform="scale(0.015625)"/>
     </defs>
     <use xlink:href="#DejaVuSans-73"/>
     <use xlink:href="#DejaVuSans-63" transform="translate(52.099609 0)"/>
     <use xlink:href="#DejaVuSans-61" transform="translate(107.080078 0)"/>
     <use xlink:href="#DejaVuSans-6e" transform="translate(168.359375 0)"/>
     <use xlink:href="#DejaVuSans-5f" transform="translate(231.738281 0)"/>
     <use xlink:href="#DejaVuSans-73" transform="translate(281.738281 0)"/>
     <use xlink:href="#DejaVuSans-68" transform="translate(333.837891 0)"/>
     <use xlink:href="#DejaVuSans-69" transform="translate(397.216797 0)"/>
     <use xlink:href="#DejaVuSans-66" transform="translate(425 0)"/>
     <use xlink:href="#DejaVuSans-74" transform="translate(458.455078 0)"/>
     <use xlink:href="#DejaVuSans-5f" transform="translate(497.664062 0)"/>
     <use xlink:href="#DejaVuSans-64" transform="translate(547.664062 0)"/>
     <use xlink:href="#DejaVuSans-69" transform="translate(611.140625 0)"/>
     <use xlink:href="#DejaVuSans-65" transform="translate(638.923828 0)"/>
     <use xlink:href="#DejaVuSans-30" transform="translate(700.447266 0)"/>
    </g>
   </g>
   <g id="text_18">
    <!-- scan_capture_die0 -->
    <g transform="translate(124.979861 210.009259) scale(0.08 -0.08)">
     <defs>
      <path id="DejaVuSans-70" d="M 1159 525 
L 1159 -1331 
L 581 -1331 
L 581 3500 
L 1159 3500 
L 1159 2969 
Q 1341 3281 1617 3432 
Q 1894 3584 2278 3584 
Q 2916 3584 3314 3078 
Q 3713 2572 3713 1747 
Q 3713 922 3314 415 
Q 2916 -91 2278 -91 
Q 1894 -91 1617 61 
Q 1341 213 1159 525 
z
M 3116 1747 
Q 3116 2381 2855 2742 
Q 2594 3103 2138 3103 
Q 1681 3103 1420 2742 
Q 1159 2381 1159 1747 
Q 1159 1113 1420 752 
Q 1681 391 2138 391 
Q 2594 391 2855 752 
Q 3116 1113 3116 1747 
z
" transform="scale(0.015625)"/>
     </defs>
     <use xlink:href="#DejaVuSans-73"/>
     <use xlink:href="#DejaVuSans-63" transform="translate(52.099609 0)"/>
     <use xlink:href="#DejaVuSans-61" transform="translate(107.080078 0)"/>
     <use xlink:href="#DejaVuSans-6e" transform="translate(168.359375 0)"/>
     <use xlink:href="#DejaVuSans-5f" transform="translate(231.738281 0)"/>
     <use xlink:href="#DejaVuSans-63" transform="translate(281.738281 0)"/>
     <use xlink:href="#DejaVuSans-61" transform="translate(336.71875 0)"/>
     <use xlink:href="#DejaVuSans-70" transform="translate(397.998047 0)"/>
     <use xlink:href="#DejaVuSans-74" transform="translate(461.474609 0)"/>
     <use xlink:href="#DejaVuSans-75" transform="translate(500.683594 0)"/>
     <use xlink:href="#DejaVuSans-72" transform="translate(564.0625 0)"/>
     <use xlink:href="#DejaVuSans-65" transform="translate(602.925781 0)"/>
     <use xlink:href="#DejaVuSans-5f" transform="translate(664.449219 0)"/>
     <use xlink:href="#DejaVuSans-64" transform="translate(714.449219 0)"/>
     <use xlink:href="#DejaVuSans-69" transform="translate(777.925781 0)"/>
     <use xlink:href="#DejaVuSans-65" transform="translate(805.708984 0)"/>
     <use xlink:href="#DejaVuSans-30" transform="translate(867.232422 0)"/>
    </g>
   </g>
   <g id="text_19">
    <!-- instrument_access_die1_0 -->
    <g transform="translate(112.560644 157.57392) scale(0.08 -0.08)">
     <use xlink:href="#DejaVuSans-69"/>
     <use xlink:href="#DejaVuSans-6e" transform="translate(27.783203 0)"/>
     <use xlink:href="#DejaVuSans-73" transform="translate(91.162109 0)"/>
     <use xlink:href="#DejaVuSans-74" transform="translate(143.261719 0)"/>
     <use xlink:href="#DejaVuSans-72" transform="translate(182.470703 0)"/>
     <use xlink:href="#DejaVuSans-75" transform="translate(223.583984 0)"/>
     <use xlink:href="#DejaVuSans-6d" transform="translate(286.962891 0)"/>
     <use xlink:href="#DejaVuSans-65" transform="translate(384.375 0)"/>
     <use xlink:href="#DejaVuSans-6e" transform="translate(445.898438 0)"/>
     <use xlink:href="#DejaVuSans-74" transform="translate(509.277344 0)"/>
     <use xlink:href="#DejaVuSans-5f" transform="translate(548.486328 0)"/>
     <use xlink:href="#DejaVuSans-61" transform="translate(598.486328 0)"/>
     <use xlink:href="#DejaVuSans-63" transform="translate(659.765625 0)"/>
     <use xlink:href="#DejaVuSans-63" transform="translate(714.746094 0)"/>
     <use xlink:href="#DejaVuSans-65" transform="translate(769.726562 0)"/>
     <use xlink:href="#DejaVuSans-73" transform="translate(831.25 0)"/>
     <use xlink:href="#DejaVuSans-73" transform="translate(883.349609 0)"/>
     <use xlink:href="#DejaVuSans-5f" transform="translate(935.449219 0)"/>
     <use xlink:href="#DejaVuSans-64" transform="translate(985.449219 0)"/>
     <use xlink:href="#DejaVuSans-69" transform="translate(1048.925781 0)"/>
     <use xlink:href="#DejaVuSans-65" transform="translate(1076.708984 0)"/>
     <use xlink:href="#DejaVuSans-31" transform="translate(1138.232422 0)"/>
     <use xlink:href="#DejaVuSans-5f" transform="translate(1201.855469 0)"/>
     <use xlink:href="#DejaVuSans-30" transform="translate(1251.855469 0)"/>
    </g>
   </g>
   <g id="text_20">
    <!-- instrument_access_die1_1 -->
    <g transform="translate(115.972182 157.57392) scale(0.08 -0.08)">
     <use xlink:href="#DejaVuSans-69"/>
     <use xlink:href="#DejaVuSans-6e" transform="translate(27.783203 0)"/>
     <use xlink:href="#DejaVuSans-73" transform="translate(91.162109 0)"/>
     <use xlink:href="#DejaVuSans-74" transform="translate(143.261719 0)"/>
     <use xlink:href="#DejaVuSans-72" transform="translate(182.470703 0)"/>
     <use xlink:href="#DejaVuSans-75" transform="translate(223.583984 0)"/>
     <use xlink:href="#DejaVuSans-6d" transform="translate(286.962891 0)"/>
     <use xlink:href="#DejaVuSans-65" transform="translate(384.375 0)"/>
     <use xlink:href="#DejaVuSans-6e" transform="translate(445.898438 0)"/>
     <use xlink:href="#DejaVuSans-74" transform="translate(509.277344 0)"/>
     <use xlink:href="#DejaVuSans-5f" transform="translate(548.486328 0)"/>
     <use xlink:href="#DejaVuSans-61" transform="translate(598.486328 0)"/>
     <use xlink:href="#DejaVuSans-63" transform="translate(659.765625 0)"/>
     <use xlink:href="#DejaVuSans-63" transform="translate(714.746094 0)"/>
     <use xlink:href="#DejaVuSans-65" transform="translate(769.726562 0)"/>
     <use xlink:href="#DejaVuSans-73" transform="translate(831.25 0)"/>
     <use xlink:href="#DejaVuSans-73" transform="translate(883.349609 0)"/>
     <use xlink:href="#DejaVuSans-5f" transform="translate(935.449219 0)"/>
     <use xlink:href="#DejaVuSans-64" transform="translate(985.449219 0)"/>
     <use xlink:href="#DejaVuSans-69" transform="translate(1048.925781 0)"/>
     <use xlink:href="#DejaVuSans-65" transform="translate(1076.708984 0)"/>
     <use xlink:href="#DejaVuSans-31" transform="translate(1138.232422 0)"/>
     <use xlink:href="#DejaVuSans-5f" transform="translate(1201.855469 0)"/>
     <use xlink:href="#DejaVuSans-31" transform="translate(1251.855469 0)"/>
    </g>
   </g>
   <g id="text_21">
    <!-- bist_die1_0 -->
    <g transform="translate(161.828262 157.57392) scale(0.08 -0.08)">
     <use xlink:href="#DejaVuSans-62"/>
     <use xlink:href="#DejaVuSans-69" transform="translate(63.476562 0)"/>
     <use xlink:href="#DejaVuSans-73" transform="translate(91.259766 0)"/>
     <use xlink:href="#DejaVuSans-74" transform="translate(143.359375 0)"/>
     <use xlink:href="#DejaVuSans-5f" transform="translate(182.568359 0)"/>
     <use xlink:href="#DejaVuSans-64" transform="translate(232.568359 0)"/>
     <use xlink:href="#DejaVuSans-69" transform="translate(296.044922 0)"/>
     <use xlink:href="#DejaVuSans-65" transform="translate(323.828125 0)"/>
     <use xlink:href="#DejaVuSans-31" transform="translate(385.351562 0)"/>
     <use xlink:href="#DejaVuSans-5f" transform="translate(448.974609 0)"/>
     <use xlink:href="#DejaVuSans-30" transform="translate(498.974609 0)"/>
    </g>
   </g>
   <g id="text_22">
    <!-- dwr_extest_die1_die2 -->
    <g transform="translate(159.647748 157.57392) scale(0.08 -0.08)">
     <use xlink:href="#DejaVuSans-64"/>
     <use xlink:href="#DejaVuSans-77" transform="translate(63.476562 0)"/>
     <use xlink:href="#DejaVuSans-72" transform="translate(145.263672 0)"/>
     <use xlink:href="#DejaVuSans-5f" transform="translate(186.376953 0)"/>
     <use xlink:href="#DejaVuSans-65" transform="translate(236.376953 0)"/>
     <use xlink:href="#DejaVuSans-78" transform="translate(296.150391 0)"/>
     <use xlink:href="#DejaVuSans-74" transform="translate(355.330078 0)"/>
     <use xlink:href="#DejaVuSans-65" transform="translate(394.539062 0)"/>
     <use xlink:href="#DejaVuSans-73" transform="translate(456.0625 0)"/>
     <use xlink:href="#DejaVuSans-74" transform="translate(508.162109 0)"/>
     <use xlink:href="#DejaVuSans-5f" transform="translate(547.371094 0)"/>
     <use xlink:href="#DejaVuSans-64" transform="translate(597.371094 0)"/>
     <use xlink:href="#DejaVuSans-69" transform="translate(660.847656 0)"/>
     <use xlink:href="#DejaVuSans-65" transform="translate(688.630859 0)"/>
     <use xlink:href="#DejaVuSans-31" transform="translate(750.154297 0)"/>
     <use xlink:href="#DejaVuSans-5f" transform="translate(813.777344 0)"/>
     <use xlink:href="#DejaVuSans-64" transform="translate(863.777344 0)"/>
     <use xlink:href="#DejaVuSans-69" transform="translate(927.253906 0)"/>
     <use xlink:href="#DejaVuSans-65" transform="translate(955.037109 0)"/>
     <use xlink:href="#DejaVuSans-32" transform="translate(1016.560547 0)"/>
    </g>
   </g>
   <g id="text_23">
    <!-- scan_shift_die1 -->
    <g transform="translate(223.359778 157.57392) scale(0.08 -0.08)">
     <use xlink:href="#DejaVuSans-73"/>
     <use xlink:href="#DejaVuSans-63" transform="translate(52.099609 0)"/>
     <use xlink:href="#DejaVuSans-61" transform="translate(107.080078 0)"/>
     <use xlink:href="#DejaVuSans-6e" transform="translate(168.359375 0)"/>
     <use xlink:href="#DejaVuSans-5f" transform="translate(231.738281 0)"/>
     <use xlink:href="#DejaVuSans-73" transform="translate(281.738281 0)"/>
     <use xlink:href="#DejaVuSans-68" transform="translate(333.837891 0)"/>
     <use xlink:href="#DejaVuSans-69" transform="translate(397.216797 0)"/>
     <use xlink:href="#DejaVuSans-66" transform="translate(425 0)"/>
     <use xlink:href="#DejaVuSans-74" transform="translate(458.455078 0)"/>
     <use xlink:href="#DejaVuSans-5f" transform="translate(497.664062 0)"/>
     <use xlink:href="#DejaVuSans-64" transform="translate(547.664062 0)"/>
     <use xlink:href="#DejaVuSans-69" transform="translate(611.140625 0)"/>
     <use xlink:href="#DejaVuSans-65" transform="translate(638.923828 0)"/>
     <use xlink:href="#DejaVuSans-31" transform="translate(700.447266 0)"/>
    </g>
   </g>
   <g id="text_24">
    <!-- scan_capture_die1 -->
    <g transform="translate(264.838588 157.57392) scale(0.08 -0.08)">
     <use xlink:href="#DejaVuSans-73"/>
     <use xlink:href="#DejaVuSans-63" transform="translate(52.099609 0)"/>
     <use xlink:href="#DejaVuSans-61" transform="translate(107.080078 0)"/>
     <use xlink:href="#DejaVuSans-6e" transform="translate(168.359375 0)"/>
     <use xlink:href="#DejaVuSans-5f" transform="translate(231.738281 0)"/>
     <use xlink:href="#DejaVuSans-63" transform="translate(281.738281 0)"/>
     <use xlink:href="#DejaVuSans-61" transform="translate(336.71875 0)"/>
     <use xlink:href="#DejaVuSans-70" transform="translate(397.998047 0)"/>
     <use xlink:href="#DejaVuSans-74" transform="translate(461.474609 0)"/>
     <use xlink:href="#DejaVuSans-75" transform="translate(500.683594 0)"/>
     <use xlink:href="#DejaVuSans-72" transform="translate(564.0625 0)"/>
     <use xlink:href="#DejaVuSans-65" transform="translate(602.925781 0)"/>
     <use xlink:href="#DejaVuSans-5f" transform="translate(664.449219 0)"/>
     <use xlink:href="#DejaVuSans-64" transform="translate(714.449219 0)"/>
     <use xlink:href="#DejaVuSans-69" transform="translate(777.925781 0)"/>
     <use xlink:href="#DejaVuSans-65" transform="translate(805.708984 0)"/>
     <use xlink:href="#DejaVuSans-31" transform="translate(867.232422 0)"/>
    </g>
   </g>
   <g id="text_25">
    <!-- instrument_access_die2_0 -->
    <g transform="translate(252.580293 105.13858) scale(0.08 -0.08)">
     <use xlink:href="#DejaVuSans-69"/>
     <use xlink:href="#DejaVuSans-6e" transform="translate(27.783203 0)"/>
     <use xlink:href="#DejaVuSans-73" transform="translate(91.162109 0)"/>
     <use xlink:href="#DejaVuSans-74" transform="translate(143.261719 0)"/>
     <use xlink:href="#DejaVuSans-72" transform="translate(182.470703 0)"/>
     <use xlink:href="#DejaVuSans-75" transform="translate(223.583984 0)"/>
     <use xlink:href="#DejaVuSans-6d" transform="translate(286.962891 0)"/>
     <use xlink:href="#DejaVuSans-65" transform="translate(384.375 0)"/>
     <use xlink:href="#DejaVuSans-6e" transform="translate(445.898438 0)"/>
     <use xlink:href="#DejaVuSans-74" transform="translate(509.277344 0)"/>
     <use xlink:href="#DejaVuSans-5f" transform="translate(548.486328 0)"/>
     <use xlink:href="#DejaVuSans-61" transform="translate(598.486328 0)"/>
     <use xlink:href="#DejaVuSans-63" transform="translate(659.765625 0)"/>
     <use xlink:href="#DejaVuSans-63" transform="translate(714.746094 0)"/>
     <use xlink:href="#DejaVuSans-65" transform="translate(769.726562 0)"/>
     <use xlink:href="#DejaVuSans-73" transform="translate(831.25 0)"/>
     <use xlink:href="#DejaVuSans-73" transform="translate(883.349609 0)"/>
     <use xlink:href="#DejaVuSans-5f" transform="translate(935.449219 0)"/>
     <use xlink:href="#DejaVuSans-64" transform="translate(985.449219 0)"/>
     <use xlink:href="#DejaVuSans-69" transform="translate(1048.925781 0)"/>
     <use xlink:href="#DejaVuSans-65" transform="translate(1076.708984 0)"/>
     <use xlink:href="#DejaVuSans-32" transform="translate(1138.232422 0)"/>
     <use xlink:href="#DejaVuSans-5f" transform="translate(1201.855469 0)"/>
     <use xlink:href="#DejaVuSans-30" transform="translate(1251.855469 0)"/>
    </g>
   </g>
   <g id="text_26">
    <!-- bist_die2_0 -->
    <g transform="translate(297.277738 105.13858) scale(0.08 -0.08)">
     <use xlink:href="#DejaVuSans-62"/>
     <use xlink:href="#DejaVuSans-69" transform="translate(63.476562 0)"/>
     <use xlink:href="#DejaVuSans-73" transform="translate(91.259766 0)"/>
     <use xlink:href="#DejaVuSans-74" transform="translate(143.359375 0)"/>
     <use xlink:href="#DejaVuSans-5f" transform="translate(182.568359 0)"/>
     <use xlink:href="#DejaVuSans-64" transform="translate(232.568359 0)"/>
     <use xlink:href="#DejaVuSans-69" transform="translate(296.044922 0)"/>
     <use xlink:href="#DejaVuSans-65" transform="translate(323.828125 0)"/>
     <use xlink:href="#DejaVuSans-32" transform="translate(385.351562 0)"/>
     <use xlink:href="#DejaVuSans-5f" transform="translate(448.974609 0)"/>
     <use xlink:href="#DejaVuSans-30" transform="translate(498.974609 0)"/>
    </g>
   </g>
   <g id="text_27">
    <!-- bist_die2_1 -->
    <g transform="translate(324.609374 105.13858) scale(0.08 -0.08)">
     <use xlink:href="#DejaVuSans-62"/>
     <use xlink:href="#DejaVuSans-69" transform="translate(63.476562 0)"/>
     <use xlink:href="#DejaVuSans-73" transform="translate(91.259766 0)"/>
     <use xlink:href="#DejaVuSans-74" transform="translate(143.359375 0)"/>
     <use xlink:href="#DejaVuSans-5f" transform="translate(182.568359 0)"/>
     <use xlink:href="#DejaVuSans-64" transform="translate(232.568359 0)"/>
     <use xlink:href="#DejaVuSans-69" transform="translate(296.044922 0)"/>
     <use xlink:href="#DejaVuSans-65" transform="translate(323.828125 0)"/>
     <use xlink:href="#DejaVuSans-32" transform="translate(385.351562 0)"/>
     <use xlink:href="#DejaVuSans-5f" transform="translate(448.974609 0)"/>
     <use xlink:href="#DejaVuSans-31" transform="translate(498.974609 0)"/>
    </g>
   </g>
   <g id="text_28">
    <!-- dwr_extest_die2_die3 -->
    <g transform="translate(321.320289 105.13858) scale(0.08 -0.08)">
     <use xlink:href="#DejaVuSans-64"/>
     <use xlink:href="#DejaVuSans-77" transform="translate(63.476562 0)"/>
     <use xlink:href="#DejaVuSans-72" transform="translate(145.263672 0)"/>
     <use xlink:href="#DejaVuSans-5f" transform="translate(186.376953 0)"/>
     <use xlink:href="#DejaVuSans-65" transform="translate(236.376953 0)"/>
     <use xlink:href="#DejaVuSans-78" transform="translate(296.150391 0)"/>
     <use xlink:href="#DejaVuSans-74" transform="translate(355.330078 0)"/>
     <use xlink:href="#DejaVuSans-65" transform="translate(394.539062 0)"/>
     <use xlink:href="#DejaVuSans-73" transform="translate(456.0625 0)"/>
     <use xlink:href="#DejaVuSans-74" transform="translate(508.162109 0)"/>
     <use xlink:href="#DejaVuSans-5f" transform="translate(547.371094 0)"/>
     <use xlink:href="#DejaVuSans-64" transform="translate(597.371094 0)"/>
     <use xlink:href="#DejaVuSans-69" transform="translate(660.847656 0)"/>
     <use xlink:href="#DejaVuSans-65" transform="translate(688.630859 0)"/>
     <use xlink:href="#DejaVuSans-32" transform="translate(750.154297 0)"/>
     <use xlink:href="#DejaVuSans-5f" transform="translate(813.777344 0)"/>
     <use xlink:href="#DejaVuSans-64" transform="translate(863.777344 0)"/>
     <use xlink:href="#DejaVuSans-69" transform="translate(927.253906 0)"/>
     <use xlink:href="#DejaVuSans-65" transform="translate(955.037109 0)"/>
     <use xlink:href="#DejaVuSans-33" transform="translate(1016.560547 0)"/>
    </g>
   </g>
   <g id="text_29">
    <!-- scan_shift_die2 -->
    <g transform="translate(376.532083 105.13858) scale(0.08 -0.08)">
     <use xlink:href="#DejaVuSans-73"/>
     <use xlink:href="#DejaVuSans-63" transform="translate(52.099609 0)"/>
     <use xlink:href="#DejaVuSans-61" transform="translate(107.080078 0)"/>
     <use xlink:href="#DejaVuSans-6e" transform="translate(168.359375 0)"/>
     <use xlink:href="#DejaVuSans-5f" transform="translate(231.738281 0)"/>
     <use xlink:href="#DejaVuSans-73" transform="translate(281.738281 0)"/>
     <use xlink:href="#DejaVuSans-68" transform="translate(333.837891 0)"/>
     <use xlink:href="#DejaVuSans-69" transform="translate(397.216797 0)"/>
     <use xlink:href="#DejaVuSans-66" transform="translate(425 0)"/>
     <use xlink:href="#DejaVuSans-74" transform="translate(458.455078 0)"/>
     <use xlink:href="#DejaVuSans-5f" transform="translate(497.664062 0)"/>
     <use xlink:href="#DejaVuSans-64" transform="translate(547.664062 0)"/>
     <use xlink:href="#DejaVuSans-69" transform="translate(611.140625 0)"/>
     <use xlink:href="#DejaVuSans-65" transform="translate(638.923828 0)"/>
     <use xlink:href="#DejaVuSans-32" transform="translate(700.447266 0)"/>
    </g>
   </g>
   <g id="text_30">
    <!-- scan_capture_die2 -->
    <g transform="translate(410.730086 105.13858) scale(0.08 -0.08)">
     <use xlink:href="#DejaVuSans-73"/>
     <use xlink:href="#DejaVuSans-63" transform="translate(52.099609 0)"/>
     <use xlink:href="#DejaVuSans-61" transform="translate(107.080078 0)"/>
     <use xlink:href="#DejaVuSans-6e" transform="translate(168.359375 0)"/>
     <use xlink:href="#DejaVuSans-5f" transform="translate(231.738281 0)"/>
     <use xlink:href="#DejaVuSans-63" transform="translate(281.738281 0)"/>
     <use xlink:href="#DejaVuSans-61" transform="translate(336.71875 0)"/>
     <use xlink:href="#DejaVuSans-70" transform="translate(397.998047 0)"/>
     <use xlink:href="#DejaVuSans-74" transform="translate(461.474609 0)"/>
     <use xlink:href="#DejaVuSans-75" transform="translate(500.683594 0)"/>
     <use xlink:href="#DejaVuSans-72" transform="translate(564.0625 0)"/>
     <use xlink:href="#DejaVuSans-65" transform="translate(602.925781 0)"/>
     <use xlink:href="#DejaVuSans-5f" transform="translate(664.449219 0)"/>
     <use xlink:href="#DejaVuSans-64" transform="translate(714.449219 0)"/>
     <use xlink:href="#DejaVuSans-69" transform="translate(777.925781 0)"/>
     <use xlink:href="#DejaVuSans-65" transform="translate(805.708984 0)"/>
     <use xlink:href="#DejaVuSans-32" transform="translate(867.232422 0)"/>
    </g>
   </g>
   <g id="text_31">
    <!-- instrument_access_die3_0 -->
    <g transform="translate(397.881745 52.703241) scale(0.08 -0.08)">
     <use xlink:href="#DejaVuSans-69"/>
     <use xlink:href="#DejaVuSans-6e" transform="translate(27.783203 0)"/>
     <use xlink:href="#DejaVuSans-73" transform="translate(91.162109 0)"/>
     <use xlink:href="#DejaVuSans-74" transform="translate(143.261719 0)"/>
     <use xlink:href="#DejaVuSans-72" transform="translate(182.470703 0)"/>
     <use xlink:href="#DejaVuSans-75" transform="translate(223.583984 0)"/>
     <use xlink:href="#DejaVuSans-6d" transform="translate(286.962891 0)"/>
     <use xlink:href="#DejaVuSans-65" transform="translate(384.375 0)"/>
     <use xlink:href="#DejaVuSans-6e" transform="translate(445.898438 0)"/>
     <use xlink:href="#DejaVuSans-74" transform="translate(509.277344 0)"/>
     <use xlink:href="#DejaVuSans-5f" transform="translate(548.486328 0)"/>
     <use xlink:href="#DejaVuSans-61" transform="translate(598.486328 0)"/>
     <use xlink:href="#DejaVuSans-63" transform="translate(659.765625 0)"/>
     <use xlink:href="#DejaVuSans-63" transform="translate(714.746094 0)"/>
     <use xlink:href="#DejaVuSans-65" transform="translate(769.726562 0)"/>
     <use xlink:href="#DejaVuSans-73" transform="translate(831.25 0)"/>
     <use xlink:href="#DejaVuSans-73" transform="translate(883.349609 0)"/>
     <use xlink:href="#DejaVuSans-5f" transform="translate(935.449219 0)"/>
     <use xlink:href="#DejaVuSans-64" transform="translate(985.449219 0)"/>
     <use xlink:href="#DejaVuSans-69" transform="translate(1048.925781 0)"/>
     <use xlink:href="#DejaVuSans-65" transform="translate(1076.708984 0)"/>
     <use xlink:href="#DejaVuSans-33" transform="translate(1138.232422 0)"/>
     <use xlink:href="#DejaVuSans-5f" transform="translate(1201.855469 0)"/>
     <use xlink:href="#DejaVuSans-30" transform="translate(1251.855469 0)"/>
    </g>
   </g>
   <g id="text_32">
    <!-- bist_die3_0 -->
    <g transform="translate(441.542141 52.703241) scale(0.08 -0.08)">
     <use xlink:href="#DejaVuSans-62"/>
     <use xlink:href="#DejaVuSans-69" transform="translate(63.476562 0)"/>
     <use xlink:href="#DejaVuSans-73" transform="translate(91.259766 0)"/>
     <use xlink:href="#DejaVuSans-74" transform="translate(143.359375 0)"/>
     <use xlink:href="#DejaVuSans-5f" transform="translate(182.568359 0)"/>
     <use xlink:href="#DejaVuSans-64" transform="translate(232.568359 0)"/>
     <use xlink:href="#DejaVuSans-69" transform="translate(296.044922 0)"/>
     <use xlink:href="#DejaVuSans-65" transform="translate(323.828125 0)"/>
     <use xlink:href="#DejaVuSans-33" transform="translate(385.351562 0)"/>
     <use xlink:href="#DejaVuSans-5f" transform="translate(448.974609 0)"/>
     <use xlink:href="#DejaVuSans-30" transform="translate(498.974609 0)"/>
    </g>
   </g>
   <g id="text_33">
    <!-- scan_shift_die3 -->
    <g transform="translate(471.043111 52.703241) scale(0.08 -0.08)">
     <use xlink:href="#DejaVuSans-73"/>
     <use xlink:href="#DejaVuSans-63" transform="translate(52.099609 0)"/>
     <use xlink:href="#DejaVuSans-61" transform="translate(107.080078 0)"/>
     <use xlink:href="#DejaVuSans-6e" transform="translate(168.359375 0)"/>
     <use xlink:href="#DejaVuSans-5f" transform="translate(231.738281 0)"/>
     <use xlink:href="#DejaVuSans-73" transform="translate(281.738281 0)"/>
     <use xlink:href="#DejaVuSans-68" transform="translate(333.837891 0)"/>
     <use xlink:href="#DejaVuSans-69" transform="translate(397.216797 0)"/>
     <use xlink:href="#DejaVuSans-66" transform="translate(425 0)"/>
     <use xlink:href="#DejaVuSans-74" transform="translate(458.455078 0)"/>
     <use xlink:href="#DejaVuSans-5f" transform="translate(497.664062 0)"/>
     <use xlink:href="#DejaVuSans-64" transform="translate(547.664062 0)"/>
     <use xlink:href="#DejaVuSans-69" transform="translate(611.140625 0)"/>
     <use xlink:href="#DejaVuSans-65" transform="translate(638.923828 0)"/>
     <use xlink:href="#DejaVuSans-33" transform="translate(700.447266 0)"/>
    </g>
   </g>
   <g id="text_34">
    <!-- scan_capture_die3 -->
    <g transform="translate(490.479242 52.703241) scale(0.08 -0.08)">
     <use xlink:href="#DejaVuSans-73"/>
     <use xlink:href="#DejaVuSans-63" transform="translate(52.099609 0)"/>
     <use xlink:href="#DejaVuSans-61" transform="translate(107.080078 0)"/>
     <use xlink:href="#DejaVuSans-6e" transform="translate(168.359375 0)"/>
     <use xlink:href="#DejaVuSans-5f" transform="translate(231.738281 0)"/>
     <use xlink:href="#DejaVuSans-63" transform="translate(281.738281 0)"/>
     <use xlink:href="#DejaVuSans-61" transform="translate(336.71875 0)"/>
     <use xlink:href="#DejaVuSans-70" transform="translate(397.998047 0)"/>
     <use xlink:href="#DejaVuSans-74" transform="translate(461.474609 0)"/>
     <use xlink:href="#DejaVuSans-75" transform="translate(500.683594 0)"/>
     <use xlink:href="#DejaVuSans-72" transform="translate(564.0625 0)"/>
     <use xlink:href="#DejaVuSans-65" transform="translate(602.925781 0)"/>
     <use xlink:href="#DejaVuSans-5f" transform="translate(664.449219 0)"/>
     <use xlink:href="#DejaVuSans-64" transform="translate(714.449219 0)"/>
     <use xlink:href="#DejaVuSans-69" transform="translate(777.925781 0)"/>
     <use xlink:href="#DejaVuSans-65" transform="translate(805.708984 0)"/>
     <use xlink:href="#DejaVuSans-33" transform="translate(867.232422 0)"/>
    </g>
   </g>
   <g id="text_35">
    <!-- serial_ieee1838_style schedule -->
    <g transform="translate(202.113291 20.88) scale(0.12 -0.12)">
     <defs>
      <path id="DejaVuSans-6c" d="M 603 4863 
L 1178 4863 
L 1178 0 
L 603 0 
L 603 4863 
z
" transform="scale(0.015625)"/>
      <path id="DejaVuSans-38" d="M 2034 2216 
Q 1584 2216 1326 1975 
Q 1069 1734 1069 1313 
Q 1069 891 1326 650 
Q 1584 409 2034 409 
Q 2484 409 2743 651 
Q 3003 894 3003 1313 
Q 3003 1734 2745 1975 
Q 2488 2216 2034 2216 
z
M 1403 2484 
Q 997 2584 770 2862 
Q 544 3141 544 3541 
Q 544 4100 942 4425 
Q 1341 4750 2034 4750 
Q 2731 4750 3128 4425 
Q 3525 4100 3525 3541 
Q 3525 3141 3298 2862 
Q 3072 2584 2669 2484 
Q 3125 2378 3379 2068 
Q 3634 1759 3634 1313 
Q 3634 634 3220 271 
Q 2806 -91 2034 -91 
Q 1263 -91 848 271 
Q 434 634 434 1313 
Q 434 1759 690 2068 
Q 947 2378 1403 2484 
z
M 1172 3481 
Q 1172 3119 1398 2916 
Q 1625 2713 2034 2713 
Q 2441 2713 2670 2916 
Q 2900 3119 2900 3481 
Q 2900 3844 2670 4047 
Q 2441 4250 2034 4250 
Q 1625 4250 1398 4047 
Q 1172 3844 1172 3481 
z
" transform="scale(0.015625)"/>
      <path id="DejaVuSans-79" d="M 2059 -325 
Q 1816 -950 1584 -1140 
Q 1353 -1331 966 -1331 
L 506 -1331 
L 506 -850 
L 844 -850 
Q 1081 -850 1212 -737 
Q 1344 -625 1503 -206 
L 1606 56 
L 191 3500 
L 800 3500 
L 1894 763 
L 2988 3500 
L 3597 3500 
L 2059 -325 
z
" transform="scale(0.015625)"/>
     </defs>
     <use xlink:href="#DejaVuSans-73"/>
     <use xlink:href="#DejaVuSans-65" transform="translate(52.099609 0)"/>
     <use xlink:href="#DejaVuSans-72" transform="translate(113.623047 0)"/>
     <use xlink:href="#DejaVuSans-69" transform="translate(154.736328 0)"/>
     <use xlink:href="#DejaVuSans-61" transform="translate(182.519531 0)"/>
     <use xlink:href="#DejaVuSans-6c" transform="translate(243.798828 0)"/>
     <use xlink:href="#DejaVuSans-5f" transform="translate(271.582031 0)"/>
     <use xlink:href="#DejaVuSans-69" transform="translate(321.582031 0)"/>
     <use xlink:href="#DejaVuSans-65" transform="translate(349.365234 0)"/>
     <use xlink:href="#DejaVuSans-65" transform="translate(410.888672 0)"/>
     <use xlink:href="#DejaVuSans-65" transform="translate(472.412109 0)"/>
     <use xlink:href="#DejaVuSans-31" transform="translate(533.935547 0)"/>
     <use xlink:href="#DejaVuSans-38" transform="translate(597.558594 0)"/>
     <use xlink:href="#DejaVuSans-33" transform="translate(661.181641 0)"/>
     <use xlink:href="#DejaVuSans-38" transform="translate(724.804688 0)"/>
     <use xlink:href="#DejaVuSans-5f" transform="translate(788.427734 0)"/>
     <use xlink:href="#DejaVuSans-73" transform="translate(838.427734 0)"/>
     <use xlink:href="#DejaVuSans-74" transform="translate(890.527344 0)"/>
     <use xlink:href="#DejaVuSans-79" transform="translate(929.736328 0)"/>
     <use xlink:href="#DejaVuSans-6c" transform="translate(988.916016 0)"/>
     <use xlink:href="#DejaVuSans-65" transform="translate(1016.699219 0)"/>
     <use xlink:href="#DejaVuSans-20" transform="translate(1078.222656 0)"/>
     <use xlink:href="#DejaVuSans-73" transform="translate(1110.009766 0)"/>
     <use xlink:href="#DejaVuSans-63" transform="translate(1162.109375 0)"/>
     <use xlink:href="#DejaVuSans-68" transform="translate(1217.089844 0)"/>
     <use xlink:href="#DejaVuSans-65" transform="translate(1280.46875 0)"/>
     <use xlink:href="#DejaVuSans-64" transform="translate(1341.992188 0)"/>
     <use xlink:href="#DejaVuSans-75" transform="translate(1405.46875 0)"/>
     <use xlink:href="#DejaVuSans-6c" transform="translate(1468.847656 0)"/>
     <use xlink:href="#DejaVuSans-65" transform="translate(1496.630859 0)"/>
    </g>
   </g>
   <g id="legend_1">
    <g id="patch_28">
     <path d="M 68.025606 80.695 
L 168.459356 80.695 
Q 170.059356 80.695 170.059356 79.095 
L 170.059356 32.48 
Q 170.059356 30.88 168.459356 30.88 
L 68.025606 30.88 
Q 66.425606 30.88 66.425606 32.48 
L 66.425606 79.095 
Q 66.425606 80.695 68.025606 80.695 
z
" style="fill: #ffffff; opacity: 0.8; stroke: #cccccc; stroke-linejoin: miter"/>
    </g>
    <g id="patch_29">
     <path d="M 69.625606 40.15875 
L 85.625606 40.15875 
L 85.625606 34.55875 
L 69.625606 34.55875 
z
" style="fill: #7f7f7f"/>
    </g>
    <g id="text_36">
     <!-- instrument_access -->
     <g transform="translate(92.025606 40.15875) scale(0.08 -0.08)">
      <use xlink:href="#DejaVuSans-69"/>
      <use xlink:href="#DejaVuSans-6e" transform="translate(27.783203 0)"/>
      <use xlink:href="#DejaVuSans-73" transform="translate(91.162109 0)"/>
      <use xlink:href="#DejaVuSans-74" transform="translate(143.261719 0)"/>
      <use xlink:href="#DejaVuSans-72" transform="translate(182.470703 0)"/>
      <use xlink:href="#DejaVuSans-75" transform="translate(223.583984 0)"/>
      <use xlink:href="#DejaVuSans-6d" transform="translate(286.962891 0)"/>
      <use xlink:href="#DejaVuSans-65" transform="translate(384.375 0)"/>
      <use xlink:href="#DejaVuSans-6e" transform="translate(445.898438 0)"/>
      <use xlink:href="#DejaVuSans-74" transform="translate(509.277344 0)"/>
      <use xlink:href="#DejaVuSans-5f" transform="translate(548.486328 0)"/>
      <use xlink:href="#DejaVuSans-61" transform="translate(598.486328 0)"/>
      <use xlink:href="#DejaVuSans-63" transform="translate(659.765625 0)"/>
      <use xlink:href="#DejaVuSans-63" transform="translate(714.746094 0)"/>
      <use xlink:href="#DejaVuSans-65" transform="translate(769.726562 0)"/>
      <use xlink:href="#DejaVuSans-73" transform="translate(831.25 0)"/>
      <use xlink:href="#DejaVuSans-73" transform="translate(883.349609 0)"/>
     </g>
    </g>
    <g id="patch_30">
     <path d="M 69.625606 52.12375 
L 85.625606 52.12375 
L 85.625606 46.52375 
L 69.625606 46.52375 
z
" style="fill: #bcbd22"/>
    </g>
    <g id="text_37">
     <!-- bist -->
     <g transform="translate(92.025606 52.12375) scale(0.08 -0.08)">
      <use xlink:href="#DejaVuSans-62"/>
      <use xlink:href="#DejaVuSans-69" transform="translate(63.476562 0)"/>
      <use xlink:href="#DejaVuSans-73" transform="translate(91.259766 0)"/>
      <use xlink:href="#DejaVuSans-74" transform="translate(143.359375 0)"/>
     </g>
    </g>
    <g id="patch_31">
     <path d="M 69.625606 63.86625 
L 85.625606 63.86625 
L 85.625606 58.26625 
L 69.625606 58.26625 
z
" style="fill: #9467bd"/>
    </g>
    <g id="text_38">
     <!-- dwr_extest -->
     <g transform="translate(92.025606 63.86625) scale(0.08 -0.08)">
      <use xlink:href="#DejaVuSans-64"/>
      <use xlink:href="#DejaVuSans-77" transform="translate(63.476562 0)"/>
      <use xlink:href="#DejaVuSans-72" transform="translate(145.263672 0)"/>
      <use xlink:href="#DejaVuSans-5f" transform="translate(186.376953 0)"/>
      <use xlink:href="#DejaVuSans-65" transform="translate(236.376953 0)"/>
      <use xlink:href="#DejaVuSans-78" transform="translate(296.150391 0)"/>
      <use xlink:href="#DejaVuSans-74" transform="translate(355.330078 0)"/>
      <use xlink:href="#DejaVuSans-65" transform="translate(394.539062 0)"/>
      <use xlink:href="#DejaVuSans-73" transform="translate(456.0625 0)"/>
      <use xlink:href="#DejaVuSans-74" transform="translate(508.162109 0)"/>
     </g>
    </g>
    <g id="patch_32">
     <path d="M 69.625606 75.83125 
L 85.625606 75.83125 
L 85.625606 70.23125 
L 69.625606 70.23125 
z
" style="fill: #1f77b4"/>
    </g>
    <g id="text_39">
     <!-- scan -->
     <g transform="translate(92.025606 75.83125) scale(0.08 -0.08)">
      <use xlink:href="#DejaVuSans-73"/>
      <use xlink:href="#DejaVuSans-63" transform="translate(52.099609 0)"/>
      <use xlink:href="#DejaVuSans-61" transform="translate(107.080078 0)"/>
      <use xlink:href="#DejaVuSans-6e" transform="translate(168.359375 0)"/>
     </g>
    </g>
   </g>
  </g>
 </g>
 <defs>
  <clipPath id="p931ebee002">
   <rect x="62.425606" y="26.88" width="466.357871" height="204.76"/>
  </clipPath>
 </defs>
</svg>
